<?xml version="1.0" standalone="no"?>
<!DOCTYPE svg PUBLIC "-//W3C//DTD SVG 20010904//EN"
 "http://www.w3.org/TR/2001/REC-SVG-20010904/DTD/svg10.dtd">
<svg version="1.0" xmlns="http://www.w3.org/2000/svg"
 width="3840.000000pt" height="2160.000000pt" viewBox="0 0 3840.000000 2160.000000"
 preserveAspectRatio="xMidYMid meet">

<g transform="translate(0.000000,2160.000000) scale(0.100000,-0.100000)"
fill="#000000" stroke="none">
<path d="M5850 20913 c0 -10 -15 -155 -34 -323 -19 -168 -42 -379 -50 -470
-20 -200 -42 -412 -61 -580 -16 -134 -37 -343 -56 -530 -6 -63 -30 -297 -54
-520 -24 -223 -51 -479 -60 -570 -9 -91 -31 -302 -50 -470 -18 -168 -37 -341
-40 -385 -4 -44 -26 -260 -50 -480 -24 -220 -46 -431 -50 -470 -8 -87 -23
-237 -74 -710 -22 -203 -49 -462 -61 -575 -11 -113 -31 -306 -45 -430 -14
-124 -34 -317 -45 -430 -22 -236 -77 -748 -85 -800 -5 -32 -2 -37 30 -58 19
-12 35 -27 35 -32 0 -6 6 -10 13 -10 8 0 27 -13 43 -30 16 -16 35 -30 42 -30
7 0 33 -14 57 -30 24 -16 48 -30 53 -30 6 0 20 -11 33 -25 13 -13 32 -25 42
-25 9 0 17 -4 17 -10 0 -5 18 -21 40 -35 22 -14 40 -32 40 -40 0 -8 6 -15 13
-15 7 0 27 -13 45 -29 17 -16 40 -32 49 -35 17 -6 64 -44 123 -99 26 -25 69
-49 160 -89 65 -29 81 -24 143 44 25 27 33 33 23 16 -18 -30 -22 -88 -6 -88
12 0 33 -47 32 -73 -1 -21 71 -97 92 -97 24 0 46 -12 40 -21 -3 -5 7 -15 23
-21 15 -7 41 -25 57 -41 17 -15 34 -27 38 -27 3 0 9 -8 12 -18 6 -18 14 -23
89 -60 26 -13 47 -29 47 -37 0 -8 4 -15 8 -15 12 0 51 -31 81 -62 24 -26 70
-40 56 -18 -3 6 1 10 9 10 9 0 16 4 16 10 0 5 6 7 14 4 10 -4 22 8 35 33 11
22 28 46 38 53 10 8 15 11 11 6 -11 -14 18 -36 47 -36 24 0 26 3 20 23 -4 12
-7 37 -7 55 0 17 -4 32 -9 32 -5 0 -14 11 -19 25 -11 29 -30 33 -30 7 0 -9 -9
-23 -21 -30 -25 -16 -45 -3 -52 35 -4 21 3 33 34 63 44 41 48 61 20 89 -26 26
-15 34 18 15 39 -23 77 -5 101 48 11 24 20 55 20 71 0 15 4 27 9 27 5 0 12 35
15 78 8 95 32 357 51 557 27 284 46 547 41 552 -7 8 -45 -38 -46 -55 0 -7 -7
-15 -15 -19 -9 -3 -24 -22 -35 -42 -10 -20 -37 -55 -60 -76 -23 -22 -46 -44
-51 -50 -47 -55 -69 -84 -69 -93 0 -6 -7 -15 -16 -20 -8 -5 -21 -19 -27 -32
-7 -13 -17 -25 -24 -27 -22 -8 16 54 68 111 27 30 49 60 49 67 0 7 23 33 50
59 28 26 50 53 50 61 0 8 20 35 45 59 25 24 44 49 42 54 -2 5 9 23 25 39 16
19 29 47 33 71 7 50 69 753 85 956 13 173 35 429 55 635 18 190 42 473 50 590
4 50 10 135 16 190 5 55 13 152 19 215 5 63 21 234 34 380 13 146 27 301 30
345 14 184 48 578 71 830 14 149 32 353 40 454 8 101 16 185 18 187 2 3 30
-307 57 -641 6 -66 28 -322 50 -570 22 -247 47 -538 55 -645 9 -107 32 -368
51 -580 33 -380 40 -459 89 -1040 31 -360 35 -400 45 -400 9 0 32 52 29 66 -1
5 1 28 6 50 5 30 14 45 31 53 22 9 24 8 32 -22 7 -24 6 -35 -4 -43 -8 -6 -14
-22 -14 -35 0 -13 -7 -33 -15 -43 -8 -10 -12 -23 -9 -27 3 -5 -1 -9 -9 -9 -8
0 -21 -8 -30 -18 -14 -15 -15 -30 -7 -111 6 -52 17 -184 25 -293 8 -110 33
-396 54 -636 22 -241 45 -502 51 -582 6 -80 27 -316 45 -525 36 -401 58 -662
76 -885 5 -74 17 -200 24 -280 19 -193 67 -738 79 -897 l4 -63 -709 0 -709 0
5 53 c3 28 12 121 20 205 l15 153 -35 34 c-19 19 -39 35 -44 35 -12 0 -41 -52
-41 -73 0 -8 -11 -22 -25 -31 -30 -20 -31 -33 -4 -54 14 -12 18 -23 13 -37 -8
-19 -8 -18 -14 5 -4 18 -13 25 -30 25 -16 0 -26 7 -28 18 -2 9 1 17 7 17 6 0
11 9 11 20 0 13 -7 20 -20 20 -11 0 -20 5 -20 11 0 14 -52 2 -62 -14 -4 -7 -8
-21 -8 -32 0 -11 -9 -26 -20 -33 -11 -7 -20 -19 -20 -27 0 -8 -4 -15 -9 -15
-6 0 -11 -15 -13 -32 -3 -31 -5 -33 -38 -30 -33 3 -37 0 -54 -38 -10 -23 -21
-39 -24 -35 -3 3 0 11 6 17 7 7 12 22 12 35 0 18 -6 23 -25 23 -27 0 -29 6
-16 63 7 29 6 37 -5 37 -8 0 -14 5 -14 11 0 7 -10 31 -22 55 -16 33 -27 44
-45 44 -13 0 -34 9 -46 21 -14 13 -31 19 -49 16 -19 -2 -28 1 -28 11 0 10 8
12 32 7 18 -4 40 -12 49 -18 20 -12 69 -1 69 16 0 6 7 25 15 41 9 16 13 38 9
49 -4 14 -2 18 7 15 10 -4 14 -25 13 -77 0 -68 1 -72 25 -78 25 -6 25 -6 3
-14 -31 -12 -29 -45 3 -53 26 -7 65 8 65 24 0 5 15 10 33 12 29 3 32 6 33 38
0 19 6 48 12 63 16 39 16 42 -13 55 -34 16 -33 17 -38 -20 -3 -29 -4 -27 -5
10 -2 45 3 49 32 27 25 -19 77 -19 151 0 35 10 62 12 68 6 5 -5 4 -11 -2 -15
-6 -4 -11 -18 -11 -32 0 -19 5 -24 24 -24 24 0 46 17 43 35 -1 6 13 15 31 21
35 11 92 84 92 118 0 22 -21 99 -30 106 -3 3 -6 18 -7 33 -2 24 0 27 12 17 19
-16 22 -7 30 93 l6 79 -31 -19 c-18 -10 -34 -29 -36 -43 -5 -20 -11 -25 -37
-25 -29 0 -32 -3 -29 -27 3 -31 -3 -35 -23 -14 -12 12 -12 16 0 26 16 13 20
40 7 40 -4 0 -26 16 -47 36 -33 30 -43 34 -58 25 -16 -11 -17 -8 -11 37 4 31
2 52 -4 56 -8 5 -8 15 -2 32 6 14 8 29 5 34 -7 11 26 80 37 80 4 0 8 6 8 14 0
8 10 16 23 18 18 2 23 10 25 40 2 27 7 35 18 31 7 -3 11 -10 8 -15 -8 -13 15
-28 45 -28 18 0 22 4 16 18 -4 9 -8 26 -9 37 -2 32 -15 44 -45 42 -16 -1 -27
-5 -24 -9 2 -5 0 -8 -5 -8 -16 0 -22 29 -16 71 5 32 4 39 -10 39 -9 0 -16 5
-16 11 0 6 -7 9 -15 6 -13 -6 -27 3 -92 61 -14 12 -32 22 -40 22 -7 0 -16 7
-20 15 -3 9 -20 23 -37 31 -60 29 -76 39 -76 46 0 4 -16 10 -35 14 -29 5 -35
11 -35 30 0 26 -41 50 -67 40 -8 -3 -13 2 -13 14 0 21 -24 26 -50 10 -9 -6
-19 -4 -30 5 -8 7 -28 25 -43 40 -23 20 -32 23 -43 14 -11 -9 -14 -8 -14 4 0
9 -4 18 -9 22 -15 9 -58 -15 -71 -41 -7 -13 -17 -21 -22 -18 -5 4 -22 -9 -36
-27 -42 -52 -61 -69 -74 -69 -7 1 -2 10 11 21 24 19 34 35 62 86 7 13 20 25
31 28 22 8 24 38 3 55 -8 7 -15 20 -15 30 0 9 -18 30 -40 45 -22 15 -40 32
-40 36 0 5 -7 9 -15 9 -8 0 -25 11 -37 25 -12 14 -31 25 -43 25 -23 0 -55 32
-55 55 0 9 -6 12 -16 8 -9 -3 -21 3 -30 16 -8 11 -23 21 -33 21 -11 0 -25 15
-35 39 -10 21 -32 49 -50 62 -36 28 -102 59 -122 59 -8 0 -18 8 -21 18 -15 39
-70 83 -112 89 -36 5 -41 9 -41 32 0 18 -8 30 -27 39 -15 6 -31 12 -35 12 -5
0 -18 9 -30 20 -12 11 -25 20 -29 20 -3 0 -9 -39 -13 -87 -4 -49 -13 -144 -21
-213 -16 -135 -74 -688 -100 -940 -38 -367 -76 -687 -85 -710 -8 -21 -35 -259
-59 -510 l-6 -65 -110 -5 -110 -5 -2 -30 c-1 -16 -23 -127 -47 -245 -86 -416
-136 -657 -171 -820 -19 -91 -57 -271 -85 -400 -111 -530 -143 -675 -147 -687
-4 -10 43 -13 222 -13 l228 0 -7 -62 c-47 -447 -79 -775 -80 -828 -1 -64 0
-65 24 -62 14 1 20 -1 14 -5 -6 -5 -10 -20 -10 -35 1 -14 -2 -24 -6 -22 -4 3
-8 -1 -8 -10 0 -8 6 -16 13 -19 9 -3 9 -7 -2 -20 -17 -21 -35 -22 -51 -2 -7 9
-23 15 -34 13 -13 -2 -25 5 -31 16 -15 28 -31 30 -54 7 -28 -28 -26 -49 4 -57
14 -3 25 -12 25 -18 0 -7 18 -27 40 -45 44 -35 79 -35 104 1 14 20 14 20 21
-1 9 -30 -3 -43 -35 -39 -21 2 -34 -4 -51 -26 -16 -21 -19 -30 -10 -36 7 -4
11 -15 9 -25 -2 -15 -14 -18 -73 -18 -39 0 -73 -5 -77 -11 -5 -7 -8 -4 -8 7 0
9 -7 17 -15 17 -8 0 -15 -9 -15 -19 0 -19 42 -37 60 -26 6 4 10 1 10 -4 0 -6
-4 -11 -10 -11 -5 0 -12 -11 -16 -24 -3 -14 -12 -27 -20 -30 -8 -3 -14 -13
-14 -21 0 -12 6 -15 23 -10 18 6 20 5 10 -6 -19 -20 -16 -26 18 -38 23 -8 30
-15 25 -27 -5 -12 -2 -15 10 -10 8 3 19 6 24 6 5 0 16 7 24 16 15 14 16 13 16
-8 0 -30 -11 -43 -35 -43 -13 0 -20 -7 -21 -20 -1 -11 -5 -28 -9 -38 -9 -23 2
-67 24 -92 15 -16 17 -30 12 -75 l-7 -55 -5 47 c-2 28 0 50 6 52 6 2 5 9 -2
17 -10 10 -13 10 -13 0 0 -9 -9 -11 -30 -6 -38 8 -70 -2 -70 -22 0 -13 -4 -12
-19 5 -10 12 -21 19 -25 15 -3 -3 -6 1 -6 10 0 9 -7 17 -15 17 -8 0 -15 -9
-15 -20 0 -11 5 -20 10 -20 6 0 10 -10 10 -21 0 -17 5 -20 25 -17 27 6 35 -9
10 -18 -19 -8 -19 -30 0 -38 8 -3 15 0 15 6 0 6 3 8 7 5 3 -4 1 -18 -7 -31
-14 -27 -7 -60 13 -54 6 3 13 17 15 33 3 20 6 24 12 15 7 -11 13 -10 34 3 14
9 30 17 36 17 18 0 11 -22 -10 -27 -24 -6 -26 -21 -5 -29 8 -4 15 -15 15 -26
0 -14 -5 -18 -15 -14 -8 3 -22 9 -30 12 -10 4 -15 0 -15 -10 0 -9 4 -16 8 -16
5 0 19 -9 32 -20 13 -11 18 -20 12 -20 -7 0 -12 -9 -12 -21 0 -11 -4 -17 -10
-14 -5 3 -10 1 -10 -4 0 -6 -9 -11 -20 -11 -11 0 -20 5 -20 11 0 7 -18 8 -55
4 -48 -6 -55 -5 -49 9 4 12 0 16 -15 16 -11 0 -25 9 -31 20 -13 24 -70 29 -70
6 0 -8 5 -16 11 -18 7 -2 9 -13 5 -26 -4 -12 -12 -20 -17 -17 -10 7 -39 -18
-39 -34 0 -6 -4 -11 -9 -11 -17 0 -41 -31 -41 -53 1 -29 33 -67 57 -67 10 0
23 -10 28 -23 8 -18 18 -22 52 -22 23 0 47 -6 54 -13 20 -19 49 -14 59 11 32
75 60 74 60 -3 0 -48 3 -60 16 -60 10 0 14 7 12 22 -2 17 3 23 27 28 17 4 44
14 61 23 34 17 44 14 44 -15 0 -10 7 -18 15 -18 8 0 15 7 15 15 0 8 6 15 13
16 48 3 81 24 74 48 -3 14 83 16 898 13 l902 -2 6 47 c4 27 11 107 17 178 6
72 12 150 15 175 7 68 62 695 74 855 16 205 70 813 77 862 l5 43 894 0 893 0
6 -63 c3 -34 11 -125 17 -202 5 -77 19 -234 30 -350 27 -295 67 -752 75 -865
4 -52 18 -221 33 -375 l26 -280 1009 -3 1008 -2 -6 52 c-3 29 -13 127 -22 218
-8 91 -28 282 -44 425 -16 143 -41 377 -55 520 -14 143 -41 400 -60 570 -19
171 -39 364 -45 430 -7 66 -27 260 -46 430 -33 300 -57 540 -69 675 -5 54 -40
380 -84 785 -6 50 -15 142 -21 205 -6 63 -31 297 -55 520 -24 223 -47 443 -51
488 -5 64 -10 85 -23 89 -9 2 -24 9 -33 14 -11 5 -19 5 -23 -1 -12 -19 -24 -9
-27 23 -2 25 -7 32 -25 31 -20 0 -19 2 9 28 24 22 34 26 49 18 15 -9 17 -8 12
7 -4 10 -18 33 -31 51 -14 19 -25 45 -24 62 0 22 -6 32 -26 41 -26 11 -27 15
-26 75 1 35 -2 64 -7 64 -5 0 -9 27 -9 60 0 66 -15 110 -39 110 -10 0 -17 10
-17 26 -2 31 -31 64 -56 64 -27 0 -43 47 -27 78 10 18 10 25 1 31 -6 4 -12 30
-13 59 -1 29 -6 55 -11 58 -12 8 -10 52 4 56 6 2 -3 18 -22 35 -18 17 -33 39
-34 49 -2 11 -8 31 -14 47 -9 21 -18 27 -42 27 -28 0 -30 2 -19 22 6 12 16 33
20 47 l9 26 -4 -25 c-2 -14 -7 -33 -11 -42 -6 -15 -2 -18 20 -18 20 0 26 4 21
15 -3 9 -1 25 4 35 6 11 15 29 21 41 13 26 5 36 -16 19 -13 -10 -15 -9 -15 8
0 12 -4 24 -10 27 -5 3 -10 14 -10 24 0 10 -9 26 -19 36 -19 16 -21 16 -50 -5
-24 -16 -31 -18 -31 -7 0 8 -7 17 -15 21 -8 3 -15 10 -15 16 0 6 -9 21 -20 32
-15 16 -17 24 -8 29 13 9 56 2 73 -11 15 -12 49 -15 63 -7 20 13 14 37 -9 37
-21 0 -21 1 -4 26 14 22 15 28 2 42 -8 10 -17 25 -21 35 -3 11 -14 21 -24 24
-19 4 -23 56 -8 100 4 12 2 24 -3 27 -6 4 -8 13 -5 20 7 17 -38 66 -61 66 -23
0 -75 38 -75 55 0 8 9 17 20 20 12 4 20 15 20 29 0 13 6 29 14 35 10 9 17 6
30 -13 9 -14 16 -30 16 -35 0 -20 22 -23 41 -5 28 25 24 72 -9 103 -24 24 -27
34 -27 91 0 60 -2 64 -25 71 -23 6 -19 9 19 13 18 1 27 26 11 26 -10 0 -10 3
0 15 13 16 6 35 -15 35 -7 0 -16 7 -19 16 -8 21 -8 20 11 39 13 13 14 21 5 35
-9 16 -7 18 20 22 16 3 35 -1 41 -7 12 -13 43 -9 65 8 17 14 15 57 -3 57 -8 0
-15 5 -15 11 0 8 -17 10 -57 5 -38 -4 -53 -3 -44 3 12 8 13 14 3 35 -7 16 -8
26 -2 26 6 0 10 7 10 16 0 10 -7 14 -22 12 -25 -3 -39 30 -31 70 4 15 0 22
-10 22 -30 0 -26 28 6 49 31 20 32 20 50 1 19 -21 58 -35 79 -28 7 3 20 -3 29
-14 15 -16 20 -17 55 -4 28 9 40 19 42 36 3 19 0 22 -20 18 -13 -2 -30 1 -36
9 -18 19 -29 16 -35 -8 -3 -12 -10 -18 -16 -15 -6 4 -1 24 15 54 25 46 48 161
35 174 -3 4 -26 0 -50 -8 -53 -18 -65 -10 -64 42 1 34 0 35 -20 19 -35 -25
-68 -36 -89 -29 -17 5 -19 12 -13 51 4 25 14 62 23 82 24 51 62 80 62 46 0
-15 28 -21 79 -16 13 1 34 -8 47 -20 27 -25 33 -69 9 -69 -23 0 -18 -22 13
-60 l28 -33 33 24 c18 13 36 33 40 44 4 11 3 78 -3 149 -9 102 -9 129 1 133
20 8 14 81 -7 88 -13 4 -19 27 -28 108 -7 64 -8 103 -2 105 13 5 13 39 0 44
-10 3 -37 220 -65 513 -8 83 -30 290 -50 460 -20 171 -42 380 -51 465 -8 85
-32 310 -54 500 -22 190 -40 353 -40 363 0 9 -7 17 -16 17 -10 0 -14 -7 -12
-23 2 -22 -33 -90 -55 -104 -15 -10 -33 -37 -53 -83 -9 -19 -25 -41 -35 -48
-10 -7 -19 -17 -19 -23 0 -5 -13 -27 -29 -49 -15 -21 -34 -58 -40 -82 -9 -30
-23 -49 -46 -64 -39 -26 -66 -17 -35 11 11 10 20 24 20 32 0 8 14 28 30 45 17
16 30 37 30 47 0 9 9 27 19 38 11 11 24 39 30 61 6 22 18 43 26 46 8 3 15 17
15 31 0 14 6 25 13 25 7 0 22 6 32 14 17 12 18 17 6 39 -16 30 -8 62 14 53 29
-11 65 15 65 46 0 25 -3 28 -25 22 -15 -4 -25 -2 -25 4 0 6 10 12 21 14 26 4
49 35 34 46 -16 11 -16 29 0 42 8 7 15 21 15 30 0 10 5 20 11 22 13 4 12 9
-46 513 -36 309 -71 621 -81 720 -3 33 -17 150 -30 260 -23 190 -57 491 -70
620 -3 33 -17 152 -30 265 -37 312 -52 447 -74 660 -11 107 -22 205 -25 218
l-5 22 -1550 0 c-1470 0 -1550 -1 -1550 -17z m3120 -4022 c0 -16 -13 -45 -30
-67 -52 -68 -50 -66 -67 -53 -13 11 -13 14 4 26 42 28 62 57 57 79 -7 27 2 44
22 44 9 0 14 -10 14 -29z m-139 -247 c-12 -19 -19 -39 -16 -44 3 -4 -2 -11
-10 -14 -13 -5 -15 0 -9 32 4 20 14 42 23 49 29 22 33 14 12 -23z m-51 -105
c0 -17 -58 -96 -75 -103 -21 -8 -31 19 -19 52 13 37 94 81 94 51z m-329 -496
c-6 -16 -21 -34 -32 -41 -20 -13 -20 -12 -3 20 21 41 35 60 42 54 2 -3 -1 -18
-7 -33z m-61 -88 c0 -13 -4 -26 -9 -29 -5 -4 -7 3 -4 14 3 12 -1 22 -11 26 -9
3 -14 10 -11 15 10 16 35 -3 35 -26z m-27 -65 c-3 -11 -9 -23 -14 -26 -10 -6
-12 29 -2 39 13 13 21 7 16 -13z m-31 -67 c-3 -16 -7 -22 -10 -15 -4 13 4 42
11 42 2 0 2 -12 -1 -27z m-32 -73 c-6 -11 -15 -20 -20 -20 -5 0 -12 -11 -16
-25 -6 -24 -40 -52 -50 -42 -5 4 86 107 94 107 1 0 -2 -9 -8 -20z m-110 -193
c0 -21 -49 -67 -65 -61 -16 7 -12 17 18 52 22 24 47 29 47 9z m-74 -132 c-29
-44 -47 -31 -37 28 0 4 11 11 24 16 29 11 35 -11 13 -44z m-60 -76 c-9 -18
-16 -38 -16 -46 0 -7 -7 -13 -15 -13 -13 0 -21 -25 -16 -52 0 -5 -6 -8 -15 -8
-9 0 -12 -5 -8 -11 4 -7 1 -10 -7 -7 -9 3 -13 17 -12 36 2 17 -2 34 -7 37 -18
11 -10 22 30 40 22 10 47 29 56 42 22 34 30 21 10 -18z m1334 -645 c0 -1 -8
-4 -18 -6 -10 -3 -28 3 -40 12 l-22 18 21 26 21 27 19 -38 c10 -20 19 -38 19
-39z m-2810 -1409 c0 -2 -10 -9 -22 -15 -22 -11 -22 -10 -4 4 21 17 26 19 26
11z m-140 -170 c-7 -9 -15 -13 -19 -10 -3 3 1 10 9 15 21 14 24 12 10 -5z
m-40 -59 c0 -2 -8 -10 -17 -17 -16 -13 -17 -12 -4 4 13 16 21 21 21 13z m-46
-71 c-4 -9 -15 -20 -26 -26 -19 -10 -19 -10 -3 15 19 28 38 35 29 11z m-54
-54 c0 -5 -7 -12 -16 -15 -14 -5 -15 -4 -4 9 14 17 20 19 20 6z m-40 -48 c0
-5 -13 -23 -28 -41 -24 -27 -28 -29 -28 -12 0 11 6 20 13 20 7 0 18 9 25 20
14 21 18 24 18 13z m3146 -51 c9 9 30 -13 38 -40 6 -16 -1 -33 -23 -64 -21
-28 -31 -36 -31 -24 0 12 -5 16 -15 13 -8 -4 -18 -1 -21 5 -12 19 -10 70 3 75
7 3 13 13 13 22 0 24 12 34 21 19 4 -7 11 -9 15 -6z m-2626 -329 c0 -10 -4
-24 -9 -31 -7 -11 -10 -10 -15 3 -10 28 -7 45 9 45 8 0 15 -8 15 -17z m-156
-68 c-4 -8 -10 -15 -15 -15 -4 0 -6 7 -3 15 4 8 10 15 15 15 4 0 6 -7 3 -15z
m3026 -209 c0 -3 -4 -8 -10 -11 -5 -3 -10 -1 -10 4 0 6 5 11 10 11 6 0 10 -2
10 -4z m4 -68 c-1 -18 2 -36 8 -39 6 -4 7 -12 4 -18 -15 -23 -23 -9 -25 39 -1
28 2 50 7 50 4 0 7 -15 6 -32z m-3904 13 c0 -5 -9 -13 -20 -16 -11 -4 -26 -21
-34 -38 -16 -39 -60 -87 -78 -87 -7 1 -3 9 10 19 12 11 22 24 22 30 0 7 6 14
14 17 8 3 20 19 26 35 15 36 60 66 60 40z m967 -833 c-3 -7 -5 -2 -5 12 0 14
2 19 5 13 2 -7 2 -19 0 -25z m-97 -53 c0 -8 -4 -15 -10 -15 -5 0 -10 7 -10 15
0 8 5 15 10 15 6 0 10 -7 10 -15z m-640 -340 c19 -7 28 -14 20 -14 -10 -1 -20
-18 -28 -45 -9 -37 -9 -50 3 -73 8 -15 15 -34 15 -40 0 -7 9 -13 21 -13 12 0
23 -8 26 -20 3 -11 13 -20 22 -21 11 0 9 -3 -6 -9 -13 -5 -23 -17 -23 -26 0
-18 -62 -84 -79 -84 -6 0 -23 13 -37 29 -14 16 -37 32 -50 35 -17 5 -24 13
-24 29 0 13 -4 27 -9 33 -17 18 16 72 52 83 34 11 35 13 41 81 4 39 10 70 14
69 4 0 23 -7 42 -14z m193 -275 c-4 -4 -24 4 -43 18 l-35 25 38 -6 c30 -5 37
-3 38 11 1 9 4 4 6 -12 3 -16 1 -32 -4 -36z m-1643 -3295 c0 -2 -9 -3 -19 -2
-11 0 -18 5 -15 9 4 6 34 0 34 -7z m-150 -507 c0 -18 -2 -20 -9 -8 -6 8 -7 18
-5 22 9 14 14 9 14 -14z m-190 -613 c0 -8 5 -15 10 -15 27 0 5 -21 -32 -31
-63 -18 -187 -19 -181 -2 3 8 13 11 24 8 10 -3 28 -1 40 5 17 9 23 9 29 0 12
-20 59 -3 72 25 12 27 38 34 38 10z m259 -117 c0 -13 -3 -17 -6 -10 -2 6 -12
12 -21 13 -14 0 -13 2 3 9 11 5 21 9 23 9 1 1 2 -9 1 -21z"/>
<path d="M14538 20923 c-1083 -2 -1968 -6 -1968 -11 -1 -12 -16 -80 -49 -227
-18 -77 -41 -183 -51 -235 -10 -52 -37 -171 -58 -265 -22 -93 -43 -190 -47
-215 -4 -25 -18 -92 -32 -150 -13 -58 -49 -217 -78 -355 -29 -137 -74 -346
-99 -463 -25 -117 -46 -215 -46 -217 0 -3 103 -5 230 -5 l230 0 2 -3577 3
-3578 30 -5 c17 -3 56 -18 87 -34 32 -15 64 -26 72 -23 8 3 24 -5 36 -18 11
-12 37 -25 57 -28 19 -3 40 -13 47 -21 6 -8 23 -17 37 -20 14 -2 56 -18 94
-36 38 -18 78 -34 90 -36 45 -8 105 -34 127 -54 12 -11 35 -20 52 -20 36 0
216 -59 216 -70 0 -5 9 -6 20 -3 12 3 22 -1 26 -11 3 -9 10 -16 15 -16 5 0 31
-9 57 -21 26 -12 56 -25 67 -30 11 -5 34 -8 50 -7 23 1 41 -9 72 -41 32 -30
55 -44 93 -52 31 -7 50 -16 50 -25 0 -15 1 -15 38 -19 23 -2 104 -39 131 -59
8 -6 37 -16 65 -23 43 -10 53 -10 63 3 6 9 14 15 17 15 19 -1 36 14 36 34 0
13 7 25 15 29 16 6 21 36 6 36 -5 0 -3 14 5 30 9 17 20 30 25 30 5 0 9 17 9
38 0 20 7 50 15 66 8 15 15 38 15 50 0 12 5 27 12 34 8 8 8 15 -2 27 -10 12
-10 19 -2 27 7 7 12 23 12 36 0 13 5 32 11 44 14 26 20 128 7 128 -5 0 4 12
21 26 17 14 29 29 26 34 -6 9 17 60 28 60 5 0 6 14 2 30 -6 26 -4 30 14 30 25
0 26 8 6 30 -12 13 -13 23 -6 44 6 14 16 26 22 26 6 0 9 9 6 19 -3 12 3 27 14
37 11 10 19 30 19 51 0 18 5 33 11 33 5 0 9 12 8 28 -3 37 12 112 22 112 5 0
9 12 9 28 0 15 6 36 14 47 7 11 16 36 20 56 4 21 14 52 23 69 12 26 13 37 5
51 -7 11 -8 20 -2 24 5 3 10 16 10 28 -1 63 8 99 26 118 l21 21 5 -27 c3 -15
1 -28 -6 -31 -7 -3 -12 -27 -13 -57 -1 -29 -9 -69 -18 -91 -9 -21 -17 -56 -18
-77 -1 -21 -4 -39 -8 -39 -3 0 -11 -39 -18 -87 -25 -177 -48 -264 -71 -270
-15 -4 -19 -18 -23 -66 -3 -34 -10 -82 -16 -107 -19 -85 -39 -195 -35 -199 2
-2 -1 -10 -7 -17 -6 -8 -9 -21 -5 -29 3 -9 -1 -18 -9 -22 -10 -3 -15 -17 -13
-38 1 -18 -6 -44 -15 -58 -9 -14 -16 -36 -16 -49 1 -13 -3 -36 -10 -51 -6 -16
-9 -32 -6 -37 3 -5 0 -12 -6 -15 -5 -4 -8 -13 -5 -20 6 -16 -15 -75 -27 -75
-5 0 -7 -11 -5 -24 1 -13 -3 -30 -11 -39 -15 -19 -8 -63 17 -92 9 -11 37 -27
61 -35 24 -8 64 -24 89 -37 25 -13 51 -23 59 -23 7 0 13 -3 13 -7 0 -10 49
-33 70 -33 8 0 21 -9 28 -20 7 -11 20 -20 30 -20 9 0 26 -7 36 -15 11 -8 36
-15 56 -15 24 0 43 -7 55 -20 10 -11 23 -19 29 -18 12 1 48 -12 56 -21 11 -13
69 -41 84 -41 9 0 34 -8 55 -17 32 -14 41 -23 43 -46 2 -24 10 -31 43 -43 22
-7 48 -14 58 -14 9 0 36 -14 60 -31 23 -18 33 -29 22 -24 -24 9 -38 12 -86 20
-19 3 -45 14 -56 24 -19 18 -100 51 -124 51 -6 0 -30 9 -55 20 -24 11 -58 23
-74 27 -17 3 -33 10 -36 14 -10 17 -205 89 -239 89 -8 0 -18 7 -21 15 -4 8
-17 15 -30 15 -13 0 -24 4 -24 8 0 5 -12 9 -27 10 -16 0 -55 10 -87 21 -33 12
-67 21 -76 21 -24 0 -48 -30 -55 -70 -3 -19 -10 -51 -15 -70 -6 -19 -10 -48
-10 -65 0 -16 -7 -43 -15 -59 -8 -15 -15 -42 -15 -58 0 -16 -4 -37 -10 -47 -5
-10 -11 -38 -13 -62 -7 -72 -29 -163 -45 -182 -11 -12 -16 -42 -17 -96 -1 -43
-4 -82 -7 -87 -3 -5 -11 -34 -18 -64 -7 -30 -17 -71 -23 -90 -5 -19 -13 -62
-17 -95 -5 -33 -13 -78 -19 -100 -5 -22 -16 -63 -23 -91 -7 -28 -20 -58 -30
-67 -10 -10 -15 -29 -13 -49 1 -20 -8 -53 -23 -83 -19 -38 -26 -69 -29 -125
-1 -41 -8 -87 -14 -102 -6 -15 -9 -43 -7 -63 2 -19 1 -35 -3 -35 -9 0 -9 -4
-13 -107 -1 -40 -8 -79 -15 -87 -7 -8 -12 -25 -11 -38 1 -13 1 -25 0 -28 -5
-15 -11 -51 -17 -102 -3 -32 -10 -58 -14 -58 -5 0 -9 -7 -9 -15 0 -8 5 -15 11
-15 11 0 6 -25 -16 -75 -7 -16 -15 -51 -19 -78 -5 -42 -4 -47 14 -47 11 0 20
5 20 11 0 6 26 38 58 71 100 106 112 119 112 128 0 4 7 10 15 14 24 9 18 -6
-20 -47 -19 -21 -35 -44 -35 -51 0 -7 -3 -16 -7 -20 -5 -4 -8 -13 -8 -19 0 -6
-14 -21 -32 -32 -18 -11 -32 -24 -33 -30 0 -5 -18 -25 -40 -44 -30 -25 -42
-44 -47 -73 -3 -22 -11 -45 -17 -51 -17 -18 -56 -97 -56 -113 0 -8 -3 -14 -8
-14 -17 0 -44 -72 -48 -130 -3 -34 -11 -75 -19 -91 -8 -15 -15 -39 -15 -53 0
-14 -4 -28 -10 -31 -5 -3 -12 -28 -16 -55 -6 -44 -10 -50 -35 -55 -27 -6 -29
-10 -29 -51 0 -30 -5 -46 -15 -50 -8 -3 -14 -16 -14 -27 1 -45 -33 -204 -51
-238 -10 -18 -51 -213 -48 -227 3 -13 -22 -91 -32 -97 -4 -3 -8 -29 -7 -59 0
-30 -3 -60 -9 -68 -12 -16 -35 -83 -33 -95 3 -12 -12 -119 -28 -198 -7 -38
-16 -89 -18 -113 -2 -24 -11 -54 -19 -67 -9 -14 -16 -36 -16 -51 0 -29 -26
-127 -41 -156 -26 -50 -50 -48 547 -48 305 0 553 -4 550 -8 -3 -5 51 -8 119
-8 l124 1 -4 65 c-3 51 -1 60 8 45 6 -11 11 -29 12 -40 0 -30 35 -33 35 -2 0
13 3 27 8 31 7 7 10 27 15 88 1 14 5 24 10 21 4 -2 7 8 7 24 1 27 1 27 15 9 8
-11 15 -28 15 -39 0 -10 5 -15 10 -12 6 4 18 1 26 -6 11 -9 18 -9 26 -1 16 16
2 42 -22 42 l-20 0 0 1540 c0 1353 -2 1540 -15 1540 -8 0 -17 -11 -21 -24 -3
-13 -16 -28 -29 -34 l-24 -11 14 45 c7 25 21 54 30 64 9 10 14 23 11 29 -7 10
15 36 36 43 10 4 14 100 16 442 l3 437 292 -1 c205 -1 291 2 289 9 -3 15 31
14 47 -1 9 -10 133 -13 549 -13 521 0 540 1 651 23 609 123 1080 481 1342
1017 101 209 150 382 179 640 14 123 14 6995 0 7120 -52 468 -235 846 -561
1160 -242 232 -490 369 -849 469 -68 18 -230 47 -250 43 -8 -1 -900 -3 -1982
-4z m1937 -121 c-6 -23 -8 -24 -16 -10 -7 12 -5 24 3 38 16 24 23 9 13 -28z
m-8 -74 c-3 -8 -6 -5 -6 6 -1 11 2 17 5 13 3 -3 4 -12 1 -19z m-24 -73 c-3 -9
-8 -14 -10 -11 -3 3 -2 9 2 15 9 16 15 13 8 -4z m-9 -67 c-8 -50 -23 -85 -24
-53 0 24 19 95 26 95 2 0 1 -19 -2 -42z m-42 -132 c3 -14 1 -31 -3 -38 -6 -8
-9 1 -9 25 0 42 6 48 12 13z m-231 -843 c-9 -16 -10 -14 -11 12 0 21 3 26 11
18 8 -8 8 -16 0 -30z m-231 -846 c0 -8 -3 -17 -7 -21 -5 -4 -9 -20 -11 -34 -1
-15 -4 -37 -5 -49 -1 -13 -5 -23 -9 -23 -3 0 -9 -37 -13 -82 -4 -46 -9 -1400
-11 -3010 l-4 -2928 -515 0 c-396 0 -519 3 -529 12 -11 11 -11 15 1 23 11 8
12 17 4 36 -5 15 -6 31 0 40 9 14 13 119 5 119 -18 0 -36 -15 -36 -31 0 -10
-6 -19 -14 -19 -8 0 -32 -21 -55 -47 -22 -26 -41 -43 -41 -37 0 6 9 19 20 29
23 21 26 45 6 45 -8 0 -13 8 -12 17 0 10 -8 19 -19 21 -11 2 -24 10 -28 18 -9
16 -37 19 -37 4 0 -6 11 -23 25 -38 18 -19 21 -28 12 -34 -6 -4 -15 -4 -20 1
-13 13 -57 0 -57 -16 0 -10 6 -12 20 -8 24 8 25 1 3 -24 -16 -20 -17 -20 -35
10 -16 26 -20 28 -38 17 -14 -9 -23 -10 -28 -2 -4 6 -15 13 -24 17 -11 4 -15
13 -11 26 4 17 7 18 19 6 8 -7 14 -18 14 -24 0 -19 20 -22 42 -7 12 9 19 16
14 16 -5 0 -3 7 4 15 7 8 10 21 7 29 -4 9 -1 13 6 11 7 -3 18 -1 26 4 12 8 12
12 2 25 -12 14 -10 15 19 9 30 -6 33 -4 25 13 -4 10 -7 29 -6 42 1 23 -8 28
-25 15 -5 -5 -1 0 9 10 11 9 25 17 33 17 8 0 14 8 14 19 0 22 25 45 40 36 5
-3 10 1 10 9 0 9 -4 16 -9 16 -16 0 -18 34 -3 52 18 22 9 48 -18 48 -24 0 -27
18 -5 27 9 3 15 13 13 22 -4 25 10 40 33 34 18 -5 20 -3 15 15 -4 13 -2 24 7
29 22 13 36 70 41 166 3 48 8 92 12 98 4 6 1 14 -5 18 -16 10 -9 93 9 108 13
10 13 14 -3 30 -10 12 -17 36 -17 61 0 50 -11 53 -42 12 -23 -31 -72 -62 -82
-52 -11 10 -6 20 14 25 15 4 20 14 22 41 1 20 2 44 2 54 1 9 8 22 16 28 8 7
15 28 17 47 2 44 19 77 38 77 13 0 15 28 17 168 1 92 1 179 0 194 -1 17 7 36
23 52 14 14 25 30 25 36 0 14 -47 13 -53 -2 -3 -7 -6 -3 -6 10 -1 12 5 22 13
22 13 0 26 20 26 41 0 8 -51 39 -65 39 -3 0 -1 -9 5 -19 16 -31 12 -42 -14
-35 -17 4 -30 0 -44 -14 -13 -13 -28 -18 -46 -15 -19 4 -34 -1 -51 -17 -26
-25 -59 -46 -87 -56 -10 -3 -18 -13 -18 -20 0 -8 -7 -14 -15 -14 -21 0 -19
-30 3 -31 10 0 12 -3 5 -6 -18 -7 -16 -33 4 -55 16 -18 44 -24 57 -11 4 4 17
8 29 8 18 0 22 6 22 32 0 36 11 31 17 -7 2 -18 -3 -28 -19 -35 -23 -10 -29
-25 -16 -39 17 -17 10 -33 -13 -28 -33 6 -32 -21 1 -36 14 -6 25 -19 25 -29 0
-15 -2 -15 -15 3 -15 19 -15 19 -34 -3 -11 -13 -29 -23 -40 -23 -12 0 -21 -6
-21 -12 0 -23 18 -41 33 -35 9 3 28 -8 48 -29 18 -19 29 -34 25 -34 -5 0 -14
6 -20 13 -17 21 -108 10 -104 -12 2 -9 13 -20 26 -26 12 -5 22 -16 22 -23 0
-8 9 -16 20 -19 11 -3 20 -12 20 -19 0 -8 5 -14 10 -14 13 0 13 -21 0 -40 -9
-13 -13 -12 -30 8 -10 13 -27 25 -37 27 -33 6 -70 30 -65 43 5 16 -15 15 -72
-4 -46 -16 -49 -16 -93 7 -25 13 -48 30 -51 39 -3 8 -10 18 -16 22 -8 5 -8 8
0 8 6 0 17 -7 24 -15 7 -8 23 -15 36 -15 12 0 26 -4 29 -10 10 -16 55 -12 55
5 0 8 -4 15 -10 15 -5 0 -22 18 -36 40 -15 23 -33 39 -39 36 -6 -2 -20 9 -29
26 -10 16 -29 33 -42 38 -13 5 -24 16 -24 24 0 8 -15 29 -32 46 -20 19 -24 27
-11 19 18 -11 26 -11 49 1 32 18 42 39 23 51 -11 7 -11 9 4 9 9 0 17 -5 17
-11 0 -6 9 -9 20 -6 13 3 24 -3 35 -19 8 -13 22 -24 30 -24 9 0 15 -9 15 -21
0 -18 2 -20 15 -9 9 7 14 19 11 26 -3 8 0 11 10 7 17 -6 19 18 2 37 -7 8 -3 6
10 -4 13 -12 22 -30 22 -48 0 -21 5 -28 20 -28 11 0 20 4 20 10 0 5 16 12 35
16 34 6 50 34 20 34 -8 0 -15 5 -15 10 0 15 -62 81 -84 89 -17 7 -15 11 20 37
78 58 80 61 60 83 -17 19 -17 19 2 14 12 -3 22 1 25 11 4 9 15 16 26 16 11 0
23 5 26 11 4 6 13 8 21 5 8 -3 21 5 30 18 12 19 23 24 50 21 58 -4 134 30 134
60 0 8 8 11 21 8 19 -5 21 -3 17 24 -4 30 13 41 37 22 7 -5 9 680 7 2052 l-2
2059 535 0 c439 0 535 -2 535 -13z m-1516 -4339 c20 2 20 2 2 -9 -15 -9 -22
-7 -40 12 -16 18 -17 20 -2 8 11 -8 29 -13 40 -11z m331 -28 c-3 -6 0 -13 8
-16 14 -5 16 -42 3 -81 -5 -17 -15 -23 -36 -23 -52 0 -60 7 -43 41 8 16 22 33
31 38 9 5 14 13 10 16 -4 4 -1 13 5 21 14 15 31 19 22 4z m-104 -403 c-10 -9
-11 -8 -5 6 3 10 9 15 12 12 3 -3 0 -11 -7 -18z m-20 -82 c11 -4 17 -11 13
-16 -4 -6 -16 -1 -30 12 -13 12 -20 27 -16 33 4 7 8 5 10 -6 2 -9 12 -20 23
-23z m-17 -93 c-4 -14 -54 -48 -54 -37 0 5 50 55 55 55 2 0 1 -8 -1 -18z m61
-32 c3 -5 1 -10 -4 -10 -6 0 -11 5 -11 10 0 6 2 10 4 10 3 0 8 -4 11 -10z
m109 -165 c-4 -8 -11 -15 -16 -15 -6 0 -5 6 2 15 7 8 14 15 16 15 2 0 1 -7 -2
-15z m-890 -1 c9 -3 16 -15 16 -25 0 -23 -8 -24 -32 -2 -30 27 -21 41 16 27z
m336 -54 c0 -5 -5 -10 -11 -10 -5 0 -7 5 -4 10 3 6 8 10 11 10 2 0 4 -4 4 -10z
m573 -950 c-7 -27 -19 -34 -27 -15 -4 11 14 31 31 35 0 0 -1 -9 -4 -20z m-103
-3304 c0 -2 -8 -10 -17 -17 -16 -13 -17 -12 -4 4 13 16 21 21 21 13z m-325
-405 c3 -6 -4 -15 -15 -21 -19 -10 -20 -10 -8 9 15 24 15 24 23 12z m-35 -56
c0 -8 -4 -15 -10 -15 -5 0 -7 7 -4 15 4 8 8 15 10 15 2 0 4 -7 4 -15z m14
-2420 c3 -9 0 -15 -9 -15 -9 0 -12 6 -9 15 4 8 7 15 9 15 2 0 5 -7 9 -15z"/>
<path d="M20631 20893 c-6 -21 -19 -81 -31 -133 -11 -52 -41 -189 -66 -305
-25 -115 -61 -282 -79 -370 -18 -88 -47 -223 -64 -300 -17 -77 -46 -214 -66
-305 -19 -91 -38 -175 -41 -186 -4 -16 0 -23 15 -27 15 -3 21 -13 21 -31 0
-14 3 -26 8 -26 4 0 36 14 71 32 44 23 65 29 68 21 3 -8 15 -10 34 -6 40 8 40
-22 -1 -45 -34 -20 -36 -24 -15 -56 14 -21 14 -24 1 -29 -20 -8 -78 14 -95 37
-11 14 -23 17 -57 13 -24 -2 -44 -1 -44 4 0 5 -7 9 -15 9 -8 0 -15 -9 -15 -20
0 -11 -18 -97 -40 -191 -22 -95 -40 -178 -40 -185 0 -12 77 -14 438 -13 240 0
572 4 737 8 237 7 302 6 307 -4 6 -9 18 -11 43 -5 19 4 35 4 35 0 0 -14 66
-50 93 -50 14 0 28 6 30 13 3 7 6 5 6 -5 1 -10 7 -18 15 -18 8 0 22 -7 31 -16
14 -15 20 -15 63 4 50 22 62 21 62 -6 1 -26 26 -53 43 -46 9 3 29 -5 47 -17
28 -21 34 -22 75 -11 43 11 80 8 70 -8 -3 -4 12 -2 32 5 36 12 38 12 54 -14 9
-14 31 -39 48 -54 30 -26 35 -27 68 -16 31 10 38 9 63 -10 16 -11 49 -25 74
-32 27 -7 46 -17 46 -25 0 -16 5 -17 47 -5 24 7 33 6 37 -5 4 -10 24 -14 71
-14 l65 0 -2 -437 -3 -438 -66 -50 c-37 -27 -129 -98 -205 -156 -187 -142
-304 -232 -459 -350 -71 -54 -195 -149 -275 -210 -80 -61 -208 -158 -285 -217
-77 -58 -167 -127 -200 -152 -109 -84 -228 -175 -360 -275 -71 -54 -161 -123
-200 -153 -38 -30 -96 -73 -127 -96 -32 -22 -58 -44 -58 -47 0 -4 16 -23 35
-42 37 -37 46 -76 21 -96 -11 -9 -17 -6 -30 14 -9 14 -20 25 -24 25 -7 0 -5
-3690 3 -3698 2 -2 18 7 35 22 17 14 40 26 50 26 10 0 22 5 25 10 3 6 12 10
20 10 8 0 26 5 42 11 15 7 35 13 43 15 57 12 77 18 90 29 8 7 28 15 44 19 17
4 46 21 67 37 20 16 39 29 42 29 4 0 23 11 43 25 20 14 43 25 51 25 28 0 154
59 166 77 4 7 19 13 33 13 13 0 32 4 42 9 9 6 44 22 77 37 33 15 87 40 119 55
33 16 64 29 69 29 16 0 201 82 218 97 8 7 23 13 32 13 9 0 33 10 54 21 99 56
145 79 157 79 8 0 67 27 132 60 64 33 121 60 126 60 5 0 22 10 38 21 21 16 41
21 72 19 84 -4 130 -2 137 7 13 19 56 43 79 43 13 0 54 18 92 40 38 22 73 40
79 40 6 0 10 3 10 8 -4 24 3 33 20 27 11 -3 22 -1 26 5 3 5 12 10 20 10 8 0
26 5 42 12 15 7 33 12 38 13 39 5 85 21 118 42 20 13 52 26 70 30 18 3 37 9
42 14 6 4 27 10 48 14 20 4 47 15 60 24 12 10 38 24 57 31 19 8 41 20 50 28
27 24 91 62 103 62 24 0 272 102 292 119 11 10 34 21 50 24 44 8 105 36 105
47 0 6 4 10 10 10 5 0 39 14 73 30 35 17 67 30 71 30 4 0 28 15 54 32 26 18
50 32 55 30 4 -1 46 20 95 47 48 28 99 53 114 56 14 4 42 23 62 42 33 33 38
35 80 29 38 -6 49 -4 68 13 12 12 38 23 57 27 20 3 42 7 49 9 9 3 12 84 12
360 l0 355 -985 0 -985 0 0 341 0 340 -30 44 c-27 39 -28 44 -12 51 9 4 23 6
30 5 9 -1 12 220 12 1082 l0 1083 43 31 c23 17 106 80 184 139 78 60 206 158
285 218 79 60 179 137 223 171 44 34 139 106 210 160 72 54 157 120 190 145
84 65 293 224 399 303 48 37 106 72 127 78 21 7 39 15 39 18 0 13 67 35 105
36 22 0 55 8 73 18 17 10 32 13 32 8 0 -14 71 -5 81 11 5 7 6 20 3 29 -5 17
21 33 37 24 5 -4 6 1 3 9 -3 9 -1 16 5 16 6 0 11 -6 11 -13 0 -7 6 -22 14 -33
11 -14 17 -16 27 -7 14 14 39 6 33 -12 -3 -7 5 -15 19 -18 13 -4 34 -16 47
-27 29 -25 45 -21 45 11 0 21 -4 24 -32 23 -18 -1 -33 1 -34 5 0 3 -2 18 -4
33 -4 29 9 46 20 28 13 -21 25 -8 25 28 1 20 7 48 15 62 14 25 14 25 15 3 0
-14 6 -23 15 -23 8 0 15 7 15 15 0 12 14 15 68 15 37 0 62 -4 56 -8 -5 -4 -11
-27 -12 -52 -1 -27 -7 -49 -17 -56 -8 -6 -15 -18 -15 -27 0 -13 5 -15 23 -8
25 9 99 7 116 -4 6 -3 11 -1 11 4 0 6 7 11 15 11 8 0 15 -4 15 -8 0 -18 69
-33 107 -23 43 12 52 7 35 -19 -19 -31 -14 -44 24 -62 54 -27 149 -21 104 7
-5 3 -10 13 -10 21 0 10 7 13 25 8 27 -7 32 4 13 25 -10 11 -10 14 0 18 17 6
18 624 1 656 -9 16 -9 22 0 25 7 2 11 40 11 114 0 99 -2 110 -19 115 -15 4
-20 21 -30 103 -12 108 -8 143 14 113 7 -9 11 -23 8 -30 -3 -7 2 -13 11 -13
14 0 16 45 16 470 l0 470 -2550 0 -2549 0 -10 -37z m4889 -1108 c-14 -27 -56
-24 -44 4 3 9 8 25 9 36 2 11 4 22 4 24 1 3 11 -5 22 -18 18 -20 20 -26 9 -46z
m28 -95 c6 -56 13 -70 32 -70 14 0 20 -7 20 -21 0 -12 5 -38 11 -58 8 -27 7
-44 -2 -66 -7 -16 -12 -33 -11 -37 1 -5 -2 -8 -8 -8 -5 0 -10 -15 -10 -32 0
-53 -11 -79 -36 -89 -25 -9 -33 -44 -12 -51 7 -3 9 -14 4 -31 -9 -37 -29 -35
-21 2 3 17 2 32 -4 36 -6 3 -11 42 -11 89 0 63 -4 87 -15 96 -11 9 -13 16 -5
24 12 12 14 46 2 46 -4 0 -6 15 -4 34 3 28 0 35 -18 41 -12 4 -27 1 -37 -6 -8
-7 -30 -12 -49 -10 -31 2 -34 0 -34 -23 0 -21 -5 -26 -25 -26 -14 0 -28 -7
-31 -15 -4 -8 -16 -15 -28 -15 -21 0 -22 4 -17 38 6 35 9 37 50 43 23 3 46 12
51 19 5 9 27 14 59 14 l50 0 6 38 c4 23 11 36 17 31 7 -4 8 -1 3 7 -10 16 13
31 45 28 18 -2 26 -10 28 -28z m-333 -190 c3 -5 1 -10 -4 -10 -6 0 -11 5 -11
10 0 6 2 10 4 10 3 0 8 -4 11 -10z m216 -117 c11 3 16 1 13 -4 -3 -6 0 -17 7
-25 9 -11 9 -18 1 -26 -9 -9 -12 -7 -12 10 0 15 -6 22 -19 22 -15 0 -19 -10
-24 -51 -4 -29 -13 -60 -22 -69 -11 -12 -14 -27 -10 -46 6 -27 5 -27 -13 6
-10 19 -15 40 -12 45 16 23 18 55 4 55 -21 0 -17 17 5 23 12 3 21 17 25 40 7
37 28 55 34 30 2 -9 11 -13 23 -10z m-4761 -199 c12 -31 -2 -54 -32 -54 -27 0
-34 -27 -13 -50 22 -24 21 -24 -40 -4 l-48 17 33 27 c23 18 29 29 21 34 -8 6
-4 15 14 32 34 31 53 30 65 -2z m136 -79 c9 -8 24 -15 35 -15 10 0 19 -5 19
-11 0 -6 8 -8 18 -5 14 5 14 3 -2 -9 -16 -12 -17 -18 -8 -27 20 -20 14 -28
-24 -28 -43 0 -114 20 -114 31 0 5 9 17 21 28 12 11 18 24 15 29 -5 9 4 17 22
21 2 1 10 -6 18 -14z m4124 -52 c0 -22 -2 -25 -10 -13 -13 20 -13 40 0 40 6 0
10 -12 10 -27z m-3806 -48 c16 -11 35 -15 50 -11 14 3 28 2 31 -4 3 -6 17 -7
30 -4 12 3 26 1 29 -5 4 -6 22 -11 41 -11 21 0 37 -6 43 -17 6 -9 16 -14 25
-10 8 3 23 -1 34 -8 24 -19 57 -19 93 0 29 15 30 14 74 -32 44 -47 45 -70 3
-57 -10 3 -19 -1 -23 -10 -6 -17 -72 -11 -89 8 -5 6 -22 10 -38 8 -15 -2 -42
5 -60 16 -17 11 -56 25 -84 32 -35 8 -53 17 -53 27 0 11 -5 13 -17 7 -34 -14
-99 -3 -168 30 l-70 33 35 15 c42 18 79 16 114 -7z m3732 -49 c17 -17 18 -26
3 -26 -11 0 -39 24 -39 34 0 11 21 6 36 -8z m-320 -111 c-23 -18 -33 -19 -41
-5 -10 16 -25 12 -25 -7 0 -11 -3 -14 -8 -7 -11 17 -52 24 -52 9 0 -7 -7 -16
-16 -19 -8 -3 -13 -9 -11 -13 3 -5 -334 -7 -749 -5 l-754 2 0 -102 0 -103 -40
-17 c-37 -15 -39 -15 -52 4 -13 20 -31 22 -128 18 -25 -2 -50 8 -89 34 -38 26
-64 36 -92 36 -26 0 -42 5 -45 15 -4 8 -11 15 -16 15 -6 0 -16 7 -22 15 -10
13 -17 13 -62 -1 l-52 -15 -46 31 c-25 17 -49 37 -53 45 -5 9 -36 16 -88 20
-44 4 -82 9 -84 11 -2 2 65 4 150 4 135 0 629 10 1824 39 555 13 573 13 551
-4z m-2770 -18 c4 -4 -16 -7 -44 -7 -29 0 -52 3 -52 8 0 9 86 9 96 -1z m107
-34 c-7 -2 -19 -2 -25 0 -7 3 -2 5 12 5 14 0 19 -2 13 -5z m-987 -2990 c17
-13 36 -23 42 -23 6 0 26 -13 45 -30 32 -28 35 -28 56 -13 21 14 24 14 38 0
14 -14 18 -14 39 0 21 13 24 13 24 0 0 -8 10 -18 23 -21 20 -6 21 -7 4 -17
-25 -15 -186 -2 -214 17 -20 13 -26 13 -53 -1 -39 -20 -40 -20 -88 21 -55 47
-56 77 -4 90 41 11 43 11 88 -23z m513 -55 c38 -42 27 -53 -49 -53 -50 0 -61
3 -68 20 -8 17 -3 23 32 42 22 12 44 22 49 23 4 0 20 -15 36 -32z m-169 -48
c0 -5 -5 -10 -11 -10 -5 0 -7 5 -4 10 3 6 8 10 11 10 2 0 4 -4 4 -10z m389
-57 l35 -37 -30 -13 c-64 -27 -96 -14 -137 57 -19 31 -19 31 2 37 12 3 21 9
21 14 0 18 76 -22 109 -58z m176 -23 c85 -57 122 -101 101 -119 -28 -23 -75
-1 -109 51 -19 29 -38 47 -48 46 -26 -5 -47 19 -41 47 2 14 9 25 14 25 5 0 42
-22 83 -50z m186 -49 c23 -19 23 -21 6 -38 -16 -17 -18 -16 -38 4 -13 12 -19
28 -16 37 8 21 20 20 48 -3z m190 -82 l-25 -20 -11 28 c-8 19 -9 34 -3 47 9
17 12 17 37 -8 l26 -27 -24 -20z m93 12 c14 -26 14 -30 -2 -45 -17 -15 -19
-13 -31 19 -20 56 7 77 33 26z m289 -74 c5 -15 -20 -41 -28 -28 -6 11 4 41 15
41 4 0 10 -6 13 -13z m171 -22 c21 -33 20 -45 -5 -45 -16 0 -19 4 -14 20 4 14
2 20 -9 20 -8 0 -18 -4 -21 -10 -9 -15 -22 -12 -29 7 -15 38 54 45 78 8z"/>
<path d="M25515 19549 c-4 -6 -3 -14 2 -18 5 -3 13 -15 17 -25 9 -26 29 -6 24
25 -3 26 -32 37 -43 18z"/>
<path d="M25522 19424 c1 -9 9 -19 16 -22 9 -3 13 2 10 14 -1 9 -9 19 -16 22
-9 3 -13 -2 -10 -14z"/>
<path d="M28081 20688 c-29 -134 -69 -315 -88 -403 -19 -88 -47 -221 -63 -295
-26 -127 -65 -308 -162 -750 -23 -102 -47 -217 -54 -256 -7 -39 -17 -89 -22
-110 -6 -22 -13 -51 -16 -66 l-6 -28 232 0 233 0 53 -217 c77 -314 165 -677
222 -913 28 -113 77 -317 111 -455 63 -263 127 -523 205 -840 26 -104 52 -217
59 -250 7 -33 30 -132 53 -220 22 -88 68 -275 102 -415 87 -362 144 -595 200
-825 27 -110 69 -285 95 -389 l45 -188 0 -508 0 -508 -45 -188 c-25 -104 -68
-281 -96 -394 -108 -440 -155 -634 -318 -1310 -34 -140 -80 -327 -101 -415
-39 -160 -93 -383 -210 -865 -103 -426 -169 -697 -210 -865 -91 -375 -153
-627 -215 -885 -36 -151 -86 -356 -110 -455 -68 -278 -148 -606 -210 -865 -65
-267 -143 -586 -151 -612 -5 -17 56 -18 1188 -18 l1194 0 43 193 c24 105 62
280 86 387 24 107 65 287 90 400 26 113 61 275 79 360 18 85 49 225 69 310 20
85 59 259 87 385 28 127 73 329 101 450 27 121 62 281 78 355 16 74 43 196 60
270 17 74 38 169 46 210 9 41 28 122 41 180 14 58 34 148 45 200 11 52 39 183
64 290 24 107 64 287 90 400 44 196 55 234 55 196 0 -10 23 -111 50 -225 74
-301 141 -577 200 -821 28 -118 78 -327 112 -465 175 -724 210 -869 303 -1255
41 -173 98 -405 124 -515 27 -110 75 -306 106 -435 31 -129 78 -325 105 -435
26 -110 61 -253 76 -317 l28 -118 1148 0 c807 0 1148 3 1148 11 0 6 -16 72
-35 147 -19 75 -66 270 -105 432 -39 162 -94 387 -121 500 -28 113 -70 286
-94 385 -24 99 -66 272 -94 385 -27 113 -79 329 -116 480 -63 261 -100 415
-200 825 -53 217 -155 636 -231 950 -30 127 -77 320 -104 430 -72 293 -130
533 -210 865 -100 413 -163 664 -167 670 -3 3 -12 -6 -22 -19 -13 -17 -20 -20
-26 -12 -4 8 4 24 20 41 l27 28 -36 138 c-19 77 -60 242 -91 368 l-55 228 0
207 c0 148 -3 210 -12 219 -9 9 -9 15 0 24 7 7 12 29 12 50 0 36 -2 38 -20 28
-12 -7 -20 -7 -20 -1 0 5 9 12 20 16 18 6 20 15 19 156 0 122 -3 149 -15 149
-8 0 -14 4 -14 9 0 5 -9 12 -19 16 -24 7 -18 32 10 40 23 8 25 31 3 39 -13 5
-12 11 9 38 13 18 27 47 31 63 3 17 20 82 36 145 16 63 54 219 85 345 31 127
78 320 105 430 85 349 100 418 95 424 -3 3 -19 0 -35 -6 -19 -7 -30 -8 -30 -1
0 5 -17 8 -38 7 -26 -2 -50 4 -74 19 -19 12 -46 22 -59 22 -33 1 -66 27 -52
41 8 8 18 6 36 -6 16 -10 34 -14 50 -10 14 4 28 2 31 -4 4 -6 16 -11 26 -11
10 0 23 -8 29 -17 8 -16 14 -16 42 -6 28 11 37 10 57 -3 13 -9 25 -14 27 -12
1 2 19 73 39 158 20 85 52 218 71 295 19 77 64 264 100 415 37 151 88 365 115
475 27 110 81 333 120 495 39 162 88 367 110 455 21 88 64 266 95 395 31 129
79 325 105 435 27 110 74 304 105 430 55 228 104 433 209 865 30 124 84 349
120 500 37 151 82 336 101 412 19 75 35 141 35 147 0 8 -341 11 -1190 11
l-1189 0 -10 -37 c-5 -21 -21 -90 -35 -153 -14 -63 -50 -225 -80 -360 -30
-135 -80 -357 -110 -495 -31 -137 -81 -362 -112 -500 -30 -137 -78 -349 -105
-470 -26 -121 -71 -321 -99 -445 -27 -124 -77 -346 -110 -495 -77 -345 -144
-643 -215 -965 -31 -140 -76 -343 -100 -450 -24 -107 -45 -204 -47 -215 -4
-19 -26 70 -154 605 -30 124 -77 317 -104 430 -27 113 -72 300 -99 415 -46
192 -87 360 -216 895 -24 102 -74 309 -110 460 -36 151 -86 356 -110 455 -25
99 -45 187 -45 195 0 20 -43 80 -57 80 -7 0 -13 4 -13 9 0 10 -94 105 -136
139 -16 12 -47 38 -69 57 -22 19 -43 35 -46 35 -3 0 -18 11 -33 25 -18 16 -25
32 -22 43 5 15 0 18 -28 19 -42 1 -91 29 -105 59 -6 14 -26 28 -51 35 -35 11
-41 17 -51 53 -6 23 -14 46 -17 51 -3 6 6 1 19 -11 13 -11 38 -29 54 -39 17
-10 34 -24 38 -32 4 -7 14 -13 21 -13 8 0 19 -7 26 -15 17 -20 30 -19 30 3 1
13 4 10 15 -9 7 -14 32 -34 54 -45 23 -10 41 -26 41 -34 1 -25 38 -63 56 -56
11 4 30 -8 58 -36 23 -24 56 -55 72 -69 17 -14 33 -33 37 -42 3 -8 16 -21 28
-27 20 -11 21 -10 16 11 -3 13 -18 78 -32 144 -14 66 -41 185 -60 265 -19 80
-50 217 -70 305 -19 88 -39 174 -43 190 l-8 30 -457 3 c-251 1 -457 0 -457 -3
0 -4 20 -26 45 -50 43 -43 44 -45 24 -56 -25 -13 -79 5 -79 27 0 8 -4 14 -9
14 -5 0 -26 16 -47 35 l-37 35 -381 0 -382 0 -53 -242z m1063 88 c11 4 19 -2
26 -20 5 -14 16 -26 25 -26 8 0 15 -9 15 -20 0 -11 7 -20 15 -20 8 0 15 -4 15
-10 0 -15 -16 -12 -30 6 -8 8 -29 22 -48 29 -18 8 -36 24 -39 35 -3 11 -9 20
-14 20 -5 0 -9 5 -9 11 0 8 4 8 14 0 7 -6 21 -9 30 -5z m131 -136 c10 -11 15
-20 12 -20 -4 0 -16 9 -27 20 -11 11 -16 20 -12 20 5 0 17 -9 27 -20z m166
-92 c15 -12 26 -25 24 -29 -7 -11 -77 26 -105 55 l-24 27 38 -16 c21 -9 51
-26 67 -37z m119 -91 c0 -8 -11 -19 -24 -25 -20 -9 -27 -7 -40 7 -20 22 -17
25 28 28 25 2 36 -1 36 -10z m-813 -3733 c-3 -3 -12 -4 -19 -1 -8 3 -5 6 6 6
11 1 17 -2 13 -5z m83 -29 c-7 -8 -17 -12 -22 -9 -6 4 -5 10 3 15 22 14 33 10
19 -6z m119 -29 c17 -20 2 -24 -39 -10 -33 11 -34 12 -10 17 14 2 28 5 31 6 4
0 12 -5 18 -13z m158 -63 c6 4 19 0 29 -8 18 -14 18 -14 -4 -15 -31 0 -64 18
-56 32 4 7 9 6 14 -2 4 -7 12 -10 17 -7z m139 -28 c12 -9 31 -12 50 -9 22 4
41 0 60 -12 l27 -18 -24 -7 c-13 -3 -29 -2 -36 3 -7 5 -21 7 -32 3 -10 -3 -22
-2 -25 3 -3 5 -16 10 -28 10 -43 2 -63 7 -70 17 -6 8 6 14 53 24 3 0 14 -6 25
-14z m189 -35 c3 -5 18 -10 33 -10 21 -1 23 -3 12 -10 -20 -11 -82 2 -88 18
-4 14 34 16 43 2z m195 -65 c7 -8 9 -15 4 -15 -5 0 -19 -3 -31 -6 -19 -5 -23
-2 -23 15 0 25 31 29 50 6z m-163 -1 c-3 -3 -12 -4 -19 -1 -8 3 -5 6 6 6 11 1
17 -2 13 -5z m289 -28 c11 -8 36 -15 55 -15 84 0 109 -2 114 -12 4 -5 21 -7
39 -3 27 5 39 1 61 -20 16 -15 26 -28 24 -30 -2 -2 -21 -6 -41 -10 -30 -5 -38
-4 -38 8 0 10 -14 17 -37 21 -79 14 -253 59 -253 67 0 13 54 9 76 -6z m446
-116 c39 -24 80 -27 72 -6 -3 8 -1 17 5 21 7 3 11 -2 11 -14 0 -19 6 -21 65
-21 l65 0 0 -31 c0 -50 14 -65 61 -67 24 -1 46 -7 50 -13 3 -6 15 -8 26 -5 12
4 25 1 32 -8 22 -26 109 -49 171 -44 46 3 60 1 68 -13 9 -14 18 -15 59 -7 26
6 51 15 55 21 4 7 11 7 22 -2 13 -11 23 -10 56 3 l40 16 0 -31 c0 -29 2 -31
26 -25 20 5 30 2 40 -13 8 -11 31 -23 51 -27 23 -4 37 -13 40 -25 3 -11 12
-19 19 -19 8 0 14 -7 14 -15 0 -11 11 -15 39 -15 22 0 44 -6 51 -15 7 -8 24
-15 39 -15 15 0 31 -4 36 -9 6 -5 46 -2 100 8 l90 18 23 -24 c22 -24 41 -25
82 -3 15 9 70 -39 70 -60 0 -6 14 -17 32 -24 l32 -14 -39 -11 c-32 -9 -42 -8
-56 5 -16 14 -20 14 -48 0 -35 -18 -45 -20 -36 -6 8 13 3 12 -67 -4 -47 -11
-59 -12 -68 -1 -8 9 -6 14 5 19 8 3 15 12 15 21 0 11 -6 14 -25 9 -18 -4 -25
-2 -25 7 0 8 -17 19 -37 26 -29 9 -39 8 -50 -3 -8 -8 -23 -14 -33 -14 -10 0
-21 -6 -23 -12 -3 -8 -6 -5 -6 6 -1 13 -6 17 -22 13 -15 -4 -23 1 -30 20 -6
16 -15 23 -27 21 -9 -2 -22 3 -28 11 -10 13 -17 13 -54 -2 -37 -14 -46 -15
-70 -2 -15 8 -61 17 -104 21 -73 6 -78 9 -112 46 l-36 40 -72 -7 c-59 -5 -75
-4 -85 9 -7 9 -17 13 -23 10 -5 -3 -30 4 -56 17 -26 12 -69 24 -97 27 -27 2
-55 11 -61 18 -7 8 -43 23 -81 34 -98 27 -123 38 -123 53 0 16 -62 40 -84 31
-9 -3 -16 -2 -16 2 0 5 -27 18 -60 28 -33 11 -59 24 -57 30 3 9 72 32 104 35
7 1 27 -8 45 -19z m1766 -511 c16 -12 34 -18 48 -15 13 4 32 -2 48 -15 15 -12
34 -18 42 -15 16 6 104 -48 104 -64 0 -6 22 -10 49 -10 38 0 56 -6 79 -25 31
-26 31 -26 217 -10 44 4 48 3 32 -10 -21 -15 -14 -36 22 -69 24 -22 14 -36
-26 -36 -19 0 -23 6 -23 30 0 25 -4 30 -23 30 -13 0 -28 5 -33 10 -11 11 -44
3 -44 -10 0 -5 -15 -11 -32 -15 -18 -4 -41 -9 -50 -11 -12 -4 -18 0 -18 10 0
8 -20 24 -45 35 -41 18 -48 19 -79 6 -27 -12 -40 -12 -67 -2 -19 7 -39 18 -45
26 -16 20 -86 42 -116 35 -17 -3 -36 1 -50 10 -12 9 -37 16 -55 16 -22 0 -33
5 -33 15 0 8 -12 21 -27 29 l-28 15 32 1 c44 0 63 9 63 30 0 15 9 25 28 29 2
1 16 -8 30 -20z m-162 -36 c-2 -2 -11 0 -20 3 -14 5 -15 9 -5 15 12 7 34 -10
25 -18z m931 -103 c3 -11 10 -21 17 -22 6 0 16 -2 21 -2 6 -1 16 -5 22 -9 7
-4 35 0 63 10 45 16 51 16 65 2 15 -15 11 -17 -43 -29 -70 -14 -74 -17 -90
-53 -16 -37 -43 -32 -56 11 -5 19 -21 41 -35 50 -14 10 -33 25 -43 34 -16 16
-16 17 0 21 44 12 74 7 79 -13z m-288 -172 c31 -27 33 -31 11 -24 -14 4 -46
13 -72 19 -62 14 -72 37 -17 37 32 0 50 -7 78 -32z m97 -4 c15 -4 20 -11 17
-25 -5 -16 0 -19 30 -19 20 0 38 -4 41 -9 3 -4 27 -11 53 -15 27 -3 71 -17 98
-30 28 -14 59 -28 70 -32 18 -6 17 -7 -8 -15 -16 -4 -34 -13 -41 -19 -10 -8
-15 -5 -19 11 -3 11 -15 23 -26 26 -11 3 -18 10 -14 16 4 6 1 7 -7 2 -13 -8
-79 8 -122 31 -14 8 -33 14 -42 14 -9 0 -16 5 -16 10 0 6 -11 10 -24 10 -27 0
-42 15 -26 25 6 4 8 11 5 16 -7 10 1 11 31 3z m264 -555 c0 -6 -4 -7 -10 -4
-5 3 -10 11 -10 16 0 6 5 7 10 4 6 -3 10 -11 10 -16z m-37 -203 c16 -12 16
-17 6 -34 -12 -19 -14 -19 -26 -4 -14 19 -17 52 -5 52 4 0 15 -7 25 -14z m-94
-257 c-9 -17 -13 -19 -20 -8 -7 12 3 22 29 28 1 1 -2 -9 -9 -20z m31 -629 c0
-5 -5 -10 -11 -10 -5 0 -7 5 -4 10 3 6 8 10 11 10 2 0 4 -4 4 -10z m-20 -213
c-25 -53 -86 -127 -105 -127 -7 0 -25 -20 -39 -45 -15 -25 -31 -45 -35 -45
-10 0 -65 -78 -66 -94 -2 -28 -19 -47 -36 -43 -12 3 -25 -3 -34 -16 l-15 -21
0 21 c0 12 19 41 44 65 24 24 46 53 48 64 2 11 10 18 21 16 13 -2 17 4 17 24
0 20 16 42 64 86 35 32 83 83 107 113 24 30 45 53 47 51 2 -2 -6 -24 -18 -49z
m-62 -194 c-7 -9 -7 -17 1 -27 13 -16 -1 -56 -19 -56 -4 0 -15 -3 -24 -6 -26
-10 -20 36 11 84 18 27 30 37 34 30 5 -7 3 -18 -3 -25z m92 -168 c-12 -19 -26
-35 -31 -35 -10 0 17 76 35 99 22 28 18 -28 -4 -64z m-262 -29 c-7 -8 -16 -12
-21 -9 -11 7 2 23 19 23 12 0 12 -2 2 -14z m-116 -36 c-17 -29 -32 -39 -32
-20 0 8 39 50 46 50 2 0 -5 -13 -14 -30z m-84 -102 c-17 -50 -58 -110 -78
-115 -9 -3 -23 -16 -29 -30 -9 -20 -15 -23 -23 -15 -9 9 -3 22 21 52 18 23 30
44 27 47 -3 4 4 11 17 17 12 7 31 26 42 43 26 42 37 42 23 1z m-221 -284 c-35
-87 -74 -145 -92 -138 -10 4 -12 10 -7 18 25 31 62 109 56 118 -3 5 9 25 27
44 19 19 35 31 37 25 2 -5 -8 -35 -21 -67z m204 43 c-10 -9 -11 -8 -5 6 3 10
9 15 12 12 3 -3 0 -11 -7 -18z m-120 -63 c-8 -33 -9 -50 -2 -57 6 -6 11 -18
11 -26 0 -11 -6 -9 -20 9 -21 28 -27 25 -55 -33 -11 -23 -28 -43 -38 -45 -14
-3 -7 14 29 75 26 43 54 90 63 105 22 37 26 27 12 -28z m-247 -233 c-20 -29
-41 -48 -48 -45 -8 3 -27 -21 -51 -66 -26 -51 -40 -69 -48 -61 -7 7 -2 23 18
53 32 48 144 168 157 168 4 0 -8 -22 -28 -49z m232 20 c-3 -5 1 -25 9 -45 10
-23 15 -60 13 -96 -3 -55 -4 -58 -19 -42 -9 9 -21 49 -28 88 -6 40 -14 79 -17
88 -5 12 0 16 21 16 14 0 24 -4 21 -9z m-18 -243 c15 -15 16 -28 2 -28 -5 0
-10 6 -10 14 0 8 -8 17 -17 19 -14 4 -14 5 -2 6 8 0 20 -4 27 -11z m-421 -50
c-29 -39 -68 -78 -78 -78 -16 0 5 42 32 60 15 11 31 29 34 40 4 11 12 17 20
13 12 -4 11 -11 -8 -35z m453 -72 c0 -3 -4 -8 -10 -11 -5 -3 -10 -1 -10 4 0 6
5 11 10 11 6 0 10 -2 10 -4z m765 -56 c-3 -5 -11 -10 -16 -10 -6 0 -7 5 -4 10
3 6 11 10 16 10 6 0 7 -4 4 -10z m-1009 -60 c32 -28 33 -30 14 -40 -14 -8 -26
-8 -41 0 -23 13 -31 6 -71 -62 -12 -22 -29 -38 -39 -38 -14 0 -6 18 38 85 31
47 58 85 61 85 2 0 20 -13 38 -30z m-355 3 c-5 -10 -24 -34 -41 -53 l-32 -35
28 40 c37 54 46 65 51 65 2 0 -1 -8 -6 -17z m1298 -85 c1 -18 -66 -65 -87 -60
-7 2 -15 -5 -19 -15 -4 -10 -14 -23 -23 -30 -10 -7 -23 -26 -30 -43 -7 -16
-17 -30 -22 -30 -11 0 7 30 59 99 20 25 43 46 52 46 9 0 17 10 19 25 2 14 11
33 20 43 16 18 17 18 23 0 4 -10 8 -26 8 -35z m-209 -254 c0 -11 -68 -93 -73
-88 -6 7 54 92 66 93 4 1 7 -2 7 -5z m-115 -144 c-3 -5 -14 -10 -23 -10 -15 0
-15 2 -2 10 20 13 33 13 25 0z m-90 -143 c-89 -121 -136 -195 -324 -524 -48
-83 -343 -444 -382 -467 -26 -15 -18 -2 45 82 42 55 76 105 76 111 0 5 -6 11
-14 13 -10 2 5 29 46 83 33 44 76 112 96 152 32 63 40 72 66 75 29 3 33 9 81
125 55 134 83 173 126 173 30 0 29 -1 49 90 19 84 23 89 66 80 34 -8 37 -6 66
35 17 24 35 42 40 39 4 -3 -12 -33 -37 -67z m-858 -1175 c-21 -23 -21 -38 -1
-46 9 -4 14 -9 11 -12 -7 -7 -47 14 -47 25 0 13 42 63 48 57 3 -3 -2 -14 -11
-24z"/>
<path d="M32005 15730 c-3 -5 1 -10 9 -10 9 0 16 5 16 10 0 6 -4 10 -9 10 -6
0 -13 -4 -16 -10z"/>
<path d="M25710 19955 c0 -8 7 -15 15 -15 8 0 15 4 15 9 0 5 -7 11 -15 15 -9
3 -15 0 -15 -9z"/>
<path d="M25736 19902 c-9 -14 9 -31 23 -23 7 5 10 14 7 20 -8 13 -23 14 -30
3z"/>
<path d="M25835 19610 c-3 -6 1 -13 10 -16 19 -8 30 0 20 15 -8 14 -22 14 -30
1z"/>
<path d="M25216 18874 c-9 -25 19 -53 36 -36 9 9 10 17 2 29 -15 24 -30 27
-38 7z"/>
<path d="M24879 18804 c-13 -16 -11 -17 21 -12 24 4 41 1 53 -10 15 -14 17
-14 17 1 0 19 -5 23 -46 31 -23 5 -35 2 -45 -10z"/>
<path d="M25529 18812 c-11 -80 -3 -105 20 -56 7 16 17 24 26 20 9 -3 12 0 9
8 -6 15 -53 39 -55 28z"/>
<path d="M24860 18744 c0 -8 5 -12 10 -9 6 3 10 10 10 16 0 5 -4 9 -10 9 -5 0
-10 -7 -10 -16z"/>
<path d="M25595 18750 c4 -6 11 -8 16 -5 14 9 11 15 -7 15 -8 0 -12 -5 -9 -10z"/>
<path d="M24890 18741 c0 -5 5 -13 10 -16 6 -3 10 -2 10 4 0 5 -4 13 -10 16
-5 3 -10 2 -10 -4z"/>
<path d="M24930 18730 c0 -26 15 -33 30 -15 14 17 8 28 -15 31 -9 1 -15 -6
-15 -16z"/>
<path d="M25267 18729 c-8 -29 -1 -39 24 -39 16 0 20 6 17 27 -4 35 -33 43
-41 12z"/>
<path d="M25372 18738 c5 -15 28 -18 29 -3 0 6 -7 12 -17 13 -10 3 -15 -1 -12
-10z"/>
<path d="M25560 18720 c0 -5 9 -10 20 -10 11 0 20 5 20 10 0 6 -9 10 -20 10
-11 0 -20 -4 -20 -10z"/>
<path d="M25090 18684 c0 -8 5 -12 10 -9 6 3 10 10 10 16 0 5 -4 9 -10 9 -5 0
-10 -7 -10 -16z"/>
<path d="M25781 18686 c-9 -10 -9 -20 0 -40 14 -30 22 -32 39 -11 10 12 10 21
2 40 -13 28 -24 31 -41 11z"/>
<path d="M25130 18641 c0 -5 5 -13 10 -16 6 -3 10 -2 10 4 0 5 -4 13 -10 16
-5 3 -10 2 -10 -4z"/>
<path d="M25760 18625 c0 -8 5 -15 10 -15 6 0 10 7 10 15 0 8 -4 15 -10 15 -5
0 -10 -7 -10 -15z"/>
<path d="M25355 18531 c-8 -15 3 -31 21 -31 9 0 14 7 12 17 -4 20 -24 28 -33
14z"/>
<path d="M25065 18520 c-9 -14 5 -58 20 -64 7 -2 23 -2 34 1 16 4 20 11 15 27
-11 36 -54 60 -69 36z"/>
<path d="M25550 18521 c0 -5 6 -14 14 -20 16 -13 32 2 21 19 -8 12 -35 13 -35
1z"/>
<path d="M25290 18482 c0 -17 33 -53 41 -45 14 14 -2 53 -22 53 -11 0 -19 -3
-19 -8z"/>
<path d="M25467 18476 c-22 -23 -22 -33 4 -46 28 -15 34 -7 23 31 -9 31 -10
31 -27 15z"/>
<path d="M25587 18423 c-13 -12 -7 -51 9 -57 17 -6 54 9 54 23 0 11 -34 41
-47 41 -5 0 -13 -3 -16 -7z"/>
<path d="M25210 18387 c0 -19 16 -31 24 -18 3 5 -1 14 -9 21 -12 10 -15 10
-15 -3z"/>
<path d="M25774 18356 c-6 -17 2 -36 17 -36 12 0 12 37 -1 45 -6 3 -13 -1 -16
-9z"/>
<path d="M25438 18331 c-23 -8 -82 -91 -65 -91 8 0 19 -10 26 -23 15 -29 39
-44 83 -52 30 -6 36 -3 46 20 17 36 15 53 -8 90 -25 41 -60 64 -82 56z"/>
<path d="M25570 18310 c0 -5 5 -10 10 -10 6 0 10 5 10 10 0 6 -4 10 -10 10 -5
0 -10 -4 -10 -10z"/>
<path d="M25540 18286 c0 -9 5 -16 10 -16 6 0 10 4 10 9 0 6 -4 13 -10 16 -5
3 -10 -1 -10 -9z"/>
<path d="M25590 18170 c0 -5 5 -10 10 -10 6 0 10 5 10 10 0 6 -4 10 -10 10 -5
0 -10 -4 -10 -10z"/>
<path d="M25685 18100 c-10 -12 -25 -18 -32 -16 -25 10 -41 -5 -41 -40 0 -39
17 -56 25 -26 6 25 31 36 48 22 16 -13 60 2 68 23 5 13 -30 57 -45 57 -3 0
-13 -9 -23 -20z"/>
<path d="M25397 18056 c-17 -13 -17 -15 5 -30 28 -20 47 -20 54 -1 7 17 -12
45 -30 45 -6 0 -19 -7 -29 -14z"/>
<path d="M25737 17924 c-7 -8 4 -44 14 -44 12 0 12 37 0 44 -4 3 -11 3 -14 0z"/>
<path d="M9315 17540 c-8 -13 4 -32 16 -25 12 8 12 35 0 35 -6 0 -13 -4 -16
-10z"/>
<path d="M34902 15568 c-7 -7 -12 -8 -12 -3 0 4 -9 0 -20 -10 -26 -23 -26 -51
1 -65 24 -13 46 1 60 39 12 31 -9 59 -29 39z"/>
<path d="M34417 15458 c-31 -22 -45 -38 -42 -49 3 -9 -1 -22 -10 -29 -8 -7
-13 -16 -10 -19 4 -7 13 -7 57 -2 10 1 68 102 68 119 0 19 -12 15 -63 -20z"/>
<path d="M34105 15390 c-18 -19 -35 -28 -46 -25 -9 3 -24 2 -33 -1 -19 -7 -18
-25 5 -81 12 -29 11 -35 -9 -62 -12 -17 -19 -37 -16 -45 7 -18 -10 -53 -47
-91 l-28 -30 40 -68 c22 -37 43 -67 47 -67 4 0 15 18 24 40 11 28 23 40 36 40
25 0 32 18 19 46 -8 18 -2 32 34 80 34 47 43 67 46 109 3 45 0 57 -23 84 -27
32 -27 32 -6 47 13 9 18 21 15 34 -7 28 -24 25 -58 -10z"/>
<path d="M33860 15392 c0 -5 7 -13 16 -16 10 -4 14 -1 12 6 -5 15 -28 23 -28
10z"/>
<path d="M9922 15300 c-17 -28 -16 -46 3 -30 8 6 19 9 25 5 21 -13 32 7 14 26
-21 24 -26 24 -42 -1z"/>
<path d="M33955 15269 c-4 -6 -5 -13 -2 -16 7 -7 27 6 27 18 0 12 -17 12 -25
-2z"/>
<path d="M9925 15240 c3 -5 11 -10 16 -10 6 0 7 5 4 10 -3 6 -11 10 -16 10 -6
0 -7 -4 -4 -10z"/>
<path d="M10535 15171 c-3 -5 -1 -12 4 -15 5 -3 11 1 15 9 6 16 -9 21 -19 6z"/>
<path d="M34465 15145 c-3 -8 -7 -22 -10 -30 -7 -22 18 -18 33 5 13 21 9 40
-9 40 -5 0 -12 -7 -14 -15z"/>
<path d="M10534 15124 c-25 -69 -34 -84 -53 -84 -14 0 -21 -7 -21 -19 0 -58
71 -7 89 62 11 43 -2 78 -15 41z"/>
<path d="M9926 15115 c-9 -9 -13 -21 -10 -27 3 -5 13 0 21 12 19 26 11 37 -11
15z"/>
<path d="M33893 15083 c9 -9 19 -14 23 -11 10 10 -6 28 -24 28 -15 0 -15 -1 1
-17z"/>
<path d="M34353 15090 c-26 -11 -22 -35 8 -43 21 -6 35 8 18 18 -5 4 -8 13 -5
21 3 8 4 14 3 13 -1 0 -12 -4 -24 -9z"/>
<path d="M10320 15035 c0 -8 5 -15 10 -15 6 0 10 7 10 15 0 8 -4 15 -10 15 -5
0 -10 -7 -10 -15z"/>
<path d="M34380 15021 c-35 -9 -41 -51 -7 -51 31 0 63 33 45 47 -7 5 -24 7
-38 4z"/>
<path d="M10162 15000 c-16 -26 -16 -25 12 -28 27 -2 44 27 24 40 -19 11 -22
10 -36 -12z"/>
<path d="M10251 14957 c-47 -43 -47 -60 -1 -84 28 -14 46 -4 77 40 24 33 19
58 -15 76 -14 7 -27 0 -61 -32z"/>
<path d="M33880 14909 c-19 -10 -51 -19 -71 -19 -52 0 -73 -32 -53 -79 8 -19
11 -39 6 -45 -5 -6 -6 -40 -3 -75 5 -56 9 -65 28 -67 16 -3 24 4 32 26 7 23
16 30 35 30 31 0 32 7 9 33 -17 18 -17 20 8 40 15 12 39 46 54 76 23 47 25 57
14 77 -15 28 -14 28 -59 3z"/>
<path d="M10085 14891 c-3 -5 -1 -12 5 -16 5 -3 10 1 10 9 0 18 -6 21 -15 7z"/>
<path d="M34251 14851 c-34 -71 -21 -82 24 -22 31 43 35 55 24 62 -22 14 -24
12 -48 -40z"/>
<path d="M10348 14787 c-21 -18 -25 -26 -18 -44 13 -31 31 -29 66 8 28 30 28
31 10 45 -25 18 -26 18 -58 -9z m42 -7 c0 -5 -4 -10 -10 -10 -5 0 -10 5 -10
10 0 6 5 10 10 10 6 0 10 -4 10 -10z"/>
<path d="M34152 14687 c-40 -41 -45 -57 -16 -57 12 0 74 77 74 92 0 17 -17 6
-58 -35z"/>
<path d="M10380 14690 c0 -5 5 -10 10 -10 6 0 10 5 10 10 0 6 -4 10 -10 10 -5
0 -10 -4 -10 -10z"/>
<path d="M34013 14663 c9 -9 19 -14 23 -11 10 10 -6 28 -24 28 -15 0 -15 -1 1
-17z"/>
<path d="M10916 14644 c-7 -17 0 -34 13 -34 5 0 9 11 9 25 0 28 -13 33 -22 9z"/>
<path d="M33810 14590 c0 -13 11 -13 30 0 12 8 11 10 -7 10 -13 0 -23 -4 -23
-10z"/>
<path d="M34060 14565 c0 -28 24 -34 34 -9 8 20 -1 34 -20 34 -8 0 -14 -10
-14 -25z"/>
<path d="M33655 14570 c-5 -7 0 -11 11 -9 11 2 25 0 33 -5 9 -6 12 -5 9 5 -6
18 -44 24 -53 9z"/>
<path d="M34230 14511 c0 -5 5 -13 10 -16 6 -3 10 -2 10 4 0 5 -4 13 -10 16
-5 3 -10 2 -10 -4z"/>
<path d="M10765 14490 c3 -5 8 -10 11 -10 2 0 4 5 4 10 0 6 -5 10 -11 10 -5 0
-7 -4 -4 -10z"/>
<path d="M33894 14476 c-27 -42 1 -61 43 -28 l22 17 -24 18 c-24 17 -25 17
-41 -7z"/>
<path d="M9756 14465 c-3 -8 -1 -15 4 -15 6 0 10 7 10 15 0 8 -2 15 -4 15 -2
0 -6 -7 -10 -15z"/>
<path d="M9935 14460 c-3 -5 -1 -11 5 -15 6 -4 7 -12 3 -18 -4 -7 0 -6 10 2 9
7 17 17 17 21 0 12 -29 20 -35 10z"/>
<path d="M33724 14456 c-8 -22 3 -33 18 -18 9 9 9 15 0 24 -9 9 -13 7 -18 -6z"/>
<path d="M34210 14460 c0 -5 5 -10 10 -10 6 0 10 5 10 10 0 6 -4 10 -10 10 -5
0 -10 -4 -10 -10z"/>
<path d="M10052 14388 c-15 -15 -16 -38 -1 -38 5 0 7 5 4 11 -4 6 1 17 11 24
11 8 14 15 9 15 -6 0 -16 -5 -23 -12z"/>
<path d="M33600 14385 c7 -9 15 -13 17 -11 7 7 -7 26 -19 26 -6 0 -6 -6 2 -15z"/>
<path d="M33540 14365 c-19 -22 -40 -138 -28 -152 13 -16 54 -17 63 -2 4 6 14
8 23 4 9 -3 13 -3 9 1 -4 4 -1 14 6 22 10 13 9 15 -8 8 -16 -6 -18 -5 -7 5 19
20 14 34 -5 17 -12 -10 -25 -13 -38 -8 -21 8 -21 8 29 24 10 4 16 9 13 13 -4
3 -2 12 4 19 8 10 6 20 -8 38 -21 29 -35 32 -53 11z m34 -134 c3 -5 -1 -11 -9
-15 -9 -3 -15 0 -15 9 0 16 16 20 24 6z"/>
<path d="M10357 14339 c-38 -40 -34 -78 11 -101 32 -16 35 -15 69 4 36 22 63
70 43 76 -6 2 -15 15 -20 28 -14 36 -66 32 -103 -7z"/>
<path d="M33816 14357 c-82 -53 -96 -87 -54 -133 17 -19 23 -20 49 -11 16 6
47 27 69 47 38 33 39 37 27 60 -7 14 -23 26 -35 28 -12 2 -22 8 -22 13 0 12
-11 11 -34 -4z m84 -69 c0 -5 -4 -8 -10 -8 -5 0 -10 10 -10 23 0 18 2 19 10 7
5 -8 10 -18 10 -22z"/>
<path d="M10074 14312 c-22 -15 -44 -75 -33 -88 28 -34 120 -41 132 -10 7 18
-7 71 -19 71 -5 1 -23 8 -40 17 -16 9 -35 13 -40 10z"/>
<path d="M34217 14300 c-23 -27 -13 -43 16 -27 12 6 23 12 25 13 5 2 -10 34
-17 34 -4 0 -14 -9 -24 -20z"/>
<path d="M10215 14280 c-3 -6 1 -17 9 -25 13 -14 16 -13 26 4 5 11 10 22 10
25 0 10 -39 6 -45 -4z"/>
<path d="M10200 14230 c0 -5 5 -10 11 -10 5 0 7 5 4 10 -3 6 -8 10 -11 10 -2
0 -4 -4 -4 -10z"/>
<path d="M33367 14215 c-6 -11 -11 -26 -12 -32 0 -7 -13 -26 -29 -43 -16 -17
-26 -37 -22 -45 7 -19 46 -20 46 -1 0 8 15 24 34 35 37 23 46 39 46 81 0 24
-4 28 -26 26 -14 0 -31 -10 -37 -21z"/>
<path d="M10510 14161 c0 -5 5 -13 10 -16 6 -3 10 -2 10 4 0 5 -4 13 -10 16
-5 3 -10 2 -10 -4z"/>
<path d="M10227 14143 c-12 -11 -8 -31 8 -37 10 -4 14 0 12 14 -4 24 -11 32
-20 23z"/>
<path d="M34364 14143 c-22 -4 -59 -58 -46 -67 5 -3 26 13 47 34 22 22 35 39
30 39 -6 -1 -19 -4 -31 -6z"/>
<path d="M34422 14113 c1 -23 27 -63 40 -63 11 0 3 58 -9 73 -23 24 -33 21
-31 -10z"/>
<path d="M9846 14104 c-11 -27 -7 -37 9 -24 16 14 20 40 6 40 -5 0 -12 -7 -15
-16z"/>
<path d="M33531 14106 c-9 -11 -9 -19 1 -35 16 -27 20 -26 34 3 17 37 -11 61
-35 32z"/>
<path d="M33422 14063 c-17 -33 -2 -47 24 -22 13 12 24 26 24 31 0 15 -39 8
-48 -9z"/>
<path d="M33239 14046 c-13 -12 -28 -25 -34 -27 -5 -2 7 -21 28 -41 l38 -37
20 46 c18 43 18 47 3 64 -22 24 -26 24 -55 -5z m21 -16 c0 -5 -5 -10 -11 -10
-5 0 -7 5 -4 10 3 6 8 10 11 10 2 0 4 -4 4 -10z"/>
<path d="M34340 14053 c0 -7 -5 -13 -12 -13 -7 0 -4 -9 8 -20 23 -23 59 -18
49 8 -3 8 -1 20 5 27 8 9 3 12 -20 11 -17 -1 -30 -7 -30 -13z"/>
<path d="M9770 14031 c0 -5 7 -11 14 -14 10 -4 13 -1 9 9 -6 15 -23 19 -23 5z"/>
<path d="M9690 13981 c0 -17 5 -33 10 -36 6 -3 10 4 10 16 0 12 3 19 7 15 4
-4 8 -15 8 -24 0 -20 31 -28 49 -12 21 17 7 48 -26 59 -48 17 -58 14 -58 -18z"/>
<path d="M10079 13989 c-8 -15 -8 -24 0 -30 6 -5 9 -6 6 -2 -3 3 5 17 17 30
18 19 19 23 5 23 -9 0 -21 -9 -28 -21z"/>
<path d="M10197 13933 c-22 -22 13 -50 46 -37 23 9 10 33 -15 26 -14 -3 -19
-1 -14 6 8 13 -6 17 -17 5z"/>
<path d="M33390 13914 c-21 -25 -16 -75 9 -96 29 -23 76 -25 67 -3 -3 9 0 15
9 15 8 0 15 5 15 10 0 6 -4 10 -10 10 -5 0 -10 14 -10 30 0 24 -6 33 -26 40
-34 13 -39 13 -54 -6z"/>
<path d="M33200 13911 c0 -5 -13 -25 -30 -43 -40 -43 -38 -62 8 -81 37 -16 37
-16 65 16 33 38 34 55 4 83 -30 28 -47 37 -47 25z"/>
<path d="M34120 13900 c-11 -7 -12 -10 -2 -10 10 0 12 -8 7 -29 -3 -16 -2 -32
4 -35 6 -4 8 -13 4 -21 -9 -24 29 -17 60 10 35 31 36 48 1 35 -29 -11 -59 4
-50 25 7 20 -8 35 -24 25z"/>
<path d="M34163 13886 c0 -22 1 -23 18 -8 19 16 17 32 -5 32 -8 0 -13 -11 -13
-24z"/>
<path d="M10567 13894 c-16 -16 -6 -34 19 -34 19 0 25 5 22 17 -3 19 -29 29
-41 17z"/>
<path d="M9645 13863 c-35 -5 -45 -18 -45 -55 0 -20 7 -28 30 -36 24 -9 31 -8
40 6 9 16 9 16 10 -1 0 -30 26 3 32 40 3 22 -1 34 -14 42 -10 6 -19 10 -20 10
-2 -1 -16 -4 -33 -6z"/>
<path d="M9526 13801 c-3 -5 1 -11 9 -15 8 -3 15 -1 15 4 0 13 -18 22 -24 11z"/>
<path d="M10220 13790 c0 -11 4 -20 10 -20 5 0 6 7 3 17 -5 12 -3 14 7 8 9 -5
11 -4 6 3 -11 19 -26 14 -26 -8z"/>
<path d="M10300 13789 c0 -5 5 -7 10 -4 6 3 10 8 10 11 0 2 -4 4 -10 4 -5 0
-10 -5 -10 -11z"/>
<path d="M24840 13773 c-14 -9 -27 -20 -30 -25 -3 -4 -22 -14 -42 -22 -20 -9
-39 -20 -42 -25 -4 -5 -21 -13 -38 -16 -18 -4 -38 -14 -46 -21 -7 -8 -18 -12
-23 -8 -5 3 -12 -2 -15 -10 -3 -9 -16 -16 -29 -16 -12 0 -28 -7 -35 -15 -7 -8
-19 -15 -26 -15 -8 0 -14 -4 -14 -10 0 -9 -67 -32 -104 -36 -10 -1 -22 -7 -26
-14 -5 -7 -34 -17 -65 -21 -41 -5 -63 -14 -80 -33 -13 -15 -30 -23 -38 -20 -8
3 -18 1 -22 -5 -3 -6 -22 -11 -41 -11 -31 0 -47 -5 -94 -31 -43 -24 -88 -42
-115 -44 -35 -4 -72 -22 -103 -51 -12 -11 -44 -26 -71 -33 -30 -7 -51 -19 -53
-28 -2 -10 -16 -17 -37 -18 -22 -2 -41 -11 -52 -26 -9 -12 -23 -24 -30 -25 -8
-1 -27 -8 -44 -14 -16 -7 -43 -14 -59 -15 -16 -2 -31 -7 -35 -12 -19 -28 -82
-64 -100 -58 -15 4 -30 -3 -54 -27 -36 -36 -77 -48 -77 -23 0 18 -26 20 -37 2
-4 -7 -23 -19 -41 -26 -17 -8 -46 -29 -62 -47 -16 -19 -43 -37 -60 -40 -16 -4
-35 -13 -41 -20 -6 -8 -17 -14 -24 -14 -6 0 -83 -37 -171 -81 -87 -45 -176
-90 -196 -100 -20 -11 -42 -19 -48 -19 -5 0 -25 -8 -44 -18 -22 -12 -52 -18
-81 -17 -41 2 -45 0 -43 -19 2 -14 -3 -22 -17 -24 -11 -3 -32 -13 -47 -23 -14
-11 -30 -19 -36 -19 -5 0 -15 -7 -22 -15 -7 -8 -21 -15 -31 -15 -11 0 -19 -4
-19 -10 0 -5 -21 -9 -47 -9 -77 3 -93 0 -93 -15 0 -7 -33 -33 -72 -57 -40 -23
-75 -45 -78 -48 -11 -13 -57 -30 -97 -36 -24 -4 -46 -12 -50 -19 -13 -19 -59
-36 -71 -24 -6 6 -12 6 -16 -1 -4 -5 -13 -8 -21 -5 -8 4 -18 -1 -21 -10 -8
-21 -56 -46 -89 -46 -14 0 -25 -4 -25 -9 0 -5 -15 -11 -32 -14 -25 -4 -42 1
-73 23 l-40 28 -40 -24 c-22 -13 -59 -33 -82 -45 -24 -11 -43 -24 -43 -29 0
-6 -12 -10 -27 -10 -27 0 -92 -28 -158 -68 -16 -10 -50 -26 -75 -37 -25 -11
-51 -25 -58 -32 -7 -7 -19 -13 -26 -13 -7 0 -24 -8 -37 -18 -13 -10 -52 -27
-86 -38 l-63 -19 0 -1356 c0 -1176 2 -1358 15 -1369 8 -6 19 -9 24 -5 6 3 25
-1 42 -10 23 -12 28 -20 20 -28 -6 -6 -11 -21 -11 -34 0 -29 -16 -29 -41 0
-16 19 -20 20 -28 7 -6 -8 -10 -29 -9 -46 1 -23 8 -33 27 -42 18 -8 32 -26 41
-54 12 -32 20 -43 35 -41 19 1 19 1 2 -12 -14 -10 -16 -18 -7 -39 5 -14 16
-26 23 -26 13 0 15 -17 19 -183 1 -42 4 -48 20 -44 29 8 21 -3 -12 -14 -29
-11 -47 -40 -35 -59 11 -19 35 -10 41 15 3 14 10 22 15 20 4 -3 5 -13 2 -21
-4 -10 2 -17 16 -21 24 -6 27 -16 7 -32 -10 -8 -21 -8 -41 -1 -53 20 -64 7
-78 -96 -2 -11 -7 -26 -11 -32 -8 -14 10 -42 26 -42 6 0 23 9 39 20 l28 21 7
-26 c7 -30 20 -32 34 -5 10 19 59 29 61 13 4 -43 3 -65 -3 -69 -4 -3 -8 -16
-8 -28 0 -18 -6 -23 -25 -23 -20 0 -25 5 -25 24 0 21 -4 24 -22 19 -13 -3 -26
-6 -29 -6 -4 0 -9 -9 -12 -20 -6 -23 -39 -27 -56 -6 -7 8 -9 25 -6 38 7 28
-25 64 -50 55 -19 -8 -20 -37 -1 -37 9 0 12 -7 9 -20 -4 -14 -14 -20 -34 -20
-16 0 -29 -4 -29 -9 0 -5 -3 -17 -7 -27 -4 -11 -3 -15 4 -11 17 11 30 -14 38
-71 4 -31 11 -49 17 -46 6 4 6 -1 0 -13 -6 -11 -9 -29 -6 -40 3 -12 -4 -42
-15 -68 -26 -58 -26 -64 -3 -59 23 6 98 -62 77 -70 -22 -8 -18 -30 7 -41 13
-6 25 -19 27 -30 2 -11 8 -24 15 -28 6 -5 1 -6 -11 -2 -16 4 -23 2 -23 -7 0
-9 -3 -9 -10 2 -8 13 -13 13 -37 0 -16 -9 -29 -25 -31 -37 -3 -23 -32 -54 -32
-34 0 6 -4 11 -10 11 -14 0 -12 -27 3 -33 10 -4 10 -6 0 -6 -9 -1 -13 -18 -13
-51 0 -48 -1 -50 -24 -44 -28 7 -38 -17 -23 -53 10 -22 28 -24 85 -7 16 5 22
2 22 -10 0 -9 13 -19 32 -24 30 -8 53 -42 29 -42 -6 0 -11 7 -11 15 0 11 -9
14 -36 10 -20 -2 -42 -9 -49 -15 -6 -5 -15 -6 -19 -2 -5 4 -7 0 -6 -8 4 -30 0
-40 -19 -40 -19 0 -31 -18 -31 -47 0 -11 7 -14 25 -11 14 3 25 2 25 -1 0 -12
-51 -29 -71 -24 -19 5 -20 3 -14 -18 10 -32 43 -62 60 -55 8 3 20 19 28 37
l12 32 32 -27 c17 -14 35 -26 40 -26 5 0 29 -21 53 -46 25 -25 69 -61 98 -81
28 -19 52 -38 52 -42 0 -4 17 -20 37 -34 35 -25 37 -29 34 -76 -2 -42 1 -51
19 -61 11 -6 18 -15 15 -20 -4 -6 -29 13 -58 41 -28 28 -64 57 -78 65 -15 7
-38 27 -52 44 -14 16 -30 30 -36 30 -6 0 -11 7 -11 15 0 8 -9 15 -19 15 -12 0
-21 9 -25 25 -4 14 -12 25 -19 25 -15 0 -48 36 -40 44 4 3 -8 6 -25 6 l-32 0
0 -535 0 -535 493 0 c272 0 636 -3 810 -7 270 -5 317 -4 317 8 0 8 -9 20 -20
27 -11 7 -20 19 -20 26 0 19 -47 56 -70 56 -10 0 -33 17 -51 38 -18 20 -45 47
-61 59 -18 13 -25 24 -18 28 6 4 8 15 5 25 -10 31 11 31 48 1 20 -15 50 -34
67 -41 18 -8 30 -20 30 -31 0 -11 3 -19 8 -19 17 0 110 -97 115 -121 9 -35 66
-66 95 -50 14 7 23 8 27 1 8 -13 82 -13 90 0 3 6 -1 13 -9 16 -9 3 -16 12 -16
20 0 7 -18 32 -41 56 -39 41 -41 42 -55 24 -13 -18 -14 -17 -14 17 0 41 4 43
40 22 33 -19 50 -18 80 4 20 16 22 21 11 35 -23 28 -2 17 34 -17 18 -17 64
-50 101 -72 37 -22 85 -57 107 -78 l40 -37 1489 0 1488 0 0 1080 0 1080 -1425
0 -1425 0 0 2075 0 2075 1000 0 1000 0 0 655 c0 621 -1 655 -18 655 -10 0 -29
-8 -42 -17z m-3922 -5518 c2 -2 1 -13 -3 -24 -6 -20 -6 -20 -26 0 -26 26 -25
42 4 33 12 -3 24 -8 25 -9z m344 -105 c5 -34 -13 -41 -34 -12 -7 9 -24 23 -38
29 -23 11 -22 12 21 12 44 1 47 0 51 -29z m114 -35 c9 -8 33 -18 54 -21 22 -4
47 -16 57 -28 14 -16 15 -18 1 -8 -11 9 -18 10 -23 2 -11 -17 -61 -11 -80 10
-10 11 -24 20 -30 20 -20 0 -39 27 -23 33 22 9 29 8 44 -8z m325 -273 c-7 -2
-18 1 -23 6 -8 8 -4 9 13 5 13 -4 18 -8 10 -11z m-120 -29 c13 -16 12 -17 -3
-4 -10 7 -18 15 -18 17 0 8 8 3 21 -13z m-716 -23 c10 -11 13 -20 7 -20 -6 0
-16 9 -22 20 -6 11 -9 20 -7 20 2 0 12 -9 22 -20z m120 -110 l50 -55 -56 50
c-31 28 -57 54 -58 58 -2 16 14 2 64 -53z m-56 6 c9 -11 6 -12 -14 -8 -14 2
-25 8 -25 13 0 14 26 11 39 -5z m197 -139 c4 -6 4 -9 -1 -5 -4 4 -16 3 -26 -2
-12 -7 -20 -7 -24 0 -3 5 -1 10 5 10 7 0 10 7 6 15 -4 13 -2 13 14 5 10 -5 22
-16 26 -23z m73 -71 c-3 -3 -11 5 -18 17 -13 21 -12 21 5 5 10 -10 16 -20 13
-22z m116 -86 c16 -16 24 -30 19 -30 -6 0 -20 14 -32 30 -13 17 -21 30 -19 30
2 0 16 -13 32 -30z m89 -89 c-3 -3 -15 6 -27 18 l-22 24 27 -19 c14 -10 24
-21 22 -23z m41 -31 c10 -11 16 -20 13 -20 -3 0 -13 9 -23 20 -10 11 -16 20
-13 20 3 0 13 -9 23 -20z m1136 -23 c-13 -13 -26 -3 -16 12 3 6 11 8 17 5 6
-4 6 -10 -1 -17z m-1044 -47 c3 -11 8 -20 12 -20 3 -1 21 -14 39 -29 30 -26
32 -31 20 -50 -11 -18 -10 -23 4 -38 16 -16 19 -16 36 0 10 9 21 17 25 17 8 0
27 -36 37 -71 l9 -29 -36 15 c-38 16 -116 92 -108 105 3 4 -2 11 -11 14 -9 3
-14 12 -11 20 3 8 -3 22 -13 31 -11 10 -17 22 -14 26 3 5 0 9 -5 9 -6 0 -11 5
-11 10 0 18 22 10 27 -10z m1013 3 c0 -10 14 -27 30 -38 31 -21 38 -50 21 -83
-31 -59 -42 -94 -32 -106 7 -9 6 -19 -5 -35 -9 -12 -13 -28 -10 -36 4 -12 -13
-29 -73 -72 -3 -2 9 -18 26 -36 16 -17 40 -46 52 -64 l21 -32 -22 -45 c-27
-56 -41 -57 -116 -14 l-55 31 -19 -26 c-25 -34 -32 -34 -77 1 -20 16 -56 40
-81 54 -33 19 -52 40 -73 80 -15 29 -27 58 -27 64 0 5 -14 23 -31 40 -17 16
-42 50 -55 76 -20 40 -22 51 -12 73 10 22 9 27 -8 39 -10 8 -23 12 -27 9 -13
-8 -77 58 -77 79 0 27 28 22 59 -12 18 -20 33 -29 44 -24 10 4 32 -9 64 -38
115 -105 157 -136 178 -128 26 10 35 4 35 -23 0 -25 41 -58 48 -38 2 6 23 -6
49 -29 44 -38 46 -39 70 -23 21 14 24 22 18 50 -5 26 -3 33 9 33 9 0 25 19 37
41 17 34 18 43 7 50 -7 5 -16 9 -20 9 -15 0 -8 43 9 62 14 15 15 24 6 47 -8
21 -7 34 4 55 16 30 33 34 33 9z m-695 -43 c3 -5 1 -10 -4 -10 -6 0 -11 5 -11
10 0 6 2 10 4 10 3 0 8 -4 11 -10z m-747 -270 c17 -11 32 -26 32 -34 0 -7 10
-21 23 -30 19 -13 19 -15 2 -9 -11 4 -24 11 -30 15 -57 45 -75 61 -75 69 0 14
12 11 48 -11z m343 -16 l24 -27 -27 18 c-16 9 -28 21 -28 26 0 14 5 11 31 -17z
m-175 -130 c41 -31 77 -61 81 -67 10 -15 98 -77 110 -77 4 0 19 -9 33 -20 14
-11 33 -20 42 -20 10 0 32 -12 50 -28 18 -15 44 -33 58 -40 14 -7 46 -29 70
-48 41 -32 42 -35 16 -28 -16 4 -60 29 -99 55 -50 35 -80 49 -104 49 -25 0
-33 4 -33 18 -1 9 -37 44 -83 79 -117 89 -231 183 -223 183 4 0 41 -25 82 -56z
m409 -74 c23 -26 8 -26 -25 0 -18 14 -21 20 -9 20 9 0 24 -9 34 -20z m135 -95
c7 -9 10 -18 7 -21 -7 -8 -47 14 -47 26 0 15 26 12 40 -5z m110 -26 c0 -16
-28 3 -33 23 -5 19 -5 19 14 2 10 -9 19 -21 19 -25z m881 -9 c7 -18 18 -30 28
-30 13 0 18 -8 18 -31 0 -29 -2 -30 -33 -24 -18 3 -35 1 -39 -5 -12 -20 -45 9
-45 39 0 16 -7 34 -15 41 -8 7 -15 17 -15 22 0 7 4 7 13 0 8 -7 19 -6 37 3 35
20 40 19 51 -15z m-910 -29 c18 -11 26 -22 20 -25 -14 -9 -47 9 -55 29 -7 19
-3 19 35 -4z m339 -1 c13 -25 2 -25 -30 0 -25 19 -25 20 -3 20 12 0 27 -9 33
-20z m685 -42 c-4 -33 -4 -34 -15 -18 -5 9 -5 19 2 27 14 18 16 17 13 -9z
m-1110 -98 c-3 -5 -12 -10 -18 -10 -7 0 -6 4 3 10 19 12 23 12 15 0z"/>
<path d="M33876 13718 c-11 -16 -13 -25 -5 -35 6 -7 15 -10 20 -7 5 3 9 0 9
-5 0 -20 16 -11 33 18 24 41 21 51 -12 51 -19 0 -35 -8 -45 -22z"/>
<path d="M9622 13703 c4 -21 43 -24 43 -4 0 8 -10 16 -23 18 -18 2 -23 -1 -20
-14z"/>
<path d="M33345 13711 c-3 -5 -1 -12 5 -16 12 -7 30 2 30 16 0 12 -27 12 -35
0z"/>
<path d="M33181 13656 c-7 -8 -15 -30 -18 -49 -4 -30 -2 -36 17 -42 29 -9 51
20 47 65 -2 38 -25 51 -46 26z"/>
<path d="M33451 13646 c-7 -8 -8 -17 -3 -20 6 -3 15 1 21 8 7 8 8 17 3 20 -6
3 -15 -1 -21 -8z"/>
<path d="M9730 13637 c-33 -16 -50 -79 -31 -110 8 -12 15 -41 17 -66 4 -57 15
-67 52 -52 50 21 76 60 78 116 3 70 -1 81 -47 104 -47 25 -38 24 -69 8z"/>
<path d="M33098 13579 c-23 -24 -23 -26 5 -24 14 1 23 9 25 23 4 27 -7 27 -30
1z"/>
<path d="M10623 13578 c2 -7 10 -13 17 -13 7 0 15 6 18 13 2 7 -5 12 -18 12
-13 0 -20 -5 -17 -12z"/>
<path d="M33640 13576 c0 -9 5 -16 10 -16 6 0 10 4 10 9 0 6 -4 13 -10 16 -5
3 -10 -1 -10 -9z"/>
<path d="M33945 13523 c-20 -5 -48 -38 -51 -60 -1 -7 -9 -20 -18 -29 -9 -8
-16 -20 -16 -25 0 -16 18 -10 39 12 12 13 26 19 36 15 22 -8 58 12 52 29 -3 7
-1 17 4 22 12 12 1 43 -15 42 -6 -1 -20 -4 -31 -6z"/>
<path d="M10240 13510 c0 -5 7 -10 15 -10 8 0 15 5 15 10 0 6 -7 10 -15 10 -8
0 -15 -4 -15 -10z"/>
<path d="M33743 13475 c-27 -41 -27 -43 -7 -83 18 -38 24 -39 52 -9 28 30 32
80 8 106 -25 27 -27 27 -53 -14z"/>
<path d="M10117 13483 c-13 -12 -7 -23 13 -23 13 0 18 5 14 15 -7 16 -17 19
-27 8z"/>
<path d="M10605 13470 c-4 -7 -1 -19 8 -27 19 -19 59 -8 55 15 -4 20 -53 29
-63 12z"/>
<path d="M9678 13433 c-24 -6 -23 -23 2 -23 11 0 20 7 20 15 0 8 -1 14 -2 14
-2 -1 -11 -3 -20 -6z"/>
<path d="M10645 13410 c3 -5 10 -10 16 -10 5 0 9 5 9 10 0 6 -7 10 -16 10 -8
0 -12 -4 -9 -10z"/>
<path d="M9530 13375 c0 -7 -6 -18 -14 -22 -18 -10 -25 -48 -8 -47 62 5 59 3
38 19 -16 12 -17 19 -8 37 l11 23 0 -24 c1 -19 4 -22 12 -14 7 7 9 19 6 27 -8
20 -37 21 -37 1z"/>
<path d="M10260 13345 c0 -21 34 -37 48 -23 21 21 13 38 -18 38 -20 0 -30 -5
-30 -15z"/>
<path d="M10080 13310 c0 -5 9 -10 20 -10 11 0 20 5 20 10 0 6 -9 10 -20 10
-11 0 -20 -4 -20 -10z"/>
<path d="M10050 13275 c0 -17 18 -19 38 -6 11 7 10 10 -3 15 -26 10 -35 7 -35
-9z"/>
<path d="M10125 13270 c-8 -13 4 -32 16 -25 12 8 12 35 0 35 -6 0 -13 -4 -16
-10z"/>
<path d="M10098 13223 c7 -3 16 -2 19 1 4 3 -2 6 -13 5 -11 0 -14 -3 -6 -6z"/>
<path d="M9978 13173 c7 -3 16 -2 19 1 4 3 -2 6 -13 5 -11 0 -14 -3 -6 -6z"/>
<path d="M10169 13163 c-11 -3 -15 -11 -12 -24 7 -24 46 -22 51 2 3 18 -14 27
-39 22z"/>
<path d="M33301 13124 c-18 -19 -37 -32 -41 -29 -4 2 -22 -14 -39 -36 -22 -27
-31 -48 -29 -67 3 -23 7 -27 35 -26 19 1 31 -3 30 -10 -1 -6 6 -10 16 -8 9 2
17 -2 17 -8 0 -5 -9 -10 -19 -10 -11 0 -36 -9 -55 -21 -39 -22 -38 -28 5 -79
l21 -25 -6 25 c-4 21 1 28 27 40 19 9 40 30 50 52 12 24 32 44 54 54 19 10 37
24 40 33 2 9 9 24 14 34 7 13 5 22 -6 33 -13 13 -13 19 -3 32 11 13 10 14 -9
8 -15 -5 -25 -1 -35 12 -22 31 -32 31 -67 -4z"/>
<path d="M10087 13123 c-11 -11 -8 -20 8 -20 8 0 15 6 15 14 0 14 -12 17 -23
6z"/>
<path d="M9810 13108 c0 -7 4 -19 9 -27 7 -12 13 -12 24 -3 7 7 16 10 18 7 3
-2 5 5 6 16 2 16 -1 18 -12 9 -9 -7 -15 -8 -20 0 -9 14 -25 13 -25 -2z"/>
<path d="M33500 13081 c-7 -14 -7 -22 1 -27 14 -8 43 21 35 35 -11 17 -24 13
-36 -8z"/>
<path d="M10076 13041 c-7 -11 22 -23 35 -15 5 3 7 10 4 15 -8 12 -32 12 -39
0z"/>
<path d="M10290 12980 c-13 -9 -13 -12 3 -25 23 -17 49 -9 45 14 -4 19 -28 25
-48 11z"/>
<path d="M10620 12980 c0 -5 5 -10 10 -10 6 0 10 5 10 10 0 6 -4 10 -10 10 -5
0 -10 -4 -10 -10z"/>
<path d="M10690 12980 c0 -5 5 -10 10 -10 6 0 10 5 10 10 0 6 -4 10 -10 10 -5
0 -10 -4 -10 -10z"/>
<path d="M9587 12964 c-10 -10 2 -24 22 -24 9 0 26 7 37 15 18 13 17 14 -17
15 -20 0 -39 -3 -42 -6z"/>
<path d="M9780 12940 c-8 -5 -12 -11 -9 -14 3 -3 14 1 25 9 21 16 8 20 -16 5z"/>
<path d="M9855 12930 c-3 -5 -1 -10 4 -10 6 0 11 5 11 10 0 6 -2 10 -4 10 -3
0 -8 -4 -11 -10z"/>
<path d="M10096 12913 c-4 -4 -17 -8 -29 -8 -15 0 -27 -10 -37 -32 -15 -33
-34 -40 -60 -23 -16 11 -13 15 37 47 16 11 15 12 -9 12 -19 1 -28 -4 -28 -15
0 -8 -4 -12 -10 -9 -5 3 -10 -1 -10 -9 0 -9 -5 -16 -12 -16 -6 0 -29 -8 -50
-17 -28 -13 -37 -23 -34 -36 6 -26 -24 -57 -56 -57 -32 0 -34 6 -12 31 16 17
15 19 -10 29 -15 5 -29 10 -31 10 -9 0 -24 -66 -19 -86 4 -15 2 -24 -5 -24 -6
0 -11 -4 -11 -10 0 -5 24 -10 53 -10 53 0 89 16 114 51 8 11 21 15 34 12 21
-6 21 -5 5 19 l-16 24 51 1 c28 0 55 5 61 11 6 6 23 9 37 6 33 -6 91 29 91 54
0 22 -33 56 -44 45z m-46 -63 c0 -5 -4 -10 -10 -10 -5 0 -10 5 -10 10 0 6 5
10 10 10 6 0 10 -4 10 -10z m-295 -80 c3 -5 1 -10 -4 -10 -6 0 -11 5 -11 10 0
6 2 10 4 10 3 0 8 -4 11 -10z"/>
<path d="M33432 12887 c-19 -20 -20 -27 -11 -62 6 -22 15 -44 20 -49 5 -6 9
-17 9 -26 0 -21 87 -93 95 -79 10 15 12 110 3 115 -5 3 -8 14 -8 26 0 24 -56
98 -74 98 -7 0 -22 -10 -34 -23z"/>
<path d="M33270 12785 c-10 -12 -10 -15 3 -15 8 0 20 7 27 15 10 12 10 15 -3
15 -8 0 -20 -7 -27 -15z"/>
<path d="M33330 12790 c0 -12 37 -14 44 -2 2 4 -6 9 -20 10 -13 1 -24 -3 -24
-8z"/>
<path d="M9804 12655 c-15 -10 -16 -16 -7 -26 14 -15 43 -5 43 15 0 22 -15 27
-36 11z"/>
<path d="M10295 12651 c-3 -5 -1 -12 5 -16 13 -8 50 3 50 16 0 12 -47 12 -55
0z"/>
<path d="M9630 12640 c0 -5 7 -7 15 -4 8 4 15 8 15 10 0 2 -7 4 -15 4 -8 0
-15 -4 -15 -10z"/>
<path d="M10600 12640 c0 -5 7 -10 15 -10 8 0 15 5 15 10 0 6 -7 10 -15 10 -8
0 -15 -4 -15 -10z"/>
<path d="M33070 12640 c-12 -7 -12 -12 -2 -22 9 -9 15 -9 24 0 16 16 -2 34
-22 22z"/>
<path d="M33157 12633 c-10 -9 -9 -23 2 -23 5 0 11 7 15 15 5 15 -5 20 -17 8z"/>
<path d="M9975 12600 c-10 -11 -16 -22 -14 -24 15 -13 52 -26 74 -26 14 0 37
-7 51 -16 18 -12 28 -14 36 -6 14 14 1 32 -23 32 -12 0 -19 7 -19 18 0 44 -72
59 -105 22z"/>
<path d="M10448 12596 c-23 -17 -23 -33 1 -46 35 -18 67 -12 79 15 7 14 12 30
12 35 0 15 -72 11 -92 -4z"/>
<path d="M9801 12576 c-19 -23 4 -28 24 -6 15 17 16 20 3 20 -9 0 -21 -6 -27
-14z"/>
<path d="M9700 12565 c7 -8 16 -12 21 -9 13 8 1 24 -18 24 -13 0 -13 -3 -3
-15z"/>
<path d="M9695 12520 c-3 -4 6 -15 20 -24 14 -9 25 -14 25 -10 0 3 11 -1 25
-10 18 -12 23 -12 19 -3 -7 18 -82 58 -89 47z"/>
<path d="M9780 12510 c0 -5 5 -10 10 -10 6 0 10 5 10 10 0 6 -4 10 -10 10 -5
0 -10 -4 -10 -10z"/>
<path d="M10140 12474 c0 -11 -5 -14 -16 -10 -11 4 -14 1 -12 -12 2 -11 11
-16 23 -14 27 5 49 27 41 41 -11 17 -36 13 -36 -5z"/>
<path d="M9822 12469 c2 -6 8 -10 13 -10 5 0 11 4 13 10 2 6 -4 11 -13 11 -9
0 -15 -5 -13 -11z"/>
<path d="M10017 12449 c-3 -12 2 -37 11 -56 12 -25 13 -39 6 -51 -15 -24 1
-78 25 -85 11 -3 27 -22 36 -42 14 -36 14 -40 -5 -72 -17 -30 -18 -36 -6 -48
8 -8 16 -20 19 -27 3 -9 11 -6 28 9 23 22 23 24 12 131 -6 59 -16 118 -24 129
-10 17 -10 24 0 37 13 16 7 36 -11 36 -5 0 -8 -7 -4 -15 12 -33 -24 -12 -52
30 -26 40 -30 42 -35 24z"/>
<path d="M10386 12451 c-4 -5 -2 -12 3 -15 5 -4 12 -2 15 3 4 5 2 12 -3 15 -5
4 -12 2 -15 -3z"/>
<path d="M9792 12428 c5 -15 28 -18 29 -3 0 6 -7 12 -17 13 -10 3 -15 -1 -12
-10z"/>
<path d="M10152 12284 c1 -9 9 -19 16 -22 9 -3 13 2 10 14 -1 9 -9 19 -16 22
-9 3 -13 -2 -10 -14z"/>
<path d="M10292 12213 c2 -10 10 -18 18 -18 22 0 18 29 -3 33 -14 3 -18 -1
-15 -15z"/>
<path d="M10189 12104 c-16 -20 -1 -48 30 -52 26 -4 37 19 21 47 -13 25 -33
27 -51 5z"/>
<path d="M10275 12070 c3 -5 8 -10 11 -10 2 0 4 5 4 10 0 6 -5 10 -11 10 -5 0
-7 -4 -4 -10z"/>
<path d="M10072 12008 c2 -28 7 -33 28 -33 21 0 25 5 25 29 0 25 -5 30 -28 33
-27 4 -28 2 -25 -29z"/>
<path d="M10336 11972 c-3 -5 1 -15 9 -22 21 -17 27 -9 10 13 -7 10 -16 14
-19 9z"/>
<path d="M10440 11924 c-11 -12 -10 -18 3 -32 21 -20 39 -6 31 26 -7 26 -17
28 -34 6z"/>
<path d="M10316 11861 c-7 -11 3 -41 14 -41 4 0 7 11 6 25 -1 25 -10 32 -20
16z"/>
<path d="M10150 11811 c0 -5 5 -13 10 -16 6 -3 10 -2 10 4 0 5 -4 13 -10 16
-5 3 -10 2 -10 -4z"/>
<path d="M10460 11720 c0 -5 5 -10 11 -10 5 0 7 5 4 10 -3 6 -8 10 -11 10 -2
0 -4 -4 -4 -10z"/>
<path d="M10400 11650 c0 -5 5 -10 10 -10 6 0 10 5 10 10 0 6 -4 10 -10 10 -5
0 -10 -4 -10 -10z"/>
<path d="M12618 9087 c2 -2452 2 -2459 22 -2454 26 7 26 -9 0 -25 -11 -7 -20
-17 -20 -21 0 -5 -6 -14 -12 -22 -48 -50 -48 -49 -48 -210 l0 -155 339 0 c378
0 368 -2 355 67 -12 58 -11 66 10 90 10 12 16 29 13 37 -4 9 0 21 7 29 10 9
11 19 4 30 -6 12 -5 17 2 17 7 0 11 19 9 55 -2 43 2 60 18 77 30 35 53 92 53
135 0 21 6 45 12 51 10 10 10 17 0 32 -10 16 -9 27 4 60 9 22 21 40 27 40 20
0 45 31 40 50 -3 10 -15 21 -27 23 -21 4 -21 5 2 12 18 6 23 13 19 31 -3 15 5
33 24 54 32 35 50 100 27 100 -8 0 -20 -6 -27 -12 -11 -11 -12 -9 -3 7 6 11 8
32 5 46 -3 15 0 30 6 33 6 4 11 27 11 51 0 29 5 45 15 49 8 3 15 14 15 26 0
11 9 46 19 77 11 32 18 78 18 101 -1 24 1 46 6 49 4 2 7 17 7 34 0 16 3 29 8
29 9 0 36 110 28 117 -8 8 -26 -7 -26 -22 0 -8 -8 -20 -17 -27 -10 -7 -25 -26
-33 -41 -8 -16 -33 -48 -57 -72 -24 -25 -43 -48 -43 -53 0 -4 -9 -14 -21 -22
-11 -8 -33 -35 -49 -60 -44 -69 -104 -130 -127 -130 -33 0 -34 25 -2 44 19 11
29 25 29 41 0 15 7 26 20 30 11 3 20 12 20 20 0 8 9 17 21 20 26 9 59 41 59
58 0 7 17 31 38 53 46 51 68 77 81 102 5 10 23 33 40 51 19 20 29 42 29 59 -1
43 22 92 47 98 12 3 28 17 36 31 11 21 11 29 -2 51 -14 25 -13 31 14 90 16 34
26 69 23 78 -4 11 -2 15 8 11 12 -5 14 9 14 72 -1 93 23 162 53 154 14 -4 19
0 19 15 0 11 7 25 15 32 17 14 20 47 5 52 -6 2 -2 18 9 39 14 26 18 47 14 78
-5 35 -1 50 26 92 40 64 48 97 28 105 -13 4 -14 11 -6 32 6 14 12 44 14 67 10
88 14 108 28 124 8 9 18 34 21 56 10 62 11 69 20 83 4 7 4 21 1 33 -4 11 0 30
9 43 8 13 12 33 9 44 -2 11 3 32 12 46 10 15 15 37 13 51 -3 14 -1 28 3 31 5
3 9 16 9 30 0 13 5 24 10 24 6 0 10 13 10 29 0 16 5 31 11 33 6 2 10 17 10 33
-3 80 -1 97 9 110 6 7 10 19 9 27 -2 7 1 45 6 83 4 39 9 97 11 130 1 33 4 61
5 63 1 1 2 7 3 12 0 6 6 14 13 18 6 4 11 18 11 32 1 45 10 79 29 107 30 44 56
110 48 123 -4 6 1 17 11 24 11 9 18 28 20 54 1 22 4 44 6 48 3 5 11 33 18 63
7 29 21 62 32 73 14 14 17 25 11 41 -4 12 -7 49 -6 82 1 33 2 80 3 104 1 37
-3 48 -27 67 -15 13 -33 23 -40 24 -7 0 -28 9 -48 20 -20 11 -41 20 -47 20 -6
0 -25 10 -42 23 -17 13 -43 24 -59 25 -15 1 -45 13 -67 27 -22 14 -46 25 -54
25 -8 0 -18 5 -21 10 -3 6 -13 10 -22 10 -9 0 -31 11 -49 25 -17 13 -52 27
-75 31 -24 4 -46 10 -49 14 -10 12 -80 41 -89 36 -5 -3 -14 1 -21 9 -7 8 -17
12 -22 9 -5 -3 -22 5 -36 19 -15 14 -47 31 -72 38 -25 7 -60 21 -78 31 -18 10
-41 18 -51 18 -10 0 -24 7 -31 15 -7 8 -19 15 -27 15 -8 0 -29 6 -46 14 -18 8
-52 21 -77 31 -80 30 -110 47 -110 62 0 10 -6 13 -15 9 -9 -3 -18 1 -21 8 -3
8 -25 17 -49 21 -25 3 -47 10 -50 16 -4 5 -17 9 -30 9 -13 0 -26 4 -29 9 -3 5
-23 12 -43 16 -21 4 -43 11 -49 16 -6 5 -37 12 -70 17 l-59 8 3 -2459z m566
-1807 c-17 -32 -36 -53 -51 -56 -13 -4 -23 -12 -23 -20 0 -7 -6 -17 -13 -21
-6 -4 -32 -34 -55 -65 -49 -65 -89 -101 -52 -48 13 19 28 37 32 38 5 2 17 25
28 51 11 25 37 60 57 76 20 17 41 36 47 43 55 67 65 67 30 2z m-228 -277 c-10
-10 -19 5 -10 18 6 11 8 11 12 0 2 -7 1 -15 -2 -18z m-146 -187 c0 -2 -8 -10
-17 -17 -16 -13 -17 -12 -4 4 13 16 21 21 21 13z"/>
<path d="M18337 10903 c-14 -13 -6 -29 13 -29 11 0 20 3 20 7 0 11 -27 29 -33
22z"/>
<path d="M18250 10795 c0 -8 4 -15 8 -15 5 0 9 7 9 15 0 8 -4 15 -9 15 -4 0
-8 -7 -8 -15z"/>
<path d="M18645 10600 c-4 -6 -3 -16 3 -22 13 -13 23 4 13 21 -7 10 -10 10
-16 1z"/>
<path d="M18423 10576 c4 -10 3 -24 -3 -31 -8 -9 -8 -15 0 -20 29 -18 41 33
13 56 -15 12 -16 12 -10 -5z"/>
<path d="M18210 10535 c-13 -16 -6 -65 10 -65 6 0 10 -7 10 -15 0 -21 13 -19
35 5 16 17 16 20 2 26 -9 3 -14 11 -11 18 3 7 -4 20 -14 29 -17 16 -21 16 -32
2z"/>
<path d="M18363 10380 c9 -23 14 -27 24 -18 11 9 10 14 -6 29 -28 26 -31 24
-18 -11z"/>
<path d="M18679 10319 c-22 -54 17 -107 59 -80 15 9 19 54 8 87 -10 33 -52 28
-67 -7z"/>
<path d="M19340 10340 c0 -5 5 -10 10 -10 6 0 10 5 10 10 0 6 -4 10 -10 10 -5
0 -10 -4 -10 -10z"/>
<path d="M18487 10209 c-28 -16 -4 -89 30 -89 41 0 59 71 24 90 -24 12 -31 12
-54 -1z"/>
<path d="M18420 10195 c0 -8 5 -15 10 -15 6 0 10 7 10 15 0 8 -4 15 -10 15 -5
0 -10 -7 -10 -15z"/>
<path d="M19244 10198 c-6 -7 -11 -28 -13 -45 -2 -31 -1 -33 32 -33 43 0 89
34 85 64 -2 17 -11 22 -49 24 -29 2 -49 -2 -55 -10z"/>
<path d="M19478 10153 c-10 -2 -18 -11 -18 -19 0 -16 27 -18 49 -5 7 5 10 14
7 20 -7 11 -10 12 -38 4z"/>
<path d="M19140 10055 c-11 -13 -9 -15 15 -15 16 0 25 5 23 12 -7 19 -24 20
-38 3z"/>
<path d="M18344 10016 c-6 -16 12 -56 25 -56 13 0 22 30 16 51 -7 22 -33 25
-41 5z"/>
<path d="M19860 9985 c-17 -20 0 -41 24 -28 14 7 14 12 3 27 -12 16 -14 17
-27 1z"/>
<path d="M18628 9890 c-51 -30 -10 -168 50 -170 8 0 26 9 40 21 30 23 38 64
22 113 -8 26 -18 35 -42 40 -40 8 -50 7 -70 -4z"/>
<path d="M18530 9873 c0 -10 4 -24 9 -32 8 -12 12 -13 25 -1 15 12 15 14 0 31
-21 24 -34 24 -34 2z"/>
<path d="M19572 9808 c-19 -19 -14 -38 12 -38 21 0 55 25 45 34 -13 12 -47 14
-57 4z"/>
<path d="M19834 9779 c-11 -19 13 -34 31 -19 13 11 13 15 3 21 -18 12 -26 11
-34 -2z"/>
<path d="M20126 9774 c-9 -22 -8 -24 9 -24 8 0 15 6 15 14 0 22 -17 28 -24 10z"/>
<path d="M18586 9705 c-11 -8 -16 -21 -13 -30 13 -32 43 -7 35 29 -3 13 -6 13
-22 1z"/>
<path d="M19867 9694 c-3 -3 -3 -12 0 -20 4 -11 9 -12 19 -3 8 6 14 15 14 20
0 10 -24 12 -33 3z"/>
<path d="M19220 9680 c0 -5 7 -10 15 -10 8 0 15 5 15 10 0 6 -7 10 -15 10 -8
0 -15 -4 -15 -10z"/>
<path d="M19160 9670 c-12 -8 -10 -10 8 -10 13 0 20 4 17 10 -7 12 -6 12 -25
0z"/>
<path d="M19773 9652 c-6 -4 -13 -16 -15 -27 -2 -16 3 -21 26 -23 40 -5 52 11
30 37 -20 23 -24 24 -41 13z"/>
<path d="M20000 9651 c0 -17 18 -21 24 -6 3 9 0 15 -9 15 -8 0 -15 -4 -15 -9z"/>
<path d="M20571 9641 c-33 -9 -37 -28 -9 -36 13 -4 26 -12 29 -18 11 -17 28 2
26 30 -3 30 -11 34 -46 24z"/>
<path d="M18545 9610 c-3 -5 -12 -7 -19 -4 -18 7 -39 -21 -31 -45 12 -38 55
-38 55 1 0 17 2 18 15 8 20 -17 27 -8 19 24 -6 26 -27 35 -39 16z"/>
<path d="M20532 9582 c-18 -12 20 -45 42 -36 18 7 21 20 6 29 -5 3 -10 1 -10
-4 0 -17 -18 -13 -22 4 -2 9 -8 11 -16 7z"/>
<path d="M18974 9558 c-4 -6 -1 -16 7 -22 8 -6 23 -27 33 -46 22 -42 56 -80
69 -80 5 0 15 -7 21 -15 7 -9 16 -11 24 -6 11 7 11 11 -2 24 -9 8 -16 20 -16
26 0 6 -6 11 -14 11 -27 0 -74 49 -80 85 -7 35 -28 46 -42 23z"/>
<path d="M19890 9560 c0 -13 11 -13 30 0 12 8 11 10 -7 10 -13 0 -23 -4 -23
-10z"/>
<path d="M19944 9533 c-9 -14 -8 -21 5 -30 14 -10 12 -14 -18 -26 -25 -11 -29
-16 -17 -20 9 -4 16 -3 16 2 0 5 10 11 21 14 15 4 20 11 16 21 -4 10 -1 16 9
16 11 0 14 6 10 16 -3 9 -6 18 -6 20 0 11 -27 2 -36 -13z"/>
<path d="M19875 9527 c-4 -10 -3 -23 3 -29 14 -14 21 3 12 27 -7 19 -8 19 -15
2z"/>
<path d="M18880 9516 c0 -9 5 -16 10 -16 6 0 10 4 10 9 0 6 -4 13 -10 16 -5 3
-10 -1 -10 -9z"/>
<path d="M18933 9504 c-8 -21 13 -42 28 -27 13 13 5 43 -11 43 -6 0 -13 -7
-17 -16z"/>
<path d="M18552 9472 c-19 -13 -4 -39 29 -51 16 -5 29 -16 30 -23 1 -7 2 -20
3 -28 2 -8 3 -22 4 -30 1 -8 20 -23 42 -33 32 -14 45 -15 63 -6 43 22 57 40
47 59 -11 21 -87 60 -117 60 -11 0 -32 14 -46 30 -29 32 -35 34 -55 22z"/>
<path d="M20332 9454 c-18 -16 -32 -36 -32 -46 0 -10 -5 -18 -11 -18 -8 0 -10
-14 -5 -42 4 -24 8 -55 9 -70 4 -35 34 -68 62 -68 11 0 25 -4 31 -10 14 -14
72 25 80 55 9 35 -1 66 -31 101 -14 16 -25 38 -25 49 0 11 -10 33 -23 48 l-23
29 -32 -28z"/>
<path d="M20404 9468 c-8 -12 10 -16 34 -7 12 5 22 11 22 14 0 7 -51 2 -56 -7z"/>
<path d="M18990 9431 c0 -5 6 -14 14 -20 16 -13 32 2 21 19 -8 12 -35 13 -35
1z"/>
<path d="M19693 9399 c-14 -14 -5 -47 17 -59 13 -7 24 -5 41 9 l22 18 -21 21
c-24 24 -42 28 -59 11z"/>
<path d="M18937 9342 c-23 -25 -21 -32 6 -32 31 0 51 15 44 34 -8 21 -30 20
-50 -2z"/>
<path d="M19075 9330 c-9 -14 1 -27 25 -33 22 -6 27 12 8 31 -15 15 -25 15
-33 2z"/>
<path d="M19590 9309 c0 -5 5 -7 10 -4 6 3 10 8 10 11 0 2 -4 4 -10 4 -5 0
-10 -5 -10 -11z"/>
<path d="M19937 9293 c-14 -13 -6 -33 13 -33 11 0 20 4 20 9 0 13 -26 32 -33
24z"/>
<path d="M18936 9251 c-24 -9 -32 -50 -10 -58 9 -3 25 3 37 16 19 18 20 23 7
35 -9 8 -23 11 -34 7z"/>
<path d="M19804 9209 c-10 -17 13 -36 27 -22 12 12 4 33 -11 33 -5 0 -12 -5
-16 -11z"/>
<path d="M19162 9188 c-8 -10 -4 -13 13 -14 16 -1 22 2 18 12 -6 17 -17 18
-31 2z"/>
<path d="M19320 9192 c0 -14 11 -21 26 -15 21 8 17 23 -6 23 -11 0 -20 -4 -20
-8z"/>
<path d="M20520 9180 c0 -5 4 -10 9 -10 5 0 7 -9 4 -20 -7 -25 8 -26 37 -2 13
11 20 24 16 30 -9 15 -66 16 -66 2z"/>
<path d="M19358 9168 c-33 -11 -35 -19 -9 -42 14 -13 24 -14 45 -7 52 20 17
67 -36 49z"/>
<path d="M20390 9159 c0 -5 5 -7 10 -4 6 3 10 8 10 11 0 2 -4 4 -10 4 -5 0
-10 -5 -10 -11z"/>
<path d="M18892 9123 c-23 -14 -42 -31 -42 -38 0 -18 -30 -28 -45 -15 -15 12
-28 1 -16 -14 4 -6 11 -24 15 -40 l7 -28 -33 20 c-35 20 -122 29 -132 13 -4
-5 -19 -3 -37 6 -18 9 -40 12 -57 8 -40 -10 -82 -54 -82 -86 0 -22 5 -28 33
-32 36 -6 77 15 77 38 0 8 9 15 19 15 11 0 26 3 34 6 8 3 27 -6 43 -19 l28
-24 -42 -24 c-48 -27 -49 -40 -4 -53 36 -10 59 3 64 37 2 18 9 21 31 19 16 -2
40 4 53 12 13 9 35 16 49 16 27 0 32 18 15 49 -7 14 -4 23 15 41 22 21 26 21
67 8 l43 -15 -30 -16 c-16 -9 -23 -16 -15 -17 11 0 11 -3 2 -12 -7 -7 -12 -16
-12 -21 0 -9 12 -7 55 8 18 6 19 6 2 -5 -14 -9 -16 -15 -6 -26 10 -12 14 -12
26 6 8 11 11 25 8 30 -3 6 -2 10 3 10 15 0 32 50 26 76 -5 20 -2 24 15 24 12
0 21 6 21 14 0 20 -53 45 -84 39 -14 -3 -26 -1 -26 3 0 18 -47 11 -88 -13z
m-201 -246 c-8 -8 -11 -7 -11 4 0 20 13 34 18 19 3 -7 -1 -17 -7 -23z"/>
<path d="M20510 9081 c-12 -24 -13 -31 -2 -31 5 0 14 11 20 25 14 29 -2 34
-18 6z"/>
<path d="M20542 9071 c-6 -17 -18 -31 -26 -31 -22 0 -31 -21 -14 -34 8 -6 17
-15 19 -21 4 -11 51 -12 92 -1 31 7 43 42 30 83 -8 24 -16 28 -50 31 -37 3
-42 1 -51 -27z"/>
<path d="M19100 9019 c0 -5 5 -7 10 -4 6 3 10 8 10 11 0 2 -4 4 -10 4 -5 0
-10 -5 -10 -11z"/>
<path d="M19396 9017 c-18 -13 -18 -14 -1 -21 22 -8 44 9 29 24 -7 7 -16 6
-28 -3z"/>
<path d="M19924 8904 c3 -9 6 -20 6 -25 0 -5 5 -9 10 -9 6 0 10 11 10 25 0 16
-6 25 -16 25 -11 0 -14 -5 -10 -16z"/>
<path d="M19260 8879 c0 -5 5 -7 10 -4 6 3 10 8 10 11 0 2 -4 4 -10 4 -5 0
-10 -5 -10 -11z"/>
<path d="M19835 8870 c-3 -5 -1 -10 4 -10 6 0 11 5 11 10 0 6 -2 10 -4 10 -3
0 -8 -4 -11 -10z"/>
<path d="M20460 8855 c-8 -16 -10 -29 -4 -34 12 -12 99 -20 114 -11 18 11 8
54 -13 58 -15 3 -18 0 -12 -18 5 -16 3 -21 -6 -18 -8 3 -14 9 -14 14 -1 39
-46 45 -65 9z"/>
<path d="M18807 8796 c-4 -10 -1 -13 9 -9 15 6 19 23 5 23 -5 0 -11 -7 -14
-14z"/>
<path d="M19945 8770 c-15 -17 -15 -20 5 -38 20 -19 60 -20 60 -1 0 13 -18 20
-22 8 -2 -5 -11 -7 -20 -4 -9 4 -14 13 -11 21 3 8 10 11 16 7 20 -12 45 -10
40 3 -8 20 -51 23 -68 4z"/>
<path d="M18896 8771 c-10 -16 21 -20 41 -6 17 13 16 14 -9 15 -15 0 -29 -4
-32 -9z"/>
<path d="M20487 8773 c-10 -9 -9 -23 2 -23 5 0 11 7 15 15 5 15 -5 20 -17 8z"/>
<path d="M18840 8760 c0 -5 7 -10 15 -10 8 0 15 5 15 10 0 6 -7 10 -15 10 -8
0 -15 -4 -15 -10z"/>
<path d="M20280 8761 c0 -6 4 -13 10 -16 6 -3 7 1 4 9 -7 18 -14 21 -14 7z"/>
<path d="M19220 8751 c0 -5 5 -13 10 -16 6 -3 10 -2 10 4 0 5 -4 13 -10 16 -5
3 -10 2 -10 -4z"/>
<path d="M20140 8753 c15 -7 12 -29 -6 -48 -20 -20 -10 -33 11 -15 18 15 16
62 -3 66 -7 1 -8 0 -2 -3z"/>
<path d="M19106 8715 l-29 -12 22 -13 c32 -17 74 -20 84 -6 5 8 10 7 17 -4 5
-8 10 -10 10 -5 -1 19 -28 46 -51 50 -13 1 -37 -3 -53 -10z"/>
<path d="M19545 8698 c-19 -11 -19 -11 0 -19 33 -13 45 -10 45 11 0 22 -15 25
-45 8z"/>
<path d="M20432 8679 c-10 -15 -11 -24 -3 -32 13 -13 18 -9 26 26 8 32 -5 36
-23 6z"/>
<path d="M20725 8689 c-11 -16 -1 -19 13 -3 7 8 8 14 3 14 -5 0 -13 -5 -16
-11z"/>
<path d="M19945 8600 c3 -5 11 -10 16 -10 6 0 7 5 4 10 -3 6 -11 10 -16 10 -6
0 -7 -4 -4 -10z"/>
<path d="M18810 8559 c0 -24 17 -59 29 -59 13 0 19 33 10 58 -11 28 -39 29
-39 1z"/>
<path d="M20006 8536 c3 -9 1 -16 -5 -16 -6 0 -11 -5 -11 -11 0 -6 10 -9 23
-7 27 4 31 41 5 46 -13 2 -16 -1 -12 -12z"/>
<path d="M20165 8490 c-33 -13 -58 -47 -50 -67 5 -10 9 -22 9 -26 1 -5 14 -19
30 -32 16 -12 26 -27 23 -31 -3 -5 10 -10 29 -11 37 -2 52 16 72 89 9 34 8 38
-16 55 -15 9 -31 16 -35 15 -4 -1 -16 2 -25 7 -9 5 -26 5 -37 1z"/>
<path d="M19765 8470 c3 -5 8 -10 11 -10 2 0 4 5 4 10 0 6 -5 10 -11 10 -5 0
-7 -4 -4 -10z"/>
<path d="M19664 8415 c-22 -17 -12 -20 16 -5 13 7 21 7 25 0 3 -5 11 -10 17
-10 7 0 6 6 -2 15 -16 19 -31 19 -56 0z"/>
<path d="M20056 8398 c-9 -12 -16 -26 -16 -30 0 -14 37 -9 49 6 10 12 8 13 -8
9 -25 -6 -27 0 -5 21 8 9 11 16 5 16 -5 0 -17 -10 -25 -22z"/>
<path d="M19840 8334 c0 -10 -3 -14 -7 -11 -10 10 -32 -25 -33 -52 0 -25 56
-91 78 -91 16 0 72 60 72 76 0 7 4 14 9 16 5 2 4 19 -3 38 -11 33 -13 35 -63
38 -45 3 -53 0 -53 -14z"/>
<path d="M20257 8313 c-10 -9 -8 -33 2 -33 5 0 11 9 14 20 5 20 -3 26 -16 13z"/>
<path d="M20291 8274 c-12 -14 -11 -16 4 -12 10 1 20 9 23 16 5 17 -10 15 -27
-4z"/>
<path d="M20410 8250 c0 -14 26 -23 41 -15 8 6 7 10 -2 16 -19 12 -39 11 -39
-1z"/>
<path d="M20080 8220 c0 -5 5 -10 10 -10 6 0 10 5 10 10 0 6 -4 10 -10 10 -5
0 -10 -4 -10 -10z"/>
<path d="M20556 8083 c-10 -10 15 -33 36 -33 10 0 16 4 13 10 -9 15 -41 30
-49 23z"/>
<path d="M20523 8063 c-18 -7 -16 -23 2 -23 8 0 15 7 15 15 0 8 -1 15 -2 14
-2 0 -9 -3 -15 -6z"/>
<path d="M20517 8015 c-4 -8 -2 -17 3 -20 6 -4 10 3 10 14 0 25 -6 27 -13 6z"/>
<path d="M20606 8014 c-4 -10 -1 -14 6 -12 15 5 23 28 10 28 -5 0 -13 -7 -16
-16z"/>
<path d="M20546 7998 c-14 -20 -14 -23 0 -31 10 -6 20 -5 27 3 9 10 9 14 0 17
-7 2 -9 11 -6 19 8 21 -4 17 -21 -8z"/>
<path d="M19517 7973 c-3 -4 1 -14 9 -20 7 -7 15 -9 18 -4 3 5 -1 14 -8 20 -8
7 -16 8 -19 4z"/>
<path d="M20632 7934 c-10 -18 -3 -74 9 -74 5 0 9 10 9 23 0 13 5 28 11 34 12
12 4 33 -11 33 -5 0 -13 -7 -18 -16z"/>
<path d="M20011 7853 c0 -5 4 -17 9 -28 8 -18 9 -17 9 8 1 15 -3 27 -9 27 -5
0 -10 -3 -9 -7z"/>
<path d="M20636 7837 c3 -10 9 -15 12 -12 3 3 0 11 -7 18 -10 9 -11 8 -5 -6z"/>
<path d="M20680 7840 c0 -5 4 -10 9 -10 6 0 13 5 16 10 3 6 -1 10 -9 10 -9 0
-16 -4 -16 -10z"/>
<path d="M20057 7823 c-4 -3 -7 -17 -7 -30 0 -22 -14 -31 -23 -15 -2 4 -2 1 0
-6 1 -8 3 -22 3 -33 0 -14 7 -19 30 -19 17 0 30 5 30 10 0 6 -9 10 -20 10 -11
0 -20 5 -20 11 0 7 11 8 29 4 24 -5 30 -2 36 14 12 39 -32 80 -58 54z"/>
<path d="M19395 7780 c-7 -12 2 -30 16 -30 12 0 12 27 0 35 -5 3 -12 1 -16 -5z"/>
<path d="M20396 7715 c4 -8 8 -15 10 -15 2 0 4 7 4 15 0 8 -4 15 -10 15 -5 0
-7 -7 -4 -15z"/>
<path d="M20165 7680 c-15 -17 -20 -65 -9 -94 4 -10 18 -16 39 -16 26 0 38 7
61 38 15 20 24 34 19 30 -13 -12 -35 12 -35 38 0 19 -5 23 -30 22 -16 -1 -36
-9 -45 -18z"/>
<path d="M20250 7671 c0 -5 5 -13 10 -16 6 -3 10 -2 10 4 0 5 -4 13 -10 16 -5
3 -10 2 -10 -4z"/>
<path d="M19735 7590 c-12 -13 -15 -24 -9 -30 6 -6 16 2 26 20 20 34 10 40
-17 10z"/>
<path d="M20314 7588 c-9 -31 23 -55 42 -30 15 20 18 46 5 37 -5 -3 -12 -1
-16 5 -10 16 -23 11 -31 -12z"/>
<path d="M3821 7530 c-19 -11 -6 -41 14 -34 16 6 20 29 7 38 -4 2 -14 1 -21
-4z"/>
<path d="M20175 7500 c-7 -12 2 -30 16 -30 5 0 9 9 9 20 0 21 -15 27 -25 10z"/>
<path d="M19976 7484 c-26 -25 -32 -46 -34 -105 -2 -43 2 -58 13 -63 11 -4 14
-13 9 -31 -5 -21 -3 -25 15 -25 23 0 27 10 11 26 -16 16 -1 124 17 124 20 0
35 47 23 71 -13 23 -33 24 -54 3z"/>
<path d="M3743 7449 c-37 -34 -39 -41 -17 -63 20 -21 39 -10 62 35 32 63 8 78
-45 28z"/>
<path d="M3830 7416 c0 -16 27 -29 41 -20 19 11 9 34 -16 34 -15 0 -25 -6 -25
-14z"/>
<path d="M3913 7372 c-16 -11 -23 -40 -10 -45 17 -6 47 11 47 27 0 16 -23 27
-37 18z"/>
<path d="M4207 7363 c-4 -3 -7 -11 -7 -17 0 -6 5 -5 12 2 6 6 9 14 7 17 -3 3
-9 2 -12 -2z"/>
<path d="M4030 7290 c0 -5 7 -10 16 -10 8 0 12 5 9 10 -3 6 -10 10 -16 10 -5
0 -9 -4 -9 -10z"/>
<path d="M3994 7186 c-8 -22 3 -33 18 -18 9 9 9 15 0 24 -9 9 -13 7 -18 -6z"/>
<path d="M4112 7188 c-18 -18 -14 -28 8 -28 11 0 20 6 20 14 0 21 -15 27 -28
14z"/>
<path d="M4226 7164 c-18 -26 -18 -26 3 -15 11 7 21 18 21 26 0 20 -2 19 -24
-11z"/>
<path d="M3825 7120 c-11 -18 13 -36 31 -25 9 6 16 15 17 20 3 14 -40 18 -48
5z"/>
<path d="M4087 7068 c-7 -25 -3 -33 12 -23 13 8 15 45 2 45 -5 0 -11 -10 -14
-22z"/>
<path d="M4270 7081 c0 -6 5 -13 10 -16 6 -3 10 1 10 9 0 9 -4 16 -10 16 -5 0
-10 -4 -10 -9z"/>
<path d="M3834 7045 c-9 -36 6 -48 40 -35 37 14 33 54 -6 58 -22 3 -29 -2 -34
-23z"/>
<path d="M3930 7026 c0 -31 14 -40 30 -21 10 12 10 18 0 30 -18 22 -30 18 -30
-9z"/>
<path d="M3984 6990 c-30 -12 -37 -37 -18 -66 20 -29 35 -30 59 -4 11 13 25
18 37 14 21 -6 23 2 6 21 -7 8 -19 21 -26 30 -14 17 -27 18 -58 5z"/>
<path d="M4125 6980 c3 -5 8 -10 11 -10 2 0 4 5 4 10 0 6 -5 10 -11 10 -5 0
-7 -4 -4 -10z"/>
<path d="M3825 6929 c-10 -15 1 -23 20 -15 9 3 13 10 10 16 -8 13 -22 13 -30
-1z"/>
<path d="M4133 6813 c-3 -10 -13 -26 -21 -35 -8 -10 -11 -18 -6 -18 20 0 84
21 84 28 -1 13 -27 42 -39 42 -6 0 -14 -8 -18 -17z"/>
<path d="M4192 6758 c-14 -14 -16 -38 -4 -38 12 0 32 23 32 37 0 16 -12 17
-28 1z"/>
<path d="M3630 6730 c0 -5 5 -10 11 -10 5 0 7 5 4 10 -3 6 -8 10 -11 10 -2 0
-4 -4 -4 -10z"/>
<path d="M3696 6714 c-11 -28 -7 -35 17 -32 29 4 38 48 9 48 -11 0 -23 -7 -26
-16z"/>
<path d="M3935 6709 c-10 -15 3 -25 16 -12 7 7 7 13 1 17 -6 3 -14 1 -17 -5z"/>
<path d="M3756 6701 c-4 -7 -5 -15 -2 -18 9 -9 19 4 14 18 -4 11 -6 11 -12 0z"/>
<path d="M4042 6701 c-7 -4 -10 -15 -7 -24 4 -10 -1 -21 -14 -29 -26 -16 -28
-48 -3 -48 26 0 38 12 44 45 7 39 -3 67 -20 56z"/>
<path d="M3800 6575 c-11 -13 -10 -14 4 -9 9 3 16 10 16 15 0 13 -6 11 -20 -6z"/>
<path d="M4085 6519 c-13 -24 -14 -34 -4 -45 18 -21 27 -17 45 22 15 30 15 37
3 45 -22 14 -27 11 -44 -22z"/>
<path d="M4140 6465 c0 -8 5 -15 10 -15 6 0 10 7 10 15 0 8 -4 15 -10 15 -5 0
-10 -7 -10 -15z"/>
<path d="M3918 6453 c-24 -29 -47 -113 -30 -113 9 1 42 67 42 85 0 8 5 15 10
15 6 0 10 7 10 15 0 20 -13 19 -32 -2z"/>
<path d="M3495 6429 c-10 -15 3 -25 16 -12 7 7 7 13 1 17 -6 3 -14 1 -17 -5z"/>
<path d="M4163 6400 c-13 -5 -23 -14 -23 -20 0 -14 27 -13 33 3 3 9 7 9 20 -2
15 -12 17 -11 17 8 0 22 -12 25 -47 11z"/>
<path d="M3627 6393 c-4 -3 -7 -15 -7 -25 0 -19 25 -24 49 -9 12 8 12 12 2 25
-14 17 -33 21 -44 9z"/>
<path d="M3460 6304 c0 -9 5 -14 12 -12 18 6 21 28 4 28 -9 0 -16 -7 -16 -16z"/>
<path d="M15087 6303 c-3 -5 10 -19 28 -33 48 -36 79 -88 64 -106 -14 -17 -6
-29 16 -21 21 9 20 73 -1 81 -9 4 -14 9 -10 13 9 10 -25 43 -44 43 -10 0 -20
7 -24 15 -6 16 -22 20 -29 8z"/>
<path d="M3477 6243 c-4 -3 -7 -16 -7 -29 0 -16 9 -25 31 -33 45 -15 49 -14
49 13 0 35 -53 70 -73 49z"/>
<path d="M3743 6223 c-7 -2 -13 -13 -13 -24 0 -13 7 -19 24 -19 27 0 40 22 23
39 -12 12 -15 12 -34 4z"/>
<path d="M14760 6200 c0 -5 5 -10 10 -10 6 0 10 5 10 10 0 6 -4 10 -10 10 -5
0 -10 -4 -10 -10z"/>
<path d="M15024 6195 c-4 -9 -4 -19 0 -22 3 -4 6 0 6 7 0 9 6 8 20 -5 20 -18
21 -18 12 5 -11 30 -30 37 -38 15z"/>
<path d="M22535 6200 c-4 -6 10 -10 34 -10 23 0 41 5 41 10 0 6 -15 10 -34 10
-19 0 -38 -4 -41 -10z"/>
<path d="M14827 6184 c-13 -13 -7 -26 8 -20 20 7 19 -3 -2 -27 -17 -18 -17
-20 6 -38 20 -16 27 -18 37 -7 11 11 11 20 0 53 -13 38 -34 54 -49 39z"/>
<path d="M3730 6115 c0 -8 5 -15 10 -15 6 0 10 7 10 15 0 8 -4 15 -10 15 -5 0
-10 -7 -10 -15z"/>
<path d="M15040 6113 c0 -15 29 -49 30 -35 0 7 -7 20 -15 28 -8 9 -15 11 -15
7z"/>
<path d="M3790 6086 c0 -22 17 -28 24 -10 9 22 8 24 -9 24 -8 0 -15 -6 -15
-14z"/>
<path d="M4463 6064 c-18 -8 -33 -19 -33 -25 0 -8 -11 -9 -32 -5 -25 5 -30 4
-20 -6 7 -7 12 -18 12 -25 0 -11 -4 -11 -22 -1 -13 7 -27 11 -32 10 -5 -2 -47
-4 -92 -5 -84 -2 -114 -14 -114 -46 0 -40 51 -55 72 -21 15 23 36 25 73 8 33
-15 32 -20 -11 -39 l-35 -15 26 -12 c23 -11 29 -9 53 15 18 18 36 26 54 24 14
-1 29 2 32 7 3 6 15 8 26 5 22 -6 27 15 10 46 -7 14 -4 21 15 31 21 11 32 11
65 0 22 -7 40 -17 40 -22 0 -11 -17 -10 -25 2 -8 13 -41 -4 -49 -26 -5 -12 -2
-15 9 -10 9 3 18 -1 22 -10 9 -23 75 53 68 77 -4 13 1 19 17 21 23 4 23 5 -3
16 -47 19 -93 22 -126 6z"/>
<path d="M14742 6068 c-15 -15 -16 -38 -1 -38 5 0 8 4 4 9 -3 5 4 12 15 16 11
3 20 11 20 16 0 13 -24 11 -38 -3z"/>
<path d="M14995 6070 c-3 -5 -1 -10 4 -10 6 0 11 5 11 10 0 6 -2 10 -4 10 -3
0 -8 -4 -11 -10z"/>
<path d="M15032 6041 c6 -10 18 -17 25 -14 18 7 16 20 -3 27 -28 11 -35 7 -22
-13z"/>
<path d="M14686 6033 c-12 -12 -5 -23 14 -23 11 0 20 4 20 9 0 11 -26 22 -34
14z"/>
<path d="M14991 6014 c0 -11 3 -14 6 -6 3 7 2 16 -1 19 -3 4 -6 -2 -5 -13z"/>
<path d="M15125 6020 c3 -5 10 -10 16 -10 5 0 9 5 9 10 0 6 -7 10 -16 10 -8 0
-12 -4 -9 -10z"/>
<path d="M15060 6000 c0 -5 5 -10 10 -10 6 0 10 5 10 10 0 6 -4 10 -10 10 -5
0 -10 -4 -10 -10z"/>
<path d="M15191 5979 c-18 -15 -21 -24 -16 -49 4 -17 14 -34 22 -37 10 -4 11
-8 3 -13 -8 -5 -4 -9 9 -13 15 -4 27 3 42 24 20 28 20 32 5 63 -20 43 -36 49
-65 25z"/>
<path d="M14970 5966 c0 -31 6 -34 13 -6 3 11 1 23 -4 26 -5 3 -9 -6 -9 -20z"/>
<path d="M15010 5980 c0 -5 9 -10 21 -10 11 0 17 5 14 10 -3 6 -13 10 -21 10
-8 0 -14 -4 -14 -10z"/>
<path d="M3897 5966 c-6 -15 1 -26 15 -26 4 0 8 9 8 20 0 23 -15 27 -23 6z"/>
<path d="M14530 5941 c0 -15 18 -23 25 -11 12 19 25 10 21 -14 -3 -19 -1 -23
15 -19 18 5 18 8 6 27 -15 22 -67 35 -67 17z"/>
<path d="M14675 5940 c-8 -13 4 -32 16 -25 12 8 12 35 0 35 -6 0 -13 -4 -16
-10z"/>
<path d="M14508 5914 c-3 -5 -9 -24 -13 -41 -6 -30 -5 -33 19 -33 13 0 37 5
53 11 l28 11 -32 14 c-17 7 -36 21 -41 30 -5 9 -12 13 -14 8z"/>
<path d="M14812 5909 c2 -7 10 -15 17 -17 8 -3 12 1 9 9 -2 7 -10 15 -17 17
-8 3 -12 -1 -9 -9z"/>
<path d="M15096 5901 c-9 -14 3 -38 19 -38 9 0 15 10 15 24 0 23 -23 32 -34
14z"/>
<path d="M14734 5858 c-6 -10 33 -68 46 -68 14 0 31 37 24 53 -6 17 -62 28
-70 15z m56 -22 c0 -3 -4 -8 -10 -11 -5 -3 -10 -1 -10 4 0 6 5 11 10 11 6 0
10 -2 10 -4z"/>
<path d="M4440 5820 c0 -13 11 -13 30 0 12 8 11 10 -7 10 -13 0 -23 -4 -23
-10z"/>
<path d="M14925 5790 c-4 -6 -3 -16 3 -22 6 -6 12 -6 17 2 4 6 3 16 -3 22 -6
6 -12 6 -17 -2z"/>
<path d="M4596 5781 c-3 -5 4 -11 17 -15 37 -10 57 -7 57 9 0 17 -65 22 -74 6z"/>
<path d="M14660 5774 c0 -8 5 -12 10 -9 6 3 10 10 10 16 0 5 -4 9 -10 9 -5 0
-10 -7 -10 -16z"/>
<path d="M4367 5684 c-8 -9 11 -44 24 -44 6 0 9 10 7 22 -3 22 -19 34 -31 22z"/>
<path d="M14925 5610 c3 -5 8 -10 11 -10 2 0 4 5 4 10 0 6 -5 10 -11 10 -5 0
-7 -4 -4 -10z"/>
<path d="M11470 2510 l0 -1850 620 0 620 0 0 245 0 245 -375 0 -375 0 0 1605
0 1605 -245 0 -245 0 0 -1850z"/>
<path d="M13670 2510 l0 -1850 625 0 625 0 -2 243 -3 242 -372 3 -373 2 0 535
0 535 275 0 275 0 0 245 0 245 -275 0 -275 0 0 575 0 575 375 0 375 0 -2 248
-3 247 -622 3 -623 2 0 -1850z"/>
<path d="M16277 4349 c-56 -13 -132 -55 -170 -93 -19 -19 -49 -62 -66 -97
l-31 -62 0 -1597 0 -1597 31 -61 c34 -68 96 -129 164 -161 43 -20 59 -21 491
-21 l446 0 60 32 c66 35 116 88 150 157 l23 46 3 908 2 907 -319 0 -319 0 -7
-32 c-10 -52 -32 -152 -64 -296 -17 -74 -31 -143 -31 -154 0 -19 6 -19 125
-16 l125 3 0 -537 0 -538 -190 0 -190 0 0 1360 0 1360 190 0 190 0 0 -235 0
-236 38 7 c20 3 116 24 212 46 96 21 191 42 210 46 l35 8 0 299 0 300 -26 56
c-37 79 -90 133 -167 171 l-67 33 -405 2 c-223 1 -422 -3 -443 -8z"/>
<path d="M18477 4353 c-4 -3 -7 -836 -7 -1850 l0 -1843 625 0 625 0 -2 243 -3
242 -372 3 -373 2 0 535 0 535 280 0 280 0 -2 243 -3 242 -277 3 -278 2 0 575
0 575 375 0 375 0 0 250 0 250 -618 0 c-340 0 -622 -3 -625 -7z"/>
<path d="M20817 4354 c-4 -4 -7 -837 -7 -1851 l0 -1843 250 0 250 0 2 978 3
977 21 -75 c12 -41 36 -120 54 -175 18 -55 35 -113 40 -130 4 -16 29 -97 55
-180 90 -289 143 -462 200 -645 31 -102 84 -273 117 -380 33 -107 72 -234 86
-282 l27 -88 213 0 212 0 -2 1847 -3 1848 -242 3 -243 2 -1 -1037 c0 -571 -2
-1033 -4 -1028 -2 6 -19 66 -39 135 -20 69 -60 211 -90 315 -30 105 -77 269
-104 365 -175 612 -269 938 -317 1100 l-42 145 -215 3 c-118 1 -217 -1 -221
-4z"/>
<path d="M23440 2510 l0 -1850 558 0 557 0 60 29 c74 34 136 102 165 178 20
54 20 64 18 1651 l-3 1597 -28 57 c-33 67 -90 121 -166 157 l-56 26 -552 3
-553 3 0 -1851z m870 -5 l0 -1355 -190 0 -190 0 0 1355 0 1355 190 0 190 0 0
-1355z"/>
<path d="M26144 4351 c-58 -15 -127 -56 -166 -101 -79 -90 -73 -6 -73 -955 0
-807 1 -852 19 -887 28 -58 89 -121 147 -153 l54 -30 323 -3 322 -3 0 -535 0
-534 -190 0 -190 0 0 245 c0 172 -3 245 -11 245 -15 0 -299 -57 -369 -75 -30
-7 -67 -16 -82 -19 l-28 -6 0 -319 0 -318 30 -61 c36 -71 92 -125 165 -158
l53 -25 449 3 450 3 59 36 c82 51 138 133 154 226 8 49 11 268 8 793 l-3 725
-23 57 c-15 36 -41 73 -72 104 -100 97 -131 104 -492 104 l-288 0 0 575 0 575
190 0 190 0 0 -235 0 -235 38 6 c20 3 132 27 247 53 l210 47 0 305 0 304 -33
67 c-37 76 -82 120 -162 157 l-55 26 -420 2 c-231 1 -434 -2 -451 -6z"/>
<path d="M27810 4320 l0 -40 55 0 55 0 0 -210 0 -210 35 0 35 0 0 211 0 210
53 -2 52 -3 3 42 3 42 -145 0 -146 0 0 -40z"/>
<path d="M28160 4110 l0 -250 40 0 40 0 1 108 c1 59 3 98 6 87 22 -96 22 -96
56 -93 29 3 34 8 49 53 l17 50 1 -102 0 -103 40 0 40 0 0 251 0 250 -37 -3
-38 -3 -35 -109 -36 -109 -11 39 c-6 21 -21 72 -33 112 l-21 72 -39 0 -40 0 0
-250z"/>
<path d="M4300 2706 c0 -1 11 -48 24 -102 13 -54 36 -163 51 -241 l28 -143
2573 0 2574 0 0 245 0 245 -2625 0 c-1444 0 -2625 -2 -2625 -4z"/>
<path d="M29190 2465 l0 -245 2569 0 c2439 0 2570 1 2574 18 3 9 8 35 12 57 3
22 24 120 46 218 21 98 39 183 39 188 0 5 -1032 9 -2620 9 l-2620 0 0 -245z"/>
</g>
</svg>
