<?xml version="1.0" standalone="no"?>
<!DOCTYPE svg PUBLIC "-//W3C//DTD SVG 20010904//EN"
 "http://www.w3.org/TR/2001/REC-SVG-20010904/DTD/svg10.dtd">
<svg version="1.0" xmlns="http://www.w3.org/2000/svg"
 width="230.000000pt" height="230.000000pt" viewBox="0 0 230.000000 230.000000"
 preserveAspectRatio="xMidYMid meet">

<g transform="translate(0.000000,230.000000) scale(0.100000,-0.100000)"
fill="#000000" stroke="none">
<path d="M1007 2211 c-46 -10 -60 -27 -88 -109 -16 -47 -28 -66 -49 -77 -26
-13 -32 -13 -59 2 -31 18 -51 50 -51 83 0 10 -9 22 -20 25 -11 4 -33 17 -49
30 -24 21 -31 23 -46 11 -17 -12 -16 -17 19 -80 20 -36 34 -71 30 -77 -4 -6
-9 -7 -13 -2 -6 9 -44 28 -113 56 -52 22 -98 5 -168 -59 l-56 -52 8 -94 c10
-104 1 -138 -33 -138 -30 0 -75 29 -88 57 -6 13 -15 22 -20 19 -18 -12 -99
-163 -130 -241 -41 -109 -58 -181 -71 -308 -24 -235 28 -468 152 -684 41 -71
43 -74 57 -54 7 12 20 21 27 21 8 0 14 5 14 10 0 6 6 10 14 10 19 0 13 50 -14
124 -17 43 -19 61 -11 69 21 21 45 -7 54 -59 6 -32 5 -50 -2 -52 -18 -6 -12
-22 8 -22 30 0 35 -19 13 -43 l-20 -22 28 -34 c23 -26 27 -38 19 -52 -6 -12
-5 -41 3 -85 12 -60 18 -71 61 -110 303 -272 778 -347 1177 -185 162 66 361
213 380 279 15 56 12 99 -10 142 -23 46 -26 70 -6 70 21 0 85 -29 117 -53 29
-20 29 -21 43 -1 35 47 97 177 126 264 78 236 78 485 -1 720 -48 144 -120 272
-208 371 l-39 44 -11 -27 c-6 -16 -21 -30 -36 -34 -14 -3 -25 -10 -25 -14 0
-5 -9 -6 -19 -3 -19 5 -32 40 -46 130 -12 73 -56 94 -114 53 -30 -22 -50 -51
-85 -125 -25 -53 -46 -100 -46 -105 0 -12 75 -32 118 -32 18 0 45 -6 59 -13
14 -7 31 -11 37 -9 13 5 56 69 56 84 0 5 5 10 10 10 15 0 11 -69 -5 -115 -8
-22 -15 -50 -15 -63 l0 -23 22 21 c42 39 48 24 48 -115 l0 -103 40 -48 c22
-27 39 -56 38 -64 -4 -21 -70 -25 -107 -6 -16 9 -34 16 -38 16 -8 0 -16 -78
-15 -140 3 -94 3 -196 1 -205 -1 -5 3 -23 9 -38 16 -38 15 -82 -1 -96 -8 -6
-17 -8 -20 -5 -3 3 -12 2 -19 -2 -9 -6 -6 -10 12 -14 14 -4 24 -13 22 -20 -2
-7 4 -21 13 -30 15 -16 12 -16 -24 2 -22 11 -50 18 -63 15 l-23 -4 22 -8 c27
-9 21 -22 -15 -37 -15 -6 -22 -12 -15 -15 7 -2 10 -10 7 -16 -2 -7 6 -24 20
-38 41 -45 48 -65 36 -110 -11 -40 -20 -52 -75 -98 -24 -20 -31 -22 -47 -12
-40 25 -131 -16 -161 -72 -26 -48 -77 -72 -153 -71 -34 1 -70 5 -81 9 -10 5
-27 9 -37 9 -27 1 -30 39 -6 90 28 59 16 89 -42 108 -49 16 -90 15 -139 -6
-33 -14 -82 -76 -59 -76 6 0 9 -4 5 -9 -3 -5 -1 -12 4 -15 8 -6 6 -55 -4 -64
-9 -10 -129 -19 -154 -12 -35 10 -103 79 -97 97 3 7 1 13 -4 13 -6 0 -18 8
-29 19 -14 14 -38 20 -94 24 -44 3 -92 13 -114 23 -33 17 -38 23 -36 52 1 39
33 77 71 87 15 4 29 11 33 16 3 5 39 13 80 18 41 5 84 13 95 19 37 20 92 42
106 42 10 0 9 3 -2 10 -12 8 -11 10 8 10 12 0 22 -4 22 -9 0 -16 46 -5 78 18
17 12 46 27 64 33 59 21 71 39 64 100 -4 36 -3 47 3 33 7 -14 10 -15 10 -5 1
9 -9 31 -22 50 -19 26 -22 41 -17 69 10 59 7 96 -10 96 -8 0 -14 -7 -12 -15 1
-9 -5 -7 -17 8 -11 12 -27 22 -36 22 -9 0 -14 4 -10 9 3 5 1 12 -5 16 -5 3
-10 -1 -10 -11 0 -13 -3 -14 -13 -5 -11 8 -13 7 -12 -7 0 -9 5 -24 10 -32 8
-13 6 -13 -8 -1 -9 7 -14 18 -11 25 3 6 -2 2 -10 -8 -14 -18 -14 -21 2 -40 9
-10 12 -16 5 -13 -7 5 -9 0 -6 -13 3 -11 8 -20 12 -20 3 0 7 -20 8 -44 2 -41
0 -44 -20 -39 -12 2 -33 7 -47 10 -14 3 -30 10 -37 15 -11 9 -91 52 -168 91
-22 11 -53 29 -70 41 -16 11 -32 20 -35 19 -5 -2 -25 11 -76 50 -13 10 -24 23
-24 29 0 6 -7 19 -16 29 -14 15 -14 22 -1 61 15 41 14 43 -6 55 -12 7 -36 12
-53 13 l-31 0 -3 73 c-1 39 -3 88 -4 107 -2 20 0 44 4 54 5 17 9 15 31 -11 13
-17 30 -39 38 -50 8 -13 21 -19 32 -16 13 4 19 0 19 -11 0 -10 8 -16 21 -16
19 0 19 1 4 17 -16 16 -16 18 1 30 21 16 59 10 81 -12 19 -20 26 -19 40 5 10
15 10 22 -2 34 -17 17 -20 30 -5 21 6 -3 10 1 10 9 0 9 8 16 18 17 9 0 25 2
35 4 9 2 15 -1 11 -6 -3 -5 1 -9 8 -9 7 0 31 -14 53 -32 23 -18 32 -22 21 -10
-11 12 -15 22 -11 22 4 0 0 9 -10 20 -27 30 -5 24 28 -7 16 -16 28 -23 27 -18
-6 28 3 27 30 -5 38 -44 39 -35 2 12 -15 19 -32 33 -38 31 -5 -2 -21 8 -34 22
-25 26 -14 34 20 13 24 -15 37 -4 20 17 -7 8 -9 15 -5 15 9 0 44 -42 45 -53 0
-5 -6 -5 -12 -1 -7 4 6 -13 30 -37 70 -71 87 -90 85 -95 -3 -4 57 -64 64 -64
2 0 1 10 -2 23 -3 12 -8 38 -10 57 -7 45 -10 59 -29 150 -21 98 -20 106 9 136
14 14 25 29 25 34 0 6 4 10 8 10 5 0 24 14 42 30 18 17 40 30 47 30 7 0 13 6
13 14 0 8 7 17 16 20 22 9 24 8 24 -9 0 -8 9 -15 19 -15 11 0 21 -3 23 -7 2
-5 19 -17 39 -28 35 -19 109 -104 109 -125 0 -5 7 -7 15 -4 12 5 13 2 8 -12
-15 -39 76 47 131 124 89 123 156 226 156 240 0 14 -26 16 -35 3 -3 -5 -19
-12 -35 -16 -34 -7 -39 -14 -46 -52 -6 -32 -17 -47 -55 -74 -26 -18 -29 -18
-57 -2 -16 9 -35 32 -42 51 -10 29 -23 36 -26 14 0 -4 -4 -15 -8 -25 -5 -9 -5
-28 -2 -42 l6 -24 -25 23 c-16 15 -45 27 -78 32 -47 7 -89 9 -264 13 -29 1
-53 6 -53 11 0 6 3 9 8 9 19 -3 33 2 28 10 -9 13 42 24 102 22 31 -2 59 3 68
10 12 10 20 10 35 1 14 -9 31 -9 65 -2 25 6 49 8 54 5 4 -2 13 2 20 10 7 8 16
12 21 9 15 -9 9 10 -9 32 -10 11 -29 23 -42 27 -42 10 -262 16 -303 8z m143
-76 c0 -8 -4 -15 -10 -15 -5 0 -7 7 -4 15 4 8 8 15 10 15 2 0 4 -7 4 -15z
m-413 -157 c37 -41 75 -110 69 -125 -4 -9 -14 -13 -26 -10 -11 3 -18 1 -15 -3
8 -13 -6 -41 -16 -34 -6 3 -7 14 -4 24 4 12 -1 23 -12 30 -16 11 -17 11 0 6
13 -4 17 0 17 21 0 23 -2 24 -17 12 -15 -12 -16 -12 -10 4 3 9 2 17 -3 17 -16
0 -41 46 -34 64 9 22 27 20 51 -6z m-308 -758 c9 -18 2 -88 -9 -95 -5 -3 -11
8 -15 25 -4 16 -11 30 -16 30 -12 0 -11 16 2 65 11 39 12 39 21 15 6 -14 13
-32 17 -40z m1599 -20 c15 -50 15 -83 0 -98 -27 -27 -70 -5 -82 41 -5 22 -1
32 18 51 19 17 23 25 14 34 -9 9 -6 12 13 12 19 0 26 -8 37 -40z m-1698 -9
c-17 -33 -12 -51 20 -69 36 -20 37 -52 2 -67 -12 -5 -20 -16 -17 -22 2 -7 1
-13 -4 -13 -17 0 -32 29 -35 66 -4 39 22 124 37 124 4 0 3 -9 -3 -19z m154
-37 c5 -12 2 -15 -10 -10 -8 3 -18 6 -20 6 -3 0 -2 5 1 10 9 15 22 12 29 -6z
m556 6 c0 -5 -4 -10 -10 -10 -5 0 -10 5 -10 10 0 6 5 10 10 10 6 0 10 -4 10
-10z m-495 -62 c25 -12 45 -26 45 -31 0 -4 3 -6 8 -4 4 3 8 -14 10 -37 7 -96
17 -132 38 -140 19 -7 18 -35 -1 -42 -8 -4 -15 -15 -15 -25 0 -16 -7 -19 -42
-18 -82 2 -93 9 -96 58 -1 25 -12 58 -23 75 -12 17 -18 23 -15 13 3 -11 2 -16
-4 -12 -6 3 -10 17 -10 31 0 14 4 22 10 19 6 -4 10 5 10 21 0 15 7 35 16 45 9
10 17 29 18 43 0 14 2 26 3 26 1 0 23 -10 48 -22z m452 -7 l1 -26 -12 23 c-7
12 -16 19 -21 15 -4 -4 -5 -3 -2 3 11 20 32 11 34 -15z m27 3 c3 -8 2 -12 -4
-9 -6 3 -10 10 -10 16 0 14 7 11 14 -7z m-340 -61 c57 -27 69 -46 60 -92 -13
-62 90 -99 141 -51 l23 21 16 -22 c23 -34 20 -43 -19 -62 -97 -46 -206 2 -257
113 -20 44 -35 120 -24 120 3 0 30 -12 60 -27z m1356 -12 c16 -30 12 -59 -9
-71 -24 -12 -44 -13 -37 -1 3 5 -2 8 -12 7 -12 -1 -18 8 -20 27 -6 48 56 78
78 38z m-1165 -91 c3 -5 13 -7 23 -4 14 5 15 4 2 -5 -22 -16 -50 -13 -50 4 0
8 -4 15 -10 15 -5 0 -10 5 -10 10 0 12 35 -3 45 -20z m-401 -26 c3 -8 2 -12
-4 -9 -6 3 -10 10 -10 16 0 14 7 11 14 -7z m-125 -121 c10 -37 15 -62 26 -120
l6 -28 -21 25 c-11 14 -20 29 -20 34 0 5 -11 24 -25 42 -30 39 -30 42 -8 66
23 26 31 23 42 -19z m424 10 c-13 -2 -33 -2 -45 0 -13 2 -3 4 22 4 25 0 35 -2
23 -4z m-363 -42 c0 -13 -26 -32 -33 -24 -14 13 -6 33 13 33 11 0 20 -4 20 -9z
m-4 -166 c-7 -18 -26 -20 -26 -2 0 18 24 41 28 27 2 -6 1 -17 -2 -25z m818
-73 c11 -18 -23 -33 -66 -30 -28 2 -44 8 -46 18 -2 12 10 16 52 18 30 2 57 -1
60 -6z"/>
<path d="M680 1649 c0 -5 5 -7 10 -4 6 3 10 8 10 11 0 2 -4 4 -10 4 -5 0 -10
-5 -10 -11z"/>
<path d="M734 1611 c10 -11 15 -24 12 -30 -4 -5 -1 -13 5 -17 7 -4 9 -3 5 4
-3 6 -1 14 4 17 12 8 -16 45 -33 45 -6 0 -2 -9 7 -19z"/>
<path d="M843 1595 c0 -8 4 -12 9 -9 5 3 6 10 3 15 -9 13 -12 11 -12 -6z"/>
<path d="M540 1593 c1 -18 19 -35 29 -28 9 5 9 10 0 21 -12 15 -29 19 -29 7z"/>
<path d="M770 1548 c1 -16 60 -87 60 -72 0 6 -9 19 -20 29 -11 10 -20 24 -20
31 0 7 -4 16 -10 19 -5 3 -10 0 -10 -7z"/>
<path d="M596 1515 c4 -8 10 -12 15 -9 11 6 2 24 -11 24 -5 0 -7 -7 -4 -15z"/>
<path d="M460 1500 c0 -18 3 -19 21 -9 17 9 19 13 8 20 -22 14 -29 11 -29 -11z"/>
<path d="M831 1466 c-17 -20 -6 -35 19 -29 11 3 28 2 37 -3 10 -4 20 -8 23 -8
3 -1 12 -5 20 -10 12 -7 13 -7 2 5 -7 8 -16 14 -20 14 -11 1 -56 27 -63 37 -3
5 -11 2 -18 -6z"/>
<path d="M545 1462 c-29 -6 -66 -33 -59 -43 8 -14 62 -11 67 4 3 9 9 7 24 -5
11 -10 27 -18 36 -18 14 0 15 3 6 18 -17 27 -52 48 -74 44z"/>
<path d="M901 1468 c2 -2 18 -14 34 -28 l30 -25 -24 28 c-14 15 -29 27 -34 27
-6 0 -8 -1 -6 -2z"/>
<path d="M990 1455 c0 -2 11 -21 25 -41 14 -20 25 -50 25 -65 0 -16 9 -43 20
-61 l20 -33 0 33 c0 17 -4 32 -10 32 -5 0 -10 14 -10 31 0 22 -11 43 -35 70
-19 22 -35 37 -35 34z"/>
<path d="M777 1429 c7 -7 15 -10 18 -7 3 3 -2 9 -12 12 -14 6 -15 5 -6 -5z"/>
<path d="M840 1406 c0 -2 8 -10 18 -17 15 -13 16 -12 3 4 -13 16 -21 21 -21
13z"/>
<path d="M947 1377 c3 -15 9 -30 14 -33 14 -8 10 20 -5 41 -13 18 -14 18 -9
-8z"/>
<path d="M770 1370 c0 -5 5 -10 10 -10 6 0 10 5 10 10 0 6 -4 10 -10 10 -5 0
-10 -4 -10 -10z"/>
<path d="M918 1289 c6 -9 9 -19 4 -23 -4 -4 2 -12 12 -18 13 -7 15 -12 6 -18
-12 -8 -60 10 -60 23 0 4 -5 7 -11 7 -23 0 15 -86 42 -93 19 -5 36 24 24 43
-3 5 1 10 9 10 18 0 21 16 6 25 -6 4 -8 10 -5 14 2 5 -5 17 -18 27 -13 12 -17
13 -9 3z m2 -80 c0 -6 -4 -7 -10 -4 -5 3 -10 11 -10 16 0 6 5 7 10 4 6 -3 10
-11 10 -16z"/>
<path d="M827 1279 c7 -7 15 -10 18 -7 3 3 -2 9 -12 12 -14 6 -15 5 -6 -5z"/>
<path d="M1080 1224 c0 -14 4 -23 9 -20 5 3 7 15 4 26 -7 28 -13 25 -13 -6z"/>
<path d="M1760 1165 c-19 -14 -38 -25 -42 -25 -5 0 -39 -24 -76 -53 -37 -29
-88 -65 -114 -80 -36 -21 -45 -31 -41 -47 4 -14 0 -20 -11 -20 -9 0 -16 -7
-16 -15 0 -20 44 -19 76 2 25 16 26 16 23 -2 -2 -11 -17 -26 -32 -35 -25 -14
-30 -13 -58 3 -41 23 -56 22 -34 -3 20 -22 74 -27 107 -9 28 15 50 72 39 102
-8 19 -4 26 23 44 17 12 43 25 59 28 22 6 27 4 28 -11 5 -86 -40 -166 -123
-218 -33 -22 -129 -19 -173 3 -16 9 -31 17 -33 17 -2 1 0 13 3 27 4 14 18 30
34 36 15 7 39 23 55 36 25 22 27 25 11 31 -10 4 -23 3 -30 -2 -68 -50 -95 -55
-95 -15 0 11 -5 23 -10 26 -16 10 -60 -22 -60 -43 0 -14 -2 -14 -9 -3 -7 11
-11 9 -21 -9 -6 -12 -9 -24 -6 -28 3 -3 6 1 6 8 0 7 3 10 6 7 4 -4 1 -13 -5
-21 -10 -12 0 -20 61 -51 130 -64 226 -76 294 -36 26 15 39 19 44 11 4 -6 26
-10 51 -8 40 3 44 5 41 27 -1 13 2 29 8 36 14 17 22 55 35 169 3 27 12 61 20
77 31 59 14 80 -35 44z"/>
<path d="M910 1142 c6 -13 14 -21 18 -18 3 4 -2 14 -12 24 -18 16 -18 16 -6
-6z"/>
<path d="M1112 1075 c6 -14 13 -24 14 -22 6 6 -9 47 -17 47 -5 0 -3 -11 3 -25z"/>
</g>
</svg>
