<?xml version="1.0" standalone="no"?>
<!DOCTYPE svg PUBLIC "-//W3C//DTD SVG 20010904//EN"
 "http://www.w3.org/TR/2001/REC-SVG-20010904/DTD/svg10.dtd">
<svg version="1.0" xmlns="http://www.w3.org/2000/svg"
 width="304.000000pt" height="173.000000pt" viewBox="0 0 304.000000 173.000000"
 preserveAspectRatio="xMidYMid meet">

<g transform="translate(0.000000,173.000000) scale(0.100000,-0.100000)"
fill="#000000" stroke="none">
<path d="M1705 1620 c-36 -10 232 -9 285 0 19 4 -30 7 -110 7 -80 0 -158 -3
-175 -7z"/>
<path d="M1360 1576 c-47 -7 -76 -14 -65 -17 14 -3 1 -11 -43 -28 -35 -12
-100 -47 -143 -77 -44 -30 -87 -54 -95 -54 -15 0 -96 -21 -220 -56 -28 -8 -58
-14 -67 -14 -9 0 -18 -4 -21 -8 -3 -5 22 -8 54 -6 33 1 63 -2 66 -7 3 -6 20
-7 37 -3 18 4 40 7 49 6 10 0 23 8 28 19 11 20 30 26 30 10 0 -6 -11 -22 -25
-37 -19 -20 -30 -25 -50 -20 -21 5 -41 -3 -95 -39 -38 -26 -72 -50 -75 -55 -3
-4 -38 -21 -78 -36 -69 -26 -127 -70 -120 -91 2 -6 -10 -16 -27 -21 -16 -6
-30 -8 -30 -4 0 4 -4 2 -8 -3 -4 -6 -20 -16 -35 -23 -15 -7 -25 -17 -22 -22 3
-6 -1 -7 -10 -4 -11 5 -14 2 -9 -10 4 -10 1 -16 -7 -16 -7 0 -9 -3 -6 -6 4 -4
17 0 29 8 27 17 68 29 68 20 -1 -4 -35 -23 -77 -42 -43 -19 -88 -45 -102 -57
l-24 -23 24 0 c20 0 21 -2 9 -11 -12 -9 -11 -10 5 -4 11 4 44 16 74 26 43 15
56 16 63 7 5 -9 8 -8 8 5 0 10 5 15 10 12 6 -4 17 -1 25 5 8 7 22 9 31 6 16
-6 16 -8 0 -24 -9 -10 -16 -23 -16 -29 0 -6 -7 -14 -16 -17 -9 -4 -14 -9 -10
-13 3 -3 -11 -14 -31 -24 -21 -9 -32 -18 -24 -18 11 -1 11 -4 0 -18 -11 -15
-11 -16 1 -5 25 22 32 13 13 -18 -9 -17 -25 -32 -34 -35 -10 -3 -20 -12 -23
-20 -3 -10 0 -12 11 -8 12 5 14 3 8 -6 -4 -7 -8 -35 -9 -62 -1 -40 2 -49 16
-49 24 0 31 -16 18 -40 -8 -15 -8 -20 1 -20 6 0 13 9 16 20 5 17 14 20 68 20
50 0 69 5 99 25 21 14 52 31 70 39 19 8 37 19 40 25 4 6 16 11 28 11 16 0 18
-3 9 -13 -6 -8 -8 -17 -4 -21 10 -10 -14 -23 -73 -41 -54 -16 -117 -45 -97
-45 6 0 31 8 55 19 24 10 59 22 78 26 53 11 25 -10 -40 -30 -78 -24 -240 -92
-275 -115 -36 -24 -31 -25 25 -5 45 16 71 12 29 -4 -94 -35 -195 -93 -220
-125 l-23 -29 30 7 29 7 -25 -20 c-14 -11 -37 -26 -52 -32 -16 -6 -28 -15 -28
-20 0 -5 -6 -9 -14 -9 -8 0 -16 -7 -20 -15 -6 -17 9 -21 19 -5 10 15 76 41 87
34 9 -6 -42 -36 -65 -38 -4 -1 -11 -6 -15 -11 -4 -6 -18 -16 -32 -23 -34 -18
-94 -68 -62 -52 12 6 28 8 34 4 6 -4 8 -3 5 3 -7 12 20 26 33 18 4 -3 19 -1
32 4 12 6 17 10 10 10 -7 1 -10 6 -7 11 3 6 17 7 31 4 14 -4 23 -2 22 2 -2 5
2 10 7 11 6 1 9 -5 9 -13 -2 -19 9 -18 56 6 23 12 40 16 40 10 0 -7 6 -8 16
-2 9 5 27 7 41 4 23 -4 23 -5 -14 -29 -30 -19 -32 -23 -13 -18 24 6 25 6 5
-10 -11 -9 -29 -23 -39 -31 -30 -21 -12 -28 25 -9 18 10 48 19 68 20 20 2 51
6 70 10 24 5 31 3 26 -5 -4 -6 7 -4 25 5 46 24 50 10 4 -17 -55 -33 -20 -35
51 -3 64 28 74 30 57 13 -18 -18 -14 -27 10 -20 15 3 19 2 14 -7 -5 -8 6 -6
31 5 217 94 196 90 458 96 23 1 79 -13 130 -32 77 -28 107 -34 205 -37 207 -9
389 55 533 187 49 45 59 50 101 50 26 0 60 -7 76 -15 41 -21 123 -22 154 -1
14 9 26 21 26 26 0 5 10 8 23 8 73 -4 101 16 60 42 -14 9 -10 10 20 5 27 -4
37 -3 32 4 -3 6 -13 11 -22 11 -11 0 -14 6 -10 21 4 14 -1 23 -16 29 -21 8
-21 8 6 19 16 6 40 11 55 11 21 0 24 2 12 10 -8 5 -25 10 -38 10 -14 0 -20 4
-17 10 4 6 24 9 46 7 32 -3 37 -1 28 9 -6 8 -14 12 -18 10 -3 -2 -14 -1 -24 3
-17 6 -15 12 17 60 20 29 36 59 36 67 0 8 4 14 9 14 5 0 11 10 15 23 3 12 15
37 26 55 16 26 24 31 38 23 12 -6 28 -5 51 5 29 12 32 16 20 30 -10 12 -10 17
-1 23 9 5 5 11 -13 19 -29 13 -30 18 -10 65 12 30 21 37 61 45 26 6 58 8 72 6
22 -4 24 -3 12 10 -7 9 -16 13 -21 10 -14 -8 -44 13 -44 32 0 19 -23 27 -107
39 -49 6 -67 25 -25 25 19 1 17 3 -13 23 -20 12 -47 31 -61 42 -25 19 -25 21
-12 54 48 114 -68 177 -186 101 -29 -18 -58 -41 -66 -52 -14 -20 -14 -20 -42
2 -24 18 -36 21 -78 15 -45 -5 -53 -3 -72 17 -21 24 -27 58 -10 58 6 0 2 9 -8
20 -10 11 -24 20 -32 20 -8 0 -13 12 -13 35 0 22 -8 41 -22 55 -26 24 -38 26
-38 5 0 -8 -4 -15 -9 -15 -5 0 -14 7 -21 15 -7 8 -16 15 -21 15 -5 0 -9 -7 -9
-15 0 -20 -8 -19 -55 9 -67 41 -97 53 -175 71 -96 22 -252 26 -360 11z m116
-374 c-9 -54 -20 -109 -23 -122 -6 -23 -4 -23 25 8 21 23 39 32 54 30 21 -3
23 -9 26 -73 3 -87 7 -101 26 -86 10 9 16 9 21 1 11 -19 -14 -65 -46 -84 -46
-27 -59 -10 -59 80 0 41 -4 74 -10 74 -12 0 -32 -40 -54 -105 -17 -53 -67 -98
-81 -75 -5 8 -13 6 -25 -5 -31 -28 -64 -15 -86 33 -1 2 -13 -8 -27 -22 -14
-14 -37 -28 -52 -32 -15 -4 -49 -22 -77 -40 -27 -19 -54 -34 -59 -34 -19 0
-59 53 -65 87 -6 34 -1 102 12 153 3 14 -23 -20 -59 -75 -85 -131 -103 -154
-144 -173 -63 -30 -64 -10 -4 171 30 89 57 169 59 177 5 12 3 13 -10 2 -17
-14 -203 -290 -263 -392 -48 -80 -64 -100 -82 -100 -46 0 -6 83 160 330 159
238 218 300 268 285 20 -7 21 -12 16 -69 -2 -33 -14 -88 -25 -121 -11 -33 -24
-69 -27 -80 -4 -11 13 9 37 45 92 136 129 180 155 180 33 0 37 -19 19 -99 -23
-100 -23 -177 -1 -201 28 -31 39 -24 52 30 7 27 27 73 46 102 32 51 98 118
116 118 24 0 33 -34 31 -112 -3 -107 -3 -107 19 -101 22 6 29 31 62 217 11 65
18 129 15 142 -5 17 1 28 21 44 24 18 28 19 42 6 13 -14 13 -26 -3 -114z m275
61 c8 -23 6 -30 -15 -51 -47 -47 -80 6 -34 55 28 30 36 29 49 -4z m762 12 c21
-20 10 -52 -28 -80 -37 -29 -55 -32 -55 -9 0 12 -3 14 -13 6 -21 -18 -58 -90
-49 -96 5 -3 28 8 53 25 52 34 74 36 91 9 7 -11 18 -20 25 -20 19 0 15 -25 -7
-45 -11 -10 -34 -49 -51 -87 -44 -94 -131 -171 -175 -154 -38 14 19 125 96
187 22 18 40 41 40 51 0 18 -5 16 -55 -12 -30 -17 -62 -30 -72 -28 -9 2 -31
-12 -49 -29 -60 -61 -90 -32 -81 76 l5 66 -20 -25 c-12 -14 -34 -53 -51 -88
-20 -44 -38 -67 -55 -73 -41 -16 -46 2 -23 83 27 94 27 102 2 86 -10 -6 -21
-27 -24 -45 -13 -78 -103 -163 -174 -163 -50 0 -68 34 -54 100 6 28 17 65 25
84 34 82 176 132 200 71 5 -15 12 -12 47 20 48 43 72 43 79 -4 l5 -33 25 27
c67 72 92 55 83 -56 -6 -77 -5 -79 16 -79 13 0 19 4 16 11 -21 33 101 195 168
224 41 18 43 18 60 0z m-768 -167 c0 -41 3 -47 18 -42 26 8 22 -28 -7 -55 -14
-13 -30 -45 -36 -75 -16 -65 -63 -167 -90 -191 -18 -16 -22 -17 -35 -4 -19 19
-5 72 42 156 25 46 35 78 38 120 3 35 1 47 -3 31 -13 -49 -52 -83 -67 -58 -21
35 78 174 119 168 18 -3 21 -10 21 -50z m-1168 -16 c0 -10 -9 -18 -19 -18 -16
0 -16 2 -1 18 9 10 17 18 19 18 1 0 2 -8 1 -18z m-28 -76 c-15 -13 -49 -25
-49 -17 0 5 8 12 18 14 24 6 36 8 31 3z m2063 -32 c15 -4 29 -13 32 -21 3 -8
-67 -144 -158 -306 -156 -279 -165 -292 -195 -295 -41 -4 -41 18 -2 96 16 31
51 109 79 172 28 63 78 173 112 244 55 116 63 127 83 122 12 -4 34 -9 49 -12z
m-2142 -58 c0 -2 -7 -7 -16 -10 -8 -3 -12 -2 -9 4 6 10 25 14 25 6z m1793 -89
c-1 -29 -15 -75 -43 -133 -42 -91 -61 -176 -42 -188 12 -7 46 22 54 45 2 7 11
10 22 6 13 -5 16 -13 11 -29 -21 -66 -121 -114 -155 -73 -26 32 0 165 65 335
18 45 62 93 80 86 6 -2 9 -24 8 -49z m-1806 -53 c-3 -3 -12 -4 -19 -1 -8 3 -5
6 6 6 11 1 17 -2 13 -5z m991 -10 c45 -31 17 -100 -77 -187 -28 -26 -51 -49
-51 -51 0 -2 16 -7 35 -10 68 -13 85 -96 34 -165 -71 -97 -320 -179 -431 -142
-46 15 -65 54 -43 87 20 31 99 84 124 84 29 0 27 -28 -5 -61 l-26 -28 37 -7
c112 -21 263 42 253 107 -3 24 -64 50 -148 63 -93 14 -136 64 -110 126 27 65
171 165 275 190 52 13 110 11 133 -6z m628 -88 c3 -8 -6 -34 -20 -59 -37 -62
-32 -139 7 -124 25 9 28 -21 4 -43 -24 -23 -60 -35 -81 -27 -8 3 -17 19 -21
36 -8 38 -14 39 -50 1 -50 -52 -135 -64 -135 -20 0 11 11 45 25 76 28 63 31
80 13 86 -15 5 21 39 67 64 27 14 37 16 47 6 9 -9 5 -25 -19 -74 -17 -35 -35
-77 -39 -93 l-7 -30 34 26 c19 14 48 50 65 80 53 91 97 129 110 95z m-497 -27
c7 10 12 8 25 -10 9 -13 16 -33 16 -45 0 -21 2 -21 38 -8 54 19 65 18 57 -7
-5 -15 -4 -19 4 -15 6 4 11 2 11 -3 0 -13 -32 -47 -51 -53 -10 -3 -6 -13 14
-37 31 -37 34 -51 11 -51 -8 0 -12 -4 -9 -10 15 -23 -61 -1 -76 23 -4 5 -14
-4 -24 -20 -22 -37 -55 -60 -55 -38 0 9 -6 12 -16 8 -14 -5 -16 -1 -12 23 3
16 9 37 13 47 5 13 2 17 -13 17 -12 0 -33 5 -49 11 -22 8 -24 12 -13 20 13 8
13 10 1 18 -19 12 17 31 61 31 33 0 33 1 30 40 -5 51 5 81 19 60 7 -12 10 -13
18 -1z m711 -19 c0 -5 -4 -10 -10 -10 -5 0 -10 5 -10 10 0 6 5 10 10 10 6 0
10 -4 10 -10z m-106 -296 c4 -11 -4 -14 -34 -14 -40 0 -49 7 -29 27 13 13 56
5 63 -13z"/>
<path d="M1226 987 c-36 -76 -31 -110 8 -45 17 30 26 57 24 75 -4 26 -6 24
-32 -30z"/>
<path d="M1891 1108 c-38 -40 -42 -131 -6 -136 41 -6 85 114 53 146 -17 17
-24 15 -47 -10z"/>
<path d="M2381 935 c-13 -20 -21 -38 -18 -41 6 -6 47 54 47 69 0 12 -4 8 -29
-28z"/>
<path d="M2422 648 c-17 -17 -15 -48 2 -48 18 0 32 38 19 51 -5 5 -14 4 -21
-3z"/>
<path d="M1279 706 c-76 -27 -139 -79 -139 -114 0 -17 52 -38 117 -46 44 -6
52 -4 47 8 -3 8 10 35 30 62 42 55 47 89 14 98 -29 7 -26 8 -69 -8z"/>
<path d="M1238 1553 c6 -2 18 -2 25 0 6 3 1 5 -13 5 -14 0 -19 -2 -12 -5z"/>
<path d="M856 1515 c-10 -26 -7 -60 6 -73 22 -22 29 -12 26 35 -3 47 -20 67
-32 38z"/>
<path d="M785 1300 c-3 -5 -1 -10 4 -10 6 0 11 5 11 10 0 6 -2 10 -4 10 -3 0
-8 -4 -11 -10z"/>
<path d="M584 1254 c-18 -14 -18 -15 4 -4 12 6 22 13 22 15 0 8 -5 6 -26 -11z"/>
<path d="M296 1071 c-9 -14 55 -61 83 -61 18 0 7 44 -14 57 -23 14 -62 17 -69
4z"/>
<path d="M2970 864 c-38 -16 -50 -30 -50 -57 0 -12 6 -17 18 -15 9 2 16 -3 15
-9 -4 -18 7 -16 45 7 26 16 32 26 32 55 0 39 -8 42 -60 19z"/>
<path d="M54 765 c-10 -16 -14 -34 -10 -50 6 -24 26 -36 26 -15 0 5 6 7 14 4
19 -7 32 52 16 71 -17 21 -27 19 -46 -10z"/>
<path d="M375 770 c-3 -6 1 -7 9 -4 18 7 21 14 7 14 -6 0 -13 -4 -16 -10z"/>
<path d="M2930 722 c-17 -21 -17 -57 0 -67 13 -8 70 52 70 73 0 28 -47 24 -70
-6z"/>
<path d="M77 649 c-17 -10 -18 -12 -1 -30 15 -17 15 -19 0 -25 -24 -9 -20 -19
22 -48 47 -32 92 -34 128 -3 l26 23 -27 32 c-47 55 -106 76 -148 51z"/>
<path d="M2715 650 c3 -5 8 -10 11 -10 2 0 4 5 4 10 0 6 -5 10 -11 10 -5 0 -7
-4 -4 -10z"/>
<path d="M2596 635 c4 -8 10 -15 15 -15 5 0 9 7 9 15 0 8 -7 15 -15 15 -9 0
-12 -6 -9 -15z"/>
<path d="M2720 564 c0 -14 3 -14 15 -4 8 7 15 14 15 16 0 2 -7 4 -15 4 -8 0
-15 -7 -15 -16z"/>
<path d="M2170 227 c0 -8 7 -17 15 -21 8 -3 15 -2 15 3 0 5 -7 14 -15 21 -12
10 -15 10 -15 -3z"/>
</g>
</svg>
