<?xml version="1.0" standalone="no"?>
<!DOCTYPE svg PUBLIC "-//W3C//DTD SVG 20010904//EN"
 "http://www.w3.org/TR/2001/REC-SVG-20010904/DTD/svg10.dtd">
<svg version="1.0" xmlns="http://www.w3.org/2000/svg"
 width="385.000000pt" height="250.000000pt" viewBox="0 0 385.000000 250.000000"
 preserveAspectRatio="xMidYMid meet">

<g transform="translate(0.000000,250.000000) scale(0.100000,-0.100000)"
fill="#000000" stroke="none">
<path d="M1510 2315 l0 -185 460 0 460 0 0 185 0 185 -460 0 -460 0 0 -185z
m105 108 c11 -87 22 -94 30 -20 l7 67 39 0 39 0 1 -117 1 -118 14 85 c27 165
20 150 63 150 l39 0 18 -117 19 -118 3 118 3 117 42 0 c23 0 53 -7 65 -16 20
-14 22 -14 22 0 0 11 9 16 29 16 27 0 29 -3 35 -47 17 -121 19 -124 31 -38
l10 80 113 3 112 3 0 -126 0 -125 25 0 c21 0 25 -5 25 -30 l0 -29 -110 0 -109
0 -3 117 -3 117 -19 -117 -18 -118 -33 0 c-36 0 -38 4 -49 75 -4 22 -9 53 -12
68 l-6 29 -15 -28 c-14 -28 -10 -69 13 -128 5 -13 0 -16 -23 -16 -28 0 -31 4
-45 53 l-16 52 -1 -53 -1 -53 -57 3 c-51 3 -58 6 -61 26 -5 31 -38 29 -46 -3
-6 -23 -11 -25 -61 -25 l-55 0 -1 53 -1 52 -10 -52 c-7 -40 -14 -53 -27 -53
-14 0 -20 13 -28 58 l-10 57 -2 -57 c-1 -57 -1 -58 -31 -58 l-30 0 0 155 0
155 39 0 40 0 6 -47z"/>
<path d="M2263 2413 c-34 -7 -32 -59 2 -65 23 -5 25 -2 25 33 0 22 -1 38 -2
38 -2 -1 -13 -4 -25 -6z"/>
<path d="M1950 2364 c0 -40 2 -45 15 -34 16 13 19 38 9 64 -12 31 -24 15 -24
-30z"/>
<path d="M1800 2308 c0 -27 5 -48 10 -48 13 0 13 60 0 80 -7 11 -10 2 -10 -32z"/>
<path d="M2240 2255 c0 -31 3 -35 25 -35 22 0 25 4 25 35 0 31 -3 35 -25 35
-22 0 -25 -4 -25 -35z"/>
<path d="M531 2149 c14 -18 28 -41 31 -50 4 -9 91 -70 195 -134 103 -65 216
-137 251 -159 l63 -41 -5 -44 c-3 -24 -6 -65 -6 -90 l-1 -46 -18 23 c-11 12
-21 19 -23 14 -1 -4 -69 -22 -150 -38 l-148 -31 0 27 c0 15 3 55 6 89 7 59 8
62 30 57 22 -6 24 -3 24 33 0 22 -4 43 -10 46 -5 3 -7 0 -4 -8 4 -11 -9 -14
-58 -14 -35 0 -66 5 -70 11 -4 5 -12 -3 -19 -20 -7 -16 -14 -31 -16 -33 -1 -2
-11 7 -22 20 -11 13 -22 21 -26 18 -12 -12 -19 -189 -7 -189 6 0 13 10 16 23
3 12 3 -23 0 -78 -2 -56 -9 -114 -13 -130 l-9 -30 -1 37 c-1 50 -17 56 -25 10
-15 -91 -10 -95 96 -81 148 19 134 11 142 81 3 34 8 63 10 66 2 2 35 -29 73
-68 l68 -72 94 18 c106 21 111 26 111 118 0 73 10 116 26 116 8 0 14 7 14 16
0 13 3 14 14 5 12 -11 15 -6 18 31 l3 43 36 -70 37 -70 141 -44 c78 -25 145
-49 149 -55 4 -6 23 -103 44 -216 34 -195 36 -201 37 -130 0 41 -6 107 -15
145 -9 39 -16 77 -16 85 -1 41 -80 443 -98 495 -13 41 -18 49 -15 25 7 -47 32
-215 41 -269 6 -36 5 -43 -7 -36 -8 4 -99 60 -202 124 -186 114 -188 116 -184
147 6 38 -16 137 -37 167 -8 12 -26 34 -38 49 l-23 28 3 -105 c3 -58 1 -105
-3 -105 -4 0 -118 69 -253 153 -136 85 -254 158 -262 162 -8 5 -3 -7 11 -26z
m224 -128 c76 -49 150 -102 163 -120 l25 -31 -44 25 c-95 53 -303 191 -307
203 -8 25 27 9 163 -77z m346 -79 c6 -18 9 -35 7 -38 -6 -5 -58 101 -58 118 0
19 38 -41 51 -80z"/>
<path d="M2646 2119 c-10 -17 -16 -33 -13 -36 8 -8 -20 -93 -37 -112 -14 -15
-14 -24 3 -93 17 -71 22 -80 73 -127 l55 -50 12 -108 c19 -175 21 -181 41
-176 15 4 19 -12 34 -154 11 -102 33 -226 62 -351 43 -180 45 -194 30 -211
-16 -17 -15 -19 8 -34 21 -14 31 -44 75 -228 28 -117 50 -213 48 -215 -4 -4
-309 34 -312 38 -1 2 -7 21 -13 43 -46 170 -57 200 -62 170 -5 -26 -9 -19 -24
46 l-18 76 -97 7 c-53 3 -115 6 -138 6 -42 0 -43 0 -43 -35 l0 -35 68 -1 c37
0 87 -4 111 -7 l45 -7 28 -135 c16 -74 32 -138 36 -142 5 -5 82 -16 173 -25
97 -10 170 -22 179 -29 26 -22 217 -54 320 -54 111 1 103 12 -20 30 -47 7 -93
17 -102 21 -10 5 -42 51 -72 102 -51 86 -55 98 -66 189 -11 96 -9 118 11 118
6 0 71 -36 146 -80 136 -80 153 -88 153 -70 0 5 12 13 26 16 22 6 4 18 -137
91 -90 46 -167 87 -170 91 -7 7 -51 374 -46 379 2 1 142 -15 311 -37 l308 -39
95 43 95 44 -73 6 c-41 3 -204 11 -364 16 -159 6 -311 13 -336 16 l-46 6 -6
56 c-4 31 -16 98 -28 147 -14 58 -22 127 -24 195 -1 58 -2 123 -3 145 l-3 40
-29 -35 c-16 -19 -30 -30 -30 -24 0 5 4 14 10 20 6 6 3 68 -10 179 l-20 170
-52 48 c-29 26 -74 65 -99 87 l-45 39 -18 -30z m292 -784 l0 -50 -9 40 c-4 22
-8 63 -7 90 l0 50 9 -40 c4 -22 8 -62 7 -90z"/>
<path d="M2600 2039 c-12 -22 -20 -44 -18 -49 2 -4 13 14 25 41 26 59 21 65
-7 8z"/>
<path d="M2027 1912 c-13 -188 -17 -172 68 -242 49 -40 77 -57 79 -48 3 7 11
64 19 127 l15 114 -26 22 c-15 12 -54 45 -88 73 l-61 51 -6 -97z"/>
<path d="M1471 1914 c0 -11 3 -14 6 -6 3 7 2 16 -1 19 -3 4 -6 -2 -5 -13z"/>
<path d="M1904 1755 c3 -71 10 -161 15 -198 5 -43 5 -92 -1 -130 -13 -82 -22
-344 -11 -334 4 5 11 52 15 105 18 230 19 333 8 437 -6 61 -14 139 -17 175 -9
114 -15 80 -9 -55z"/>
<path d="M3354 1819 c-28 -30 -30 -31 -104 -26 -41 3 -65 3 -53 0 28 -5 25 7
63 -293 17 -135 34 -256 38 -270 7 -22 15 -25 97 -36 103 -14 115 -9 115 44 0
75 -42 337 -58 362 -11 18 -17 52 -18 118 -2 73 -6 98 -20 113 -22 25 -25 24
-60 -12z"/>
<path d="M2415 1558 c-4 -21 -5 -53 -1 -70 3 -18 -1 -97 -8 -174 -15 -153 -12
-206 8 -179 10 13 16 -7 36 -108 l24 -125 51 -4 c27 -2 51 -3 53 -2 2 1 -4 26
-12 55 l-14 54 -2 -40 c-2 -37 -4 -34 -21 35 -27 109 -35 185 -19 175 9 -6 11
1 6 31 -3 22 -9 61 -12 89 -5 37 -9 45 -14 30 -7 -19 -8 -18 -14 5 -4 14 -17
79 -30 145 -21 109 -24 116 -31 83z"/>
<path d="M1682 1431 c-9 -5 5 -15 44 -30 31 -12 59 -20 61 -17 3 3 -80 56 -89
56 -2 0 -9 -4 -16 -9z"/>
<path d="M1361 1235 c0 -81 2 -115 9 -105 7 11 10 -3 10 -47 0 -34 5 -65 11
-69 15 -9 1 -193 -17 -219 -8 -11 -15 -38 -15 -60 -1 -38 -2 -38 -8 -10 -6 27
-9 22 -19 -36 -7 -36 -12 -90 -12 -120 0 -53 -1 -55 -53 -96 -28 -23 -63 -52
-77 -64 -25 -20 -24 -20 7 1 29 19 32 19 26 3 -13 -35 -52 -91 -77 -111 -14
-11 -26 -28 -26 -38 0 -12 17 1 53 41 110 124 154 166 160 151 3 -8 3 -55 0
-105 -7 -104 2 -97 -138 -107 -65 -5 -83 -10 -69 -17 18 -10 210 -4 273 9 l34
7 -6 161 c-3 89 0 248 7 356 l12 195 -38 190 c-21 105 -40 195 -42 200 -3 6
-5 -44 -5 -110z"/>
<path d="M957 1253 c10 -21 26 -49 38 -63 15 -18 15 -21 3 -11 -17 13 -18 8
-18 -77 0 -104 -1 -105 -85 -118 -43 -6 -46 -9 -25 -15 14 -4 19 -7 13 -8 -7
-1 -13 -8 -13 -16 0 -8 6 -15 13 -15 30 -1 -24 -20 -98 -33 l-80 -16 -27 32
c-17 20 -27 44 -28 65 0 19 -6 35 -15 38 -8 3 -76 -4 -151 -16 -75 -12 -148
-19 -163 -16 -14 3 30 -22 99 -56 130 -64 130 -64 268 -59 29 1 112 12 183 25
79 13 128 18 126 12 -2 -6 -46 -42 -98 -79 -52 -38 -93 -74 -91 -79 1 -5 -2
-7 -6 -4 -5 3 -34 -12 -65 -34 -30 -22 -57 -40 -59 -40 -2 0 -1 25 0 54 l4 55
-39 16 -38 16 -57 -59 c-53 -55 -58 -64 -58 -104 0 -24 -7 -68 -16 -98 -9 -29
-13 -65 -10 -79 5 -22 -5 -36 -72 -99 l-77 -73 125 90 c232 168 264 193 275
214 6 12 22 24 36 27 13 3 63 33 111 68 47 34 88 62 90 62 2 0 1 -33 -3 -72
-17 -164 -21 -286 -10 -292 16 -10 13 -68 -5 -94 -16 -23 -72 -33 -57 -9 4 6
-11 -3 -34 -21 -73 -57 -158 -89 -343 -128 -96 -20 -177 -38 -179 -40 -8 -8
144 -4 204 6 123 18 345 69 387 88 23 11 57 33 73 50 17 17 43 32 58 34 15 1
27 7 26 11 0 5 12 23 28 40 25 28 23 27 -20 -7 -26 -21 -50 -37 -51 -35 -2 2
5 126 16 274 l20 270 34 28 c28 24 34 36 34 70 l0 40 24 -23 25 -23 64 46 c36
26 67 55 70 67 6 24 7 24 -89 3 -53 -12 -71 -19 -58 -24 16 -5 13 -8 -16 -16
-40 -11 -71 -6 -48 8 10 7 9 9 -4 9 -15 0 -18 10 -18 63 0 59 -2 63 -33 84
-18 13 -46 45 -62 73 -35 58 -52 66 -28 13z m91 -210 c-10 -2 -26 -2 -35 0
-10 3 -2 5 17 5 19 0 27 -2 18 -5z"/>
<path d="M1000 1246 c0 -2 8 -10 18 -17 15 -13 16 -12 3 4 -13 16 -21 21 -21
13z"/>
<path d="M1040 1213 c0 -6 8 -17 18 -24 16 -13 16 -13 2 6 -8 11 -16 22 -17
24 -2 2 -3 0 -3 -6z"/>
<path d="M2689 1073 c58 -7 112 -11 120 -7 32 13 -23 23 -124 22 l-100 0 104
-15z"/>
<path d="M1902 1045 c-2 -25 -21 -49 -97 -119 -53 -49 -92 -92 -89 -98 4 -7 2
-8 -4 -4 -6 3 -14 1 -19 -6 -4 -7 -47 -49 -95 -92 -49 -43 -88 -83 -88 -89 0
-6 19 7 43 29 23 22 75 66 115 98 39 31 72 61 72 66 0 6 7 10 15 10 8 0 15 7
15 16 0 8 4 12 10 9 5 -3 15 -1 22 4 87 70 105 94 77 103 -7 2 -5 9 5 17 15
12 16 -6 16 -214 l0 -227 -81 -134 -80 -134 -72 0 c-50 0 -67 -3 -57 -10 20
-13 157 -13 165 0 3 5 18 9 33 8 15 -1 44 -1 65 0 l37 2 -2 98 -2 97 -3 -87
-4 -87 -33 -6 c-18 -4 -44 -5 -59 -3 l-26 3 65 107 64 106 -3 284 c-1 155 -3
269 -5 253z m-28 -100 c-5 -13 -26 -25 -51 -31 -19 -3 -16 2 14 30 27 26 46
26 37 1z"/>
<path d="M748 953 c6 -2 18 -2 25 0 6 3 1 5 -13 5 -14 0 -19 -2 -12 -5z"/>
<path d="M3352 808 c11 -88 12 -88 62 -88 37 0 287 78 304 94 2 3 -16 4 -40 5
-23 0 -108 11 -188 25 -79 14 -145 26 -146 26 0 0 3 -28 8 -62z"/>
<path d="M2720 816 c0 -3 20 -19 44 -36 31 -21 47 -27 52 -19 4 8 3 9 -4 5 -7
-4 -12 -3 -12 2 0 4 -18 18 -40 31 -22 12 -40 20 -40 17z"/>
<path d="M1139 373 c-13 -16 -12 -17 4 -4 9 7 17 15 17 17 0 8 -8 3 -21 -13z"/>
<path d="M1990 293 c0 -20 253 -31 295 -13 13 6 -20 9 -91 9 -61 1 -132 4
-158 7 -28 4 -46 3 -46 -3z"/>
</g>
</svg>
