<?xml version="1.0" standalone="no"?>
<!DOCTYPE svg PUBLIC "-//W3C//DTD SVG 20010904//EN"
 "http://www.w3.org/TR/2001/REC-SVG-20010904/DTD/svg10.dtd">
<svg version="1.0" xmlns="http://www.w3.org/2000/svg"
 width="2512.000000pt" height="1240.000000pt" viewBox="0 0 2512.000000 1240.000000"
 preserveAspectRatio="xMidYMid meet">

<g transform="translate(0.000000,1240.000000) scale(0.100000,-0.100000)"
fill="#000000" stroke="none">
<path d="M7605 11950 c-507 -45 -890 -225 -1086 -508 -64 -91 -93 -162 -119
-290 -47 -232 -10 -473 101 -658 75 -125 287 -306 528 -452 64 -39 224 -128
356 -198 279 -148 357 -196 431 -266 78 -74 96 -106 92 -170 -3 -52 -4 -53
-48 -75 -55 -27 -137 -41 -290 -49 l-115 -6 -74 36 c-135 67 -255 211 -546
659 -178 273 -211 311 -288 327 -130 27 -234 -34 -273 -161 -17 -59 -19 -101
-22 -508 -3 -497 -1 -522 62 -584 103 -103 568 -230 980 -268 193 -18 698 -6
836 20 264 48 499 137 640 241 81 60 105 86 168 178 l51 74 27 -44 c79 -125
192 -236 317 -307 74 -42 243 -96 384 -122 96 -18 168 -23 381 -27 285 -4 365
4 536 53 248 72 471 258 588 490 14 28 38 97 52 155 30 114 28 95 62 955 17
432 17 429 68 498 11 16 35 39 53 53 l33 25 102 -42 c57 -23 121 -54 143 -68
36 -24 41 -32 47 -81 4 -30 9 -318 10 -640 l3 -585 -23 -57 c-37 -92 -88 -135
-260 -222 -174 -88 -213 -124 -233 -211 -17 -79 1 -143 57 -199 80 -80 44 -77
1039 -74 683 3 878 6 909 16 96 33 158 147 135 250 -21 96 -73 143 -250 225
-156 73 -239 166 -239 269 0 50 9 58 63 58 97 0 536 111 653 165 139 64 285
182 360 291 l39 57 8 -304 c5 -167 5 -329 2 -359 -6 -51 -11 -59 -64 -110 -45
-43 -79 -65 -149 -93 -108 -46 -171 -86 -194 -125 -58 -99 -33 -229 57 -290
79 -55 -34 -52 2136 -49 1623 2 2011 5 2043 15 21 8 58 33 82 58 l44 44 38
-15 c72 -28 218 -65 337 -86 152 -27 546 -39 632 -19 79 17 137 76 153 154 26
124 -30 222 -157 276 -233 98 -382 234 -493 452 -65 127 -114 199 -185 276
l-54 59 70 48 c171 117 274 323 286 570 5 98 2 123 -22 220 -15 61 -36 128
-47 150 -64 126 -179 242 -307 308 -246 128 -715 165 -1666 133 -345 -12 -768
-16 -1595 -16 -1203 0 -1205 0 -1271 -49 -35 -26 -33 -26 -121 3 -186 60 -163
59 -1187 53 -515 -3 -1171 -6 -1459 -6 -445 0 -531 -2 -586 -16 -58 -15 -69
-15 -124 -1 -51 14 -157 16 -736 16 l-676 0 0 46 c0 68 -20 135 -53 177 -63
81 -386 197 -674 241 -127 20 -375 28 -508 16z m550 -64 c199 -41 495 -135
495 -158 0 -5 4 -7 8 -4 12 7 77 -35 101 -65 28 -36 42 -108 35 -172 l-6 -54
331 -6 c183 -4 493 -4 689 0 368 6 433 2 489 -34 14 -9 23 -10 27 -4 19 30 91
33 896 40 448 3 1119 6 1490 6 746 0 755 -1 919 -66 l73 -29 30 29 c63 62 45
61 1220 61 672 0 1076 -4 1098 -10 22 -6 46 -6 70 0 19 6 274 17 565 26 561
17 843 12 1125 -21 201 -24 373 -69 455 -122 174 -111 258 -222 306 -403 54
-207 10 -462 -109 -623 -55 -73 -125 -133 -199 -170 -35 -17 -63 -34 -63 -37
0 -3 32 -37 71 -76 61 -60 138 -154 131 -161 -1 -2 7 -12 18 -23 11 -11 42
-65 70 -121 105 -210 231 -328 485 -451 65 -31 113 -61 125 -78 49 -69 41
-174 -18 -234 -48 -50 -114 -61 -325 -53 -200 8 -382 29 -487 56 -158 42 -186
50 -233 70 -49 21 -67 20 -67 -3 0 -7 -16 -29 -35 -48 -66 -65 -65 -65 -990
-61 -451 2 -831 4 -845 4 -14 0 -524 -2 -1135 -3 -822 -3 -1122 -1 -1156 8
-70 17 -107 44 -130 92 -27 54 -27 100 0 155 23 48 75 82 199 132 92 38 196
127 212 183 6 23 10 210 10 487 l-1 450 -28 -71 c-80 -203 -263 -383 -474
-470 -146 -59 -554 -154 -664 -154 l-43 0 0 -85 c0 -67 5 -95 21 -127 37 -72
107 -128 253 -201 154 -77 200 -116 212 -180 10 -53 7 -73 -17 -122 -30 -64
-74 -85 -197 -97 -153 -14 -1676 -5 -1723 11 -83 26 -135 121 -115 209 15 65
59 102 217 182 207 105 269 176 291 335 14 95 5 1231 -10 1266 -15 37 -85 80
-217 133 -63 25 -119 46 -124 46 -5 0 -34 -22 -63 -49 -71 -65 -105 -128 -112
-211 -7 -72 -23 -444 -31 -730 -12 -416 -15 -459 -45 -575 -33 -131 -57 -182
-139 -291 -91 -123 -254 -247 -389 -298 -164 -62 -318 -86 -543 -86 -396 0
-694 69 -883 204 -113 81 -225 223 -274 349 l-16 38 -19 -53 c-41 -111 -133
-225 -243 -304 -114 -82 -379 -180 -589 -218 -232 -43 -701 -45 -990 -5 -344
47 -805 188 -805 245 0 7 -6 14 -13 17 -30 11 -37 105 -37 515 0 381 1 410 21
483 25 93 63 137 133 155 46 12 136 1 136 -16 0 -4 8 -10 19 -13 11 -2 96
-122 205 -287 314 -474 417 -598 554 -662 84 -40 177 -46 349 -24 195 26 244
56 251 155 5 63 -1 78 -66 158 -34 42 -151 137 -207 167 -16 9 -37 21 -45 26
-16 10 -175 96 -335 180 -55 29 -131 71 -170 94 -38 22 -82 47 -97 56 -82 45
-284 196 -361 270 -135 128 -181 203 -227 370 -49 173 -27 445 48 595 41 84
178 255 203 255 4 0 19 10 32 23 82 76 244 161 393 208 143 44 276 73 389 84
39 4 72 9 75 12 12 12 488 -6 565 -21z"/>
<path d="M7590 11730 c-534 -52 -907 -283 -975 -605 -17 -83 -19 -252 -4 -327
6 -29 28 -89 49 -134 33 -68 53 -94 133 -170 157 -150 288 -235 665 -435 125
-67 262 -142 306 -167 167 -99 297 -227 349 -342 30 -65 29 -196 -2 -265 -60
-135 -184 -190 -483 -217 -164 -15 -236 -3 -359 59 -171 85 -301 238 -621 731
-107 163 -155 229 -162 222 -8 -8 -11 -154 -11 -448 l0 -436 83 -32 c348 -136
845 -198 1332 -165 272 18 432 58 640 158 74 36 110 61 163 114 109 109 151
225 149 419 -1 232 -80 396 -261 539 -174 138 -310 220 -692 416 -312 161
-428 233 -514 321 -118 119 -156 237 -117 360 51 161 185 281 372 333 131 37
362 26 454 -21 56 -29 141 -112 181 -179 49 -79 127 -265 190 -449 29 -85 58
-167 65 -182 14 -29 30 -37 30 -15 0 6 16 167 35 357 19 190 35 355 35 366 0
41 -268 136 -490 175 -134 23 -397 32 -540 19z"/>
<path d="M7708 11500 c-112 -20 -220 -94 -264 -182 -35 -68 -32 -113 12 -179
56 -83 166 -159 419 -290 77 -39 201 -103 275 -142 175 -90 335 -188 457 -278
154 -114 196 -153 262 -245 l61 -87 0 340 c0 189 -5 364 -10 394 -14 72 -54
135 -114 176 -27 18 -51 32 -53 29 -2 -2 -10 -62 -18 -132 -8 -71 -19 -145
-24 -164 -20 -68 -95 -122 -168 -122 -49 0 -117 38 -148 82 -27 38 -74 145
-75 167 0 6 -27 84 -60 172 -110 291 -181 412 -267 447 -42 18 -217 27 -285
14z m247 -51 c67 -18 112 -77 187 -239 36 -80 92 -221 123 -313 40 -117 70
-185 97 -224 l39 -55 -33 20 c-71 43 -223 124 -360 192 -276 138 -376 199
-460 280 -42 42 -80 88 -83 103 -20 78 106 207 230 238 47 11 216 10 260 -2z
m900 -569 c21 -43 23 -61 29 -343 l6 -299 -67 69 c-68 69 -175 155 -285 228
-32 21 -58 40 -58 42 0 2 16 1 35 -3 60 -11 133 14 181 61 48 49 68 103 79
211 3 38 8 80 11 93 5 23 5 23 26 5 11 -11 30 -39 43 -64z"/>
<path d="M16690 11270 c-107 -4 -268 -9 -357 -10 -90 -1 -163 -5 -163 -10 0
-4 41 -22 90 -40 132 -48 200 -104 229 -189 26 -78 32 -280 29 -936 -3 -660
-4 -671 -25 -727 -45 -120 -108 -183 -238 -242 -38 -18 -81 -37 -95 -43 -19
-9 179 -12 810 -12 l835 0 -120 33 c-165 45 -260 98 -348 196 -61 68 -85 121
-97 216 -10 77 -15 1677 -6 1693 3 4 76 6 163 5 185 -2 252 -20 314 -84 71
-74 90 -225 54 -448 -30 -188 -82 -302 -174 -384 -54 -48 -102 -71 -219 -105
-48 -13 -91 -28 -95 -33 -5 -4 8 -13 30 -20 59 -20 126 -56 149 -82 34 -37 77
-131 133 -293 96 -275 157 -371 295 -469 234 -166 517 -236 950 -236 l121 0
-107 53 c-252 127 -398 273 -529 529 -58 112 -73 133 -169 229 -96 97 -115
112 -215 162 -128 63 -158 74 -257 90 l-73 13 115 13 c260 29 475 105 562 198
116 125 163 318 124 504 -43 200 -194 333 -437 384 -206 44 -796 64 -1279 45z"/>
<path d="M11526 11249 c2 -4 48 -24 102 -45 216 -83 337 -168 362 -257 14 -51
33 -881 27 -1162 -5 -204 -18 -275 -65 -370 -58 -118 -141 -188 -339 -286
l-128 -64 427 -3 c234 -1 621 -1 860 0 l433 3 -143 73 c-173 89 -257 164 -313
277 l-34 70 -3 864 -2 864 110 -6 c149 -9 210 -40 293 -149 62 -83 82 -166 81
-343 0 -292 -78 -524 -246 -732 l-78 -98 42 -3 c121 -9 506 81 653 152 251
123 398 357 398 631 -1 271 -145 453 -442 559 l-86 31 -957 1 c-526 0 -955 -3
-952 -7z"/>
<path d="M8760 11246 c0 -3 28 -21 63 -42 152 -91 217 -165 258 -293 21 -64
22 -85 24 -654 2 -323 6 -611 10 -639 20 -143 82 -265 190 -373 106 -107 216
-162 395 -199 240 -49 646 -49 836 -1 197 51 386 199 479 376 56 107 64 162
75 489 20 615 40 959 59 1020 33 106 120 211 238 289 l46 31 -509 -1 -509 0
120 -58 c168 -82 233 -156 281 -317 15 -52 18 -120 22 -554 6 -823 -20 -1016
-154 -1139 -85 -79 -186 -111 -348 -111 -275 1 -428 107 -483 335 -24 102 -32
1332 -9 1442 34 163 122 275 281 356 l90 46 -727 0 c-401 1 -728 -1 -728 -3z"/>
<path d="M13890 11233 c170 -78 200 -96 262 -152 129 -119 130 -129 126 -1002
l-3 -644 -33 -67 c-45 -91 -149 -189 -252 -235 -41 -19 -93 -42 -115 -53 -40
-19 -29 -19 1066 -19 l1106 -1 6 128 c4 70 7 260 6 422 l0 295 -104 -213
c-190 -388 -301 -520 -480 -567 -77 -20 -292 -21 -338 -1 -45 18 -100 85 -123
149 -16 47 -19 94 -22 491 l-3 439 168 -6 c199 -7 342 -29 399 -62 50 -29 84
-78 125 -178 17 -43 34 -75 38 -71 7 7 18 734 11 734 -3 0 -23 -35 -44 -77
-50 -102 -84 -143 -143 -175 -97 -53 -281 -88 -465 -88 l-88 0 0 460 0 460
183 0 c196 0 265 -8 365 -42 130 -45 270 -196 374 -405 56 -113 73 -141 83
-132 2 2 10 126 19 274 9 149 19 289 22 313 l5 42 -1093 -1 c-1011 0 -1090 -1
-1058 -16z"/>
<path d="M10225 11059 c-106 -56 -163 -112 -196 -194 l-24 -60 -3 -525 c-4
-548 5 -780 35 -878 32 -107 121 -152 301 -152 124 0 168 11 221 57 87 74 96
157 96 913 l0 605 -23 50 c-35 77 -76 112 -203 173 l-115 57 -89 -46z m200
-63 c121 -58 146 -82 176 -171 20 -57 20 -1133 1 -1283 -27 -214 -77 -257
-287 -250 -84 2 -109 7 -150 29 -72 36 -91 76 -104 219 -15 155 -15 1202 0
1270 18 85 62 138 159 192 47 27 86 48 88 48 2 0 55 -24 117 -54z"/>
<path d="M16196 10968 c-3 -40 -8 -131 -11 -203 -8 -170 -20 -226 -58 -265
-31 -32 -128 -67 -149 -54 -7 4 -25 9 -40 11 l-28 3 0 -214 c0 -118 -3 -223
-7 -233 -4 -11 7 -5 30 17 71 69 183 71 250 4 53 -53 59 -100 55 -441 -3 -269
-2 -290 14 -282 25 13 55 55 73 102 14 38 16 122 13 789 -3 739 -3 747 -24
775 -20 26 -76 61 -100 63 -7 0 -14 -28 -18 -72z m89 -40 c4 -18 8 -350 10
-738 1 -426 0 -622 -5 -495 -9 263 -19 313 -76 370 -53 53 -135 75 -208 56
-25 -6 -47 -11 -50 -11 -8 0 -7 153 0 228 6 55 9 61 28 60 12 -1 45 4 75 12
73 17 133 76 150 146 10 45 30 298 31 387 0 34 2 37 19 28 10 -6 22 -25 26
-43z"/>
<path d="M15170 10745 l0 -285 23 0 c40 0 151 19 210 37 67 19 85 38 141 150
37 75 94 140 128 145 19 3 18 6 -11 43 -58 75 -116 127 -166 151 -50 23 -179
44 -277 44 l-48 0 0 -285z m292 206 c25 -10 70 -45 101 -76 l55 -57 -32 -29
c-18 -16 -57 -74 -86 -129 -51 -97 -54 -100 -104 -118 -28 -11 -81 -23 -118
-27 l-68 -7 0 238 0 237 104 -6 c68 -4 119 -13 148 -26z"/>
<path d="M17408 10708 c-3 -178 -4 -324 -3 -326 2 -2 16 3 32 11 97 51 153
194 168 435 11 164 -14 200 -141 201 l-51 1 -5 -322z m140 260 c31 -31 2 -323
-42 -420 -51 -113 -55 -109 -56 48 0 77 3 196 7 262 l6 122 37 0 c20 0 41 -5
48 -12z"/>
<path d="M12890 10613 l1 -408 19 35 c40 73 80 192 95 282 21 131 20 309 -2
372 -17 46 -82 126 -103 126 -7 0 -10 -142 -10 -407z m81 187 c6 -81 -6 -276
-20 -325 -6 -20 -9 50 -10 205 0 187 2 231 12 215 6 -11 14 -54 18 -95z"/>
<path d="M15172 9679 c2 -257 6 -350 16 -366 12 -22 19 -23 130 -23 92 0 126
4 158 19 41 18 114 94 167 174 15 23 35 50 44 59 9 10 13 18 10 18 -4 0 9 28
28 63 39 71 42 82 20 73 -9 -3 -38 0 -66 6 -69 16 -103 54 -158 179 l-46 104
-54 12 c-30 6 -99 15 -153 19 l-99 7 3 -344z m243 273 c26 -7 35 -20 69 -103
46 -108 104 -174 162 -185 19 -3 34 -11 34 -16 0 -25 -77 -153 -130 -216 -73
-87 -108 -102 -229 -102 -75 0 -90 3 -97 18 -4 9 -9 154 -12 321 l-4 304 89
-7 c48 -3 101 -10 118 -14z"/>
<path d="M17413 9604 c6 -135 14 -159 74 -215 39 -37 96 -79 107 -79 4 0 -6
19 -21 43 -43 67 -81 151 -118 260 -20 55 -38 103 -41 106 -4 3 -4 -48 -1
-115z"/>
<path d="M2065 8284 c-285 -23 -600 -109 -769 -211 -337 -203 -476 -433 -476
-788 0 -199 38 -336 131 -475 131 -196 358 -360 893 -647 149 -80 296 -163
326 -183 56 -38 133 -114 164 -160 23 -35 21 -115 -3 -139 -28 -28 -107 -49
-235 -62 -167 -17 -242 -7 -351 45 -130 64 -173 113 -335 386 -202 342 -281
471 -312 512 -84 108 -272 107 -344 -2 -49 -74 -53 -119 -54 -601 0 -473 2
-502 48 -567 41 -57 234 -139 464 -198 448 -113 1138 -127 1518 -30 155 40
345 117 422 170 16 11 27 11 67 -1 40 -11 133 -13 522 -9 261 2 485 5 499 5
14 1 97 -2 185 -5 144 -5 167 -4 220 14 33 11 64 17 70 13 37 -29 127 -31
1332 -31 1280 0 1301 1 1349 41 13 10 21 10 47 -4 18 -9 50 -21 72 -26 56 -15
1283 -15 1356 0 48 9 66 8 159 -16 149 -38 287 -62 433 -76 161 -15 619 -6
732 14 100 18 255 60 346 94 63 23 71 24 92 10 55 -36 115 -38 767 -33 349 3
658 5 685 4 28 -1 338 -2 690 -2 594 -1 643 0 687 17 100 39 152 142 127 254
-16 69 -61 117 -157 168 -38 20 -80 48 -93 61 l-24 26 -3 706 c-2 389 0 735 3
770 8 80 33 109 134 164 42 23 92 58 112 78 88 91 65 261 -44 324 -80 46 -111
48 -777 42 -748 -6 -576 -6 -1340 0 -555 4 -643 3 -700 -11 l-65 -16 -123 41
c-67 22 -180 52 -250 67 -116 25 -146 27 -342 27 -284 0 -468 -32 -697 -120
-98 -38 -271 -145 -339 -212 -287 -278 -306 -781 -40 -1070 l31 -33 -30 8
c-49 13 -132 6 -173 -14 -48 -26 -98 -92 -107 -143 -4 -22 -10 -40 -13 -40 -4
0 -26 55 -49 123 -22 67 -129 374 -236 682 -296 847 -279 806 -343 845 -43 27
-125 50 -180 50 -84 0 -142 -27 -223 -104 -88 -83 -130 -113 -261 -186 -52
-29 -117 -66 -143 -83 -93 -58 -126 -166 -88 -287 11 -36 21 -70 21 -77 0 -11
-619 -1305 -693 -1447 -45 -88 -98 -146 -133 -146 -30 0 -90 53 -115 102 -47
92 -83 577 -84 1113 0 220 3 412 8 427 4 15 15 29 25 32 169 47 195 58 236 99
96 96 77 266 -37 331 -79 46 -114 48 -742 44 -542 -3 -593 -4 -630 -21 -22
-10 -49 -27 -61 -38 l-22 -20 -47 30 c-26 16 -69 35 -96 40 -32 7 -248 11
-596 11 -582 0 -621 -3 -700 -51 -33 -21 -69 -70 -84 -117 -6 -18 -7 -6 -3 39
13 149 -30 226 -161 288 -144 67 -375 136 -555 166 -92 16 -393 27 -495 19z
m356 -44 c198 -20 443 -81 619 -156 133 -56 174 -93 190 -171 7 -30 9 -60 7
-67 -3 -8 -13 -92 -21 -187 -33 -355 -37 -396 -52 -494 -21 -134 -42 -178
-101 -206 -25 -12 -62 -22 -83 -22 -52 0 -121 36 -146 76 -20 31 -79 187 -87
232 -2 11 -6 27 -9 35 -3 8 -25 74 -48 145 -79 242 -135 336 -227 381 -56 28
-64 29 -203 29 -144 -1 -145 -1 -210 -34 -158 -80 -225 -203 -170 -310 20 -41
146 -161 167 -161 7 0 13 -3 13 -7 0 -5 10 -13 23 -19 12 -6 92 -48 177 -94
85 -45 200 -105 255 -133 143 -71 315 -170 420 -240 121 -81 245 -176 251
-192 3 -7 13 -15 23 -18 23 -6 112 -125 155 -207 49 -93 88 -244 96 -375 4
-60 8 -103 8 -94 1 9 11 76 22 150 28 189 116 917 131 1081 11 126 9 221 -7
283 -5 19 -22 30 -92 55 -125 45 -159 67 -183 117 -23 48 -27 106 -9 128 7 8
9 15 6 15 -4 0 1 13 10 29 21 36 73 66 142 80 76 16 1096 15 1160 -1 65 -16
109 -46 131 -91 l19 -37 12 30 c18 42 62 77 122 95 44 13 139 15 610 15 631 0
658 -2 720 -66 39 -39 59 -105 46 -149 -5 -16 -10 -36 -12 -44 -6 -31 -68 -79
-124 -96 -126 -38 -153 -47 -166 -61 -23 -23 -30 -132 -30 -469 0 -272 19
-687 39 -855 30 -258 47 -313 108 -365 47 -41 98 -58 132 -45 69 26 126 122
330 555 24 50 77 162 120 250 42 88 97 203 122 255 25 52 97 201 160 330 l115
235 -16 45 c-59 172 -35 244 107 324 34 18 85 46 112 61 102 57 158 97 239
173 98 93 135 106 250 90 100 -13 156 -56 177 -133 6 -22 24 -74 39 -115 22
-59 195 -554 294 -840 8 -25 28 -83 45 -130 67 -194 204 -589 221 -640 l18
-55 1 94 c2 171 28 267 84 304 43 28 97 37 146 25 79 -19 104 -50 289 -365 55
-95 98 -173 96 -173 -3 0 1 -6 8 -14 8 -8 34 -46 58 -86 86 -143 216 -234 350
-246 95 -9 305 13 352 37 96 49 74 153 -54 262 -70 58 -94 73 -352 211 -288
154 -397 221 -521 318 -154 120 -210 182 -264 292 -52 104 -84 235 -84 346 1
95 36 249 78 335 89 181 324 355 580 430 416 120 778 111 1184 -30 l102 -36
47 18 c43 16 101 18 659 21 519 2 622 0 671 -12 51 -14 64 -14 112 -1 45 12
159 15 645 15 622 -1 678 -4 728 -47 80 -68 91 -182 24 -253 -16 -16 -59 -46
-96 -65 -38 -20 -83 -50 -101 -68 -67 -65 -65 -39 -68 -712 -2 -335 -1 -680 3
-765 l7 -155 47 -45 c26 -25 77 -60 114 -79 73 -37 99 -64 116 -125 22 -83
-31 -179 -116 -208 -29 -9 -188 -13 -640 -16 -521 -2 -610 -1 -663 13 -54 14
-66 14 -119 0 -50 -13 -152 -15 -647 -15 -624 0 -659 3 -721 48 -26 19 -27 19
-83 -4 -67 -27 -279 -89 -335 -98 -200 -33 -417 -41 -657 -27 -205 12 -338 33
-525 80 -119 30 -123 31 -185 16 -52 -12 -167 -15 -663 -15 -647 0 -682 3
-747 52 l-33 25 -24 -23 c-58 -54 -47 -54 -1348 -54 -1260 0 -1258 0 -1325 44
-23 15 -26 15 -49 -3 -52 -40 -253 -55 -372 -27 -50 12 -66 12 -110 0 -40 -11
-147 -14 -472 -14 -404 0 -465 4 -521 31 -17 9 -29 6 -61 -14 -147 -93 -351
-163 -613 -209 -104 -18 -798 -18 -925 0 -263 39 -486 94 -661 163 -125 50
-168 87 -184 161 -13 65 -13 842 1 929 6 35 20 80 31 101 25 44 90 80 143 80
46 0 116 -35 143 -71 51 -70 312 -512 312 -529 0 -7 3 -12 8 -12 4 0 34 -45
67 -101 100 -170 244 -281 400 -310 72 -14 295 -5 375 15 122 30 157 58 167
136 9 66 -20 125 -102 205 -80 78 -132 111 -455 283 -373 199 -539 305 -718
460 -169 146 -261 359 -262 602 0 122 29 275 70 368 69 156 272 340 481 436
268 123 688 188 1010 156z m15 -474 c28 -13 63 -39 78 -58 45 -60 113 -220
165 -389 65 -213 87 -275 111 -316 l19 -33 -102 55 c-56 31 -169 90 -252 132
-372 187 -499 274 -541 371 -29 66 27 162 127 216 71 39 95 44 229 45 101 1
121 -2 166 -23z m899 -201 c30 -29 65 -49 134 -74 51 -19 96 -43 102 -52 13
-26 11 -223 -6 -389 -16 -166 -83 -712 -91 -750 -5 -21 -11 -12 -33 52 -66
185 -177 312 -416 480 l-77 53 53 8 c112 16 170 71 194 182 18 89 40 276 56
480 l13 160 15 -55 c11 -39 27 -66 56 -95z m5775 -1147 c100 -70 188 -122 400
-236 285 -153 329 -180 394 -241 100 -96 110 -145 34 -177 -33 -14 -79 -19
-201 -22 l-157 -4 -73 35 c-121 58 -154 101 -367 472 -57 99 -117 200 -133
225 l-31 45 34 -26 c19 -14 64 -47 100 -71z"/>
<path d="M2018 8060 c-362 -35 -643 -152 -824 -342 -117 -124 -154 -228 -154
-434 0 -139 12 -203 54 -288 59 -119 175 -229 391 -371 134 -87 204 -127 499
-284 336 -180 436 -252 519 -379 57 -86 71 -130 70 -220 -2 -138 -81 -250
-207 -292 -88 -29 -195 -48 -321 -55 -245 -16 -428 48 -593 209 -80 77 -109
119 -267 391 -155 267 -244 413 -256 421 -5 3 -9 -178 -9 -441 l0 -445 55 -25
c164 -72 414 -133 662 -160 197 -21 700 -21 854 1 293 40 576 164 677 296 86
113 112 199 112 369 0 239 -77 401 -259 547 -167 134 -302 216 -681 412 -451
234 -546 303 -627 460 -24 47 -28 67 -28 136 0 73 4 88 38 157 65 131 216 245
366 276 89 19 295 15 372 -7 206 -58 298 -188 419 -593 29 -94 61 -196 73
-227 18 -47 22 -51 29 -33 7 21 24 173 53 481 9 91 18 186 22 212 l5 46 -42
22 c-115 59 -292 114 -465 147 -95 17 -412 25 -537 13z"/>
<path d="M7649 7836 c-79 -76 -145 -121 -297 -206 -63 -34 -116 -69 -119 -76
-2 -7 7 -46 21 -88 14 -41 26 -85 26 -98 0 -13 -36 -97 -79 -188 -326 -683
-637 -1326 -668 -1383 -47 -86 -123 -167 -191 -201 -161 -82 -382 35 -450 239
-51 150 -94 696 -94 1190 0 541 22 601 237 660 48 14 90 27 93 30 3 3 -257 5
-577 5 l-583 0 7 -22 c4 -13 9 -55 12 -94 6 -82 -19 -192 -136 -611 -38 -136
-79 -291 -90 -343 -28 -121 -31 -130 -40 -130 -8 0 -55 244 -96 505 -14 88
-39 240 -55 338 -29 171 -38 297 -22 297 4 0 23 14 42 30 l35 29 -565 0 -565
0 65 -25 c168 -62 210 -100 229 -208 26 -143 11 -352 -69 -986 -102 -803 -114
-836 -353 -922 l-92 -33 223 -3 c123 -1 321 -1 440 0 l217 3 -70 24 c-132 45
-175 73 -205 132 -42 82 -51 337 -25 724 27 405 44 719 48 887 6 266 15 252
92 -131 31 -157 104 -511 161 -786 90 -428 174 -840 174 -852 0 -1 54 -3 119
-3 105 0 120 2 125 18 3 9 77 280 165 602 88 322 182 666 210 765 27 99 70
259 96 355 45 172 64 230 76 230 7 0 24 -1000 24 -1415 0 -279 -1 -292 -22
-331 -39 -73 -119 -131 -245 -179 -26 -9 -49 -23 -52 -31 -5 -12 179 -14 1221
-14 674 0 1224 2 1222 4 -3 3 -49 17 -104 31 -137 35 -279 105 -302 148 -22
42 -19 122 7 211 15 53 184 489 195 504 4 4 38 5 307 3 l257 -1 39 -102 c125
-328 207 -614 189 -661 -10 -26 -105 -74 -191 -97 -45 -12 -88 -26 -96 -31 -9
-5 257 -9 618 -9 347 0 632 2 632 5 0 2 -23 16 -51 31 -102 51 -202 171 -269
320 -18 38 -85 224 -150 414 -91 265 -401 1159 -537 1548 -14 40 -16 42 -56
42 -38 -1 -49 -7 -108 -64z m-256 -705 c9 -16 42 -109 72 -208 30 -98 70 -225
90 -282 19 -58 35 -109 35 -113 0 -4 -110 -8 -245 -8 -135 0 -245 2 -245 5 0
2 42 105 93 227 52 123 111 265 132 316 21 50 41 92 44 92 4 0 14 -13 24 -29z"/>
<path d="M9685 7819 c-173 -21 -355 -76 -482 -146 -226 -125 -327 -285 -327
-518 0 -304 149 -459 754 -785 297 -160 366 -204 450 -289 85 -87 130 -170
130 -243 0 -220 -155 -317 -509 -319 -122 -1 -144 2 -216 26 -148 49 -255 133
-342 267 -26 40 -110 179 -187 309 -76 130 -149 249 -162 265 l-23 29 -1 -380
c0 -209 3 -389 6 -401 10 -37 376 -134 622 -165 133 -17 623 -18 734 -1 131
19 292 67 396 119 162 79 258 197 282 345 23 145 8 274 -46 385 -86 173 -263
305 -749 556 -370 190 -489 276 -548 394 -34 67 -41 126 -22 198 38 147 175
268 343 304 67 14 221 14 297 0 74 -14 139 -46 188 -94 81 -78 128 -182 212
-461 31 -104 60 -192 64 -197 11 -11 29 116 51 363 11 118 23 232 26 252 6 37
5 38 -43 59 -88 39 -243 88 -341 110 -113 24 -422 34 -557 18z"/>
<path d="M10760 7709 c8 -5 40 -23 70 -38 108 -57 188 -164 210 -283 7 -37 10
-313 8 -800 -4 -839 1 -794 -83 -900 -34 -43 -61 -64 -131 -101 l-89 -46 613
-1 c336 0 612 2 612 4 0 2 -34 23 -75 45 -41 23 -90 55 -110 72 -49 44 -92
138 -105 232 -12 94 -14 794 -1 801 4 3 181 6 392 6 l384 1 0 -433 0 -433 -33
-67 c-38 -78 -95 -132 -197 -189 l-70 -39 610 0 610 0 -52 29 c-128 71 -189
134 -221 228 -14 42 -16 133 -15 783 0 785 3 850 48 925 34 58 110 128 190
174 l70 41 -620 0 -620 -1 60 -32 c89 -47 186 -148 215 -222 22 -57 23 -76 28
-362 l4 -303 -396 0 -396 0 1 108 c0 59 4 197 8 308 10 224 17 252 91 350 31
41 57 61 129 98 50 26 91 49 91 51 0 3 -280 5 -622 5 -429 0 -618 -4 -608 -11z"/>
<path d="M4791 7654 c-1 -12 -17 -36 -36 -55 -20 -19 -35 -44 -35 -57 0 -45
33 -223 40 -215 11 11 60 228 60 261 -1 15 -7 41 -15 57 -11 25 -14 27 -14 9z"/>
<path d="M9785 7587 c-103 -42 -175 -121 -175 -192 0 -92 101 -168 495 -371
116 -59 255 -134 310 -167 115 -68 295 -195 295 -208 0 -5 6 -9 14 -9 13 0 81
-69 125 -127 l21 -28 -3 455 -2 455 -35 50 -34 50 -7 -30 c-4 -17 -13 -90 -19
-163 -23 -263 -47 -369 -97 -418 -63 -63 -180 -62 -246 3 -35 34 -43 55 -118
308 -22 77 -63 186 -90 242 -41 85 -56 108 -91 130 -40 27 -47 28 -177 30 -88
1 -147 -2 -166 -10z m304 -51 c61 -32 119 -153 195 -407 24 -79 47 -152 51
-162 6 -14 -6 -11 -56 16 -35 19 -144 75 -242 126 -361 185 -432 260 -340 362
66 73 117 90 259 85 69 -3 111 -9 133 -20z m740 -615 l1 -313 -55 51 c-31 28
-83 69 -116 92 l-60 42 38 13 c54 19 109 81 127 146 16 56 45 243 47 299 1 32
2 32 9 9 4 -14 8 -166 9 -339z"/>
<path d="M11999 7520 c-111 -56 -131 -89 -140 -233 -4 -62 -8 -158 -8 -214
l-1 -103 215 0 215 0 0 183 c-1 100 -5 201 -9 225 -9 47 -51 99 -111 136 -75
47 -79 47 -161 6z m169 -67 c56 -42 63 -68 69 -259 l6 -174 -171 0 -172 0 0
148 c1 221 13 254 116 308 56 30 61 31 89 17 17 -9 45 -26 63 -40z"/>
<path d="M11844 6503 c-4 -14 -2 -162 3 -328 14 -381 7 -363 171 -451 l54 -28
51 29 c76 42 116 74 135 109 15 27 17 74 20 364 l3 332 -215 0 -216 0 -6 -27z
m394 -325 c-3 -270 -5 -306 -21 -328 -21 -30 -125 -100 -147 -99 -8 0 -42 17
-75 37 -95 59 -96 60 -102 402 l-6 290 177 0 178 0 -4 -302z"/>
<path d="M4887 6046 c-43 -158 -76 -290 -74 -293 8 -7 120 53 140 74 16 18 17
42 15 264 l-3 243 -78 -288z m17 -203 c-10 -7 -19 -11 -21 -9 -2 2 5 36 14 77
l18 74 3 -65 c2 -52 0 -67 -14 -77z"/>
<path d="M7169 6223 c-37 -85 -116 -287 -127 -323 -25 -87 -26 -86 21 -105 23
-9 53 -22 67 -28 14 -6 27 -11 30 -12 175 -43 204 -53 235 -82 20 -19 21 -19
66 14 31 22 73 39 125 51 70 17 79 22 82 43 2 20 -73 251 -145 447 l-16 42
-159 0 -159 0 -20 -47z m349 -120 c23 -65 57 -161 76 -214 l34 -96 -54 -12
c-31 -7 -79 -25 -109 -41 -44 -23 -55 -26 -66 -15 -8 7 -54 25 -104 40 -49 15
-120 38 -157 51 -64 24 -66 26 -58 52 8 31 88 233 119 305 l20 47 129 0 129 0
41 -117z"/>
<path d="M4016 6100 c-4 -41 -2 -127 3 -190 6 -63 11 -118 11 -121 0 -9 70
-42 76 -36 4 4 -69 382 -80 412 -2 6 -6 -24 -10 -65z"/>
<path d="M22450 8280 c-226 -18 -491 -82 -657 -160 -159 -74 -330 -210 -421
-332 -79 -107 -120 -217 -145 -393 l-13 -88 -49 69 c-107 151 -307 319 -487
410 -141 71 -252 108 -448 150 -119 26 -410 26 -530 1 -353 -76 -576 -187
-795 -399 l-91 -87 -28 54 c-55 105 -193 233 -321 297 -246 125 -759 185
-1340 159 -137 -6 -349 -14 -470 -17 -266 -7 -346 -20 -399 -69 l-36 -33 -64
24 c-188 68 -480 98 -966 98 -455 1 -1014 -20 -1087 -40 -175 -48 -203 -298
-44 -396 20 -13 76 -36 125 -53 145 -49 130 40 134 -823 3 -527 1 -747 -7
-774 -13 -41 -35 -57 -129 -89 -164 -57 -240 -164 -211 -296 10 -43 22 -65 56
-98 79 -79 28 -76 1086 -73 l932 4 94 27 c93 27 93 27 125 8 67 -41 104 -42
981 -39 649 3 849 6 878 16 20 7 56 31 78 52 l41 39 89 -30 c153 -51 370 -79
614 -79 209 0 282 9 331 40 17 10 34 7 115 -23 215 -81 393 -111 613 -105 389
11 734 150 1008 407 l78 73 0 -97 c0 -53 5 -117 12 -142 26 -103 142 -172 426
-252 151 -43 319 -76 492 -97 210 -26 738 -26 900 -1 155 24 365 80 469 125
102 44 245 135 306 197 51 50 124 160 147 220 68 178 82 404 34 580 -68 254
-195 417 -465 597 -100 66 -104 71 -59 63 64 -12 135 12 184 61 49 49 68 100
83 234 18 144 61 621 61 665 0 66 -27 141 -65 179 -61 61 -393 175 -635 217
-132 23 -371 32 -530 19z m465 -51 c83 -11 358 -78 410 -100 17 -6 37 -13 46
-15 43 -9 191 -79 214 -101 14 -14 32 -50 41 -79 13 -47 14 -68 0 -201 -8 -81
-17 -182 -21 -223 -14 -172 -37 -368 -46 -405 -18 -69 -49 -113 -96 -136 -52
-25 -95 -27 -146 -5 -35 14 -97 71 -97 89 0 4 -9 27 -19 50 -10 23 -38 103
-61 177 -100 322 -147 429 -215 489 -66 58 -95 65 -255 66 -144 0 -145 0 -218
-34 -78 -37 -136 -91 -171 -160 -30 -58 -27 -105 10 -162 58 -91 178 -172 466
-318 364 -185 530 -282 705 -411 125 -93 183 -149 251 -245 92 -130 138 -276
144 -460 4 -104 1 -134 -21 -230 -15 -60 -37 -133 -50 -162 -112 -243 -401
-406 -861 -484 -126 -22 -759 -19 -935 4 -133 18 -271 42 -300 54 -8 3 -24 7
-35 8 -71 10 -326 95 -403 134 -49 25 -98 75 -107 109 -4 15 -10 100 -14 189
l-6 161 -64 -75 c-108 -127 -312 -276 -471 -344 -167 -72 -388 -125 -561 -135
-202 -13 -478 40 -684 131 -51 22 -70 22 -93 -1 -31 -32 -95 -39 -312 -36
-298 3 -494 32 -644 94 -78 32 -86 33 -86 15 0 -8 -16 -30 -36 -49 -69 -69
-64 -69 -963 -67 -503 1 -813 5 -841 11 -49 12 -120 47 -120 60 0 4 -17 1 -37
-7 -21 -8 -76 -25 -123 -37 l-85 -23 -915 0 c-719 0 -924 3 -958 13 -59 18
-108 70 -120 127 -22 104 32 181 166 234 128 52 144 62 164 108 18 40 18 80
16 800 -3 730 -4 759 -22 790 -23 37 -70 63 -174 94 -91 27 -143 75 -159 144
-24 104 32 194 135 214 31 6 287 18 567 27 538 18 834 12 1100 -21 179 -23
333 -58 397 -91 30 -16 31 -15 70 24 23 24 56 45 81 52 23 6 155 15 292 20
138 5 372 14 522 20 656 26 1143 -51 1378 -218 113 -80 198 -183 231 -282 10
-30 20 -57 21 -59 1 -2 13 9 25 25 60 75 212 215 294 271 155 104 270 155 469
207 159 42 225 51 385 50 167 0 247 -12 424 -63 179 -52 284 -102 436 -210
171 -121 307 -273 409 -461 32 -58 39 -67 33 -40 -4 19 -7 89 -7 155 1 230 76
418 228 566 223 219 563 348 992 379 137 10 314 5 430 -11z m-75 -460 c24 -11
53 -28 64 -37 34 -30 116 -213 162 -362 66 -211 113 -336 145 -379 l27 -39
-101 58 c-56 31 -205 110 -331 174 -254 130 -343 184 -418 253 -68 64 -93 114
-78 156 27 79 92 140 186 177 73 28 281 28 344 -1z"/>
<path d="M22440 8061 c-359 -30 -637 -141 -827 -329 -118 -117 -173 -258 -173
-441 1 -363 154 -519 910 -926 293 -158 384 -217 486 -319 113 -113 139 -169
139 -297 0 -86 -3 -101 -30 -154 -69 -135 -238 -196 -555 -199 -126 -1 -155 2
-220 22 -130 41 -226 98 -315 187 -85 84 -103 112 -395 613 -61 105 -115 192
-119 192 -27 0 -31 -65 -31 -464 l0 -413 104 -41 c194 -77 430 -128 696 -153
180 -16 738 -6 850 15 152 29 263 65 385 126 148 73 218 132 268 228 50 94 67
174 67 312 0 196 -49 326 -175 458 -133 141 -329 268 -745 482 -146 75 -293
154 -328 174 -281 167 -393 345 -332 525 56 167 189 285 380 337 99 27 313 24
400 -6 131 -44 209 -113 276 -245 47 -93 65 -141 134 -361 27 -89 59 -183 71
-210 l22 -49 8 35 c15 69 71 722 63 730 -34 31 -339 127 -493 156 -100 18
-384 26 -521 15z"/>
<path d="M14665 7739 c-132 -5 -298 -13 -370 -17 l-130 -7 45 -17 c25 -9 72
-25 105 -34 112 -34 194 -137 215 -271 7 -44 10 -324 8 -808 -3 -730 -3 -741
-24 -792 -43 -103 -100 -152 -239 -204 -141 -52 -175 -50 825 -47 l925 3 70
24 c111 37 185 81 261 156 81 79 124 156 148 259 43 185 -1 354 -126 478 -96
95 -324 196 -508 225 l-54 8 104 44 c295 123 393 218 431 415 52 273 -87 475
-370 536 -230 50 -776 70 -1316 49z m806 -103 c166 -36 236 -120 254 -307 8
-80 -8 -225 -35 -313 -26 -83 -92 -181 -153 -227 -27 -20 -85 -49 -130 -64
l-82 -29 85 -17 c234 -47 388 -144 418 -264 31 -123 21 -323 -24 -494 -31
-118 -65 -182 -131 -248 -148 -146 -378 -113 -443 65 -12 30 -15 214 -17 975
l-3 937 97 0 c54 0 128 -7 164 -14z"/>
<path d="M15390 7190 c0 -173 4 -280 10 -280 21 0 78 62 103 114 49 100 62
331 22 392 -18 28 -71 54 -110 54 l-25 0 0 -280z m106 183 c3 -12 4 -76 2
-140 -3 -102 -7 -125 -30 -173 l-26 -55 -1 207 -1 208 25 -12 c14 -6 28 -22
31 -35z"/>
<path d="M15392 6151 c3 -397 2 -391 68 -391 54 0 100 35 138 108 48 90 65
181 66 354 l1 147 -28 29 c-31 32 -110 71 -195 96 l-53 15 3 -358z m120 269
c29 -11 65 -30 81 -42 27 -23 28 -23 28 -153 1 -201 -37 -336 -112 -399 -64
-54 -64 -56 -67 297 -1 201 1 317 7 317 6 0 34 -9 63 -20z"/>
<path d="M17070 7740 c-85 -4 -268 -11 -407 -15 -139 -5 -250 -12 -247 -16 2
-4 48 -18 100 -30 113 -26 178 -64 211 -124 33 -62 43 -276 43 -959 0 -772 -5
-814 -115 -915 -40 -37 -96 -68 -235 -129 -18 -8 191 -11 800 -11 469 0 819 3
810 8 -8 5 -79 27 -157 50 -209 59 -291 105 -339 187 -58 99 -57 84 -61 1013
-2 469 -2 859 0 865 3 8 49 9 158 5 193 -7 267 -28 327 -93 60 -65 76 -125 69
-265 -4 -84 -12 -141 -32 -205 -77 -261 -181 -402 -324 -442 -110 -30 -135
-39 -138 -50 -2 -6 27 -24 64 -39 126 -54 147 -85 248 -371 113 -315 168 -388
390 -517 178 -104 329 -135 685 -143 l225 -6 -87 50 c-134 77 -206 132 -298
229 -88 93 -105 118 -209 313 -142 266 -284 371 -631 467 -32 9 -28 10 50 17
229 19 429 83 524 166 146 128 197 421 106 606 -42 85 -136 172 -243 223 -232
113 -681 158 -1287 131z"/>
<path d="M19745 7725 c-299 -56 -537 -182 -726 -383 -190 -203 -287 -430 -297
-699 -9 -255 41 -438 179 -647 170 -258 470 -452 809 -522 120 -25 383 -25
500 0 197 42 341 101 492 202 456 303 629 857 420 1342 -148 344 -471 600
-872 693 -116 27 -392 35 -505 14z m62 -102 c20 -9 44 -30 54 -47 18 -29 19
-61 19 -613 l0 -583 528 0 c508 0 528 -1 560 -20 39 -24 40 -39 4 -110 -45
-89 -15 -85 -590 -88 l-502 -3 0 -253 c1 -139 -3 -264 -8 -277 -15 -37 -61
-78 -96 -84 -42 -8 -167 25 -259 69 -110 53 -174 107 -205 175 -24 51 -27 69
-30 216 l-4 161 -123 0 c-149 0 -164 7 -207 102 -28 62 -29 66 -11 76 47 28
86 35 211 35 l132 1 0 433 c0 237 4 458 10 491 19 117 73 186 195 249 85 43
211 86 258 86 16 1 45 -7 64 -16z"/>
<path d="M16490 7507 c0 -1 9 -29 19 -63 43 -136 37 -269 -20 -439 -33 -99
-94 -190 -161 -240 l-38 -29 37 -22 c21 -13 43 -28 50 -33 7 -6 15 -11 18 -11
19 0 121 -89 156 -135 23 -30 44 -55 47 -55 6 0 -6 745 -15 883 -3 53 -11 104
-17 112 -9 12 -76 40 -76 32z m60 -689 l0 -212 -32 30 c-25 24 -112 88 -136
100 -2 1 20 31 48 66 55 67 96 142 106 196 3 17 8 32 10 32 2 0 4 -95 4 -212z"/>
<path d="M17650 7167 l0 -331 39 38 c40 39 112 170 126 231 2 6 11 39 20 75 9
36 18 106 19 156 2 125 -17 144 -151 158 l-53 5 0 -332z m112 273 c68 0 64
-173 -8 -360 -53 -139 -53 -140 -54 129 l0 243 23 -6 c12 -3 30 -6 39 -6z"/>
<path d="M21354 6870 c20 -88 25 -124 31 -202 7 -79 9 -87 30 -92 48 -12 63
-36 365 -556 149 -255 216 -334 341 -393 107 -52 161 -61 314 -54 152 8 216
18 286 48 60 26 79 57 79 129 0 66 -24 111 -97 181 -78 76 -142 117 -378 245
-568 306 -816 481 -939 664 -25 37 -35 47 -32 30z m396 -415 c144 -95 255
-160 535 -310 307 -165 412 -241 454 -328 65 -134 -11 -184 -299 -202 -131 -9
-202 4 -298 51 -143 70 -161 95 -524 719 -81 138 -115 187 -146 210 -35 26
-41 36 -41 68 l-1 37 98 -81 c53 -44 153 -118 222 -164z"/>
<path d="M18492 6566 l-43 -22 48 -40 48 -41 -3 46 c-5 86 -2 82 -50 57z"/>
<path d="M17654 6080 c5 -189 14 -211 109 -258 38 -19 70 -32 72 -30 2 2 -10
26 -27 53 -33 53 -78 157 -128 295 l-31 85 5 -145z"/>
<path d="M24234 6181 c-73 -21 -123 -50 -188 -111 -69 -65 -102 -117 -126
-201 -38 -139 -19 -286 51 -392 39 -59 139 -150 194 -177 23 -11 76 -28 117
-37 69 -15 80 -15 151 1 103 23 185 66 250 131 68 69 111 149 133 251 17 80
17 84 -5 175 -24 107 -60 175 -122 237 -64 63 -124 98 -209 121 -89 25 -164
26 -246 2z m221 -40 c82 -21 104 -31 166 -80 123 -95 183 -273 144 -430 -38
-156 -156 -275 -311 -315 -78 -20 -126 -20 -195 0 -149 43 -257 152 -299 301
-26 88 -25 133 3 232 27 91 60 144 126 203 56 49 89 67 166 89 77 23 114 23
200 0z"/>
<path d="M24262 5959 c-53 -27 -115 -96 -130 -147 -38 -127 26 -269 144 -318
102 -43 231 10 294 119 25 43 30 63 30 117 0 83 -23 133 -83 186 -75 66 -174
83 -255 43z"/>
<path d="M8105 4145 l-25 -24 0 -716 c0 -702 0 -715 20 -735 19 -19 33 -20
433 -20 341 0 417 2 433 14 17 13 20 31 24 172 l5 158 54 -157 c36 -107 60
-162 75 -172 17 -12 72 -15 307 -15 258 0 289 2 308 18 15 11 37 63 66 152
l44 135 0 -132 c1 -119 3 -135 21 -153 19 -19 33 -20 435 -20 402 0 416 1 435
20 20 20 20 33 20 738 0 604 -2 721 -14 738 -14 18 -33 19 -579 22 -355 1
-574 -1 -590 -7 -31 -12 -43 -37 -107 -231 -55 -167 -41 -172 -117 40 -25 69
-49 137 -55 151 -5 14 -20 31 -34 38 -18 8 -186 11 -580 11 l-555 0 -24 -25z
m1190 -276 c87 -243 105 -283 120 -259 4 6 44 122 89 258 l83 247 536 3 537 2
0 -680 0 -680 -375 0 -375 0 0 308 c0 243 -3 312 -13 327 -10 13 -16 15 -21 6
-4 -6 -51 -152 -105 -324 l-97 -312 -264 0 -263 0 -109 328 c-105 313 -125
356 -142 311 -3 -9 -6 -157 -6 -330 l0 -314 -375 0 -375 0 0 680 0 680 533 0
532 0 90 -251z"/>
<path d="M8200 3456 c0 -567 1 -605 18 -610 9 -2 126 -3 260 -2 133 2 242 0
242 -4 0 -5 20 -10 44 -12 38 -2 46 0 52 17 4 11 9 193 11 405 3 215 9 392 14
402 13 25 46 22 63 -4 18 -28 29 -57 157 -423 56 -159 112 -314 126 -343 l25
-52 181 4 c100 2 194 7 208 11 20 5 31 18 42 48 21 56 111 337 182 567 72 233
87 257 129 214 14 -13 16 -66 16 -424 l0 -408 309 -2 c276 -1 309 1 315 15 3
9 6 284 6 611 l0 594 -484 0 -484 0 -97 -292 c-54 -161 -103 -299 -110 -306
-31 -33 -50 2 -140 250 -48 134 -96 267 -107 296 l-19 52 -480 0 -479 0 0
-604z"/>
<path d="M12885 4146 l-25 -25 0 -716 c0 -702 0 -715 20 -735 19 -19 33 -20
483 -20 437 0 465 1 480 18 16 17 17 83 17 738 0 606 -2 723 -14 740 -14 18
-32 19 -475 22 l-461 3 -25 -25z m875 -706 l0 -680 -420 0 -420 0 0 680 0 680
420 0 420 0 0 -680z"/>
<path d="M12980 3457 l0 -604 303 -5 c166 -3 327 -2 357 1 l55 6 3 603 2 602
-360 0 -360 0 0 -603z"/>
<path d="M11465 3929 c-370 -48 -541 -142 -611 -336 -20 -57 -19 -541 1 -610
24 -80 85 -162 157 -211 84 -56 138 -75 304 -109 138 -28 142 -28 514 -28
l375 0 126 32 c214 54 334 123 408 234 67 100 72 129 69 420 l-3 254 -33 67
c-82 166 -224 238 -562 284 -119 15 -628 18 -745 3z m854 -72 c205 -43 302
-103 361 -219 29 -60 30 -64 30 -210 l0 -148 -492 -2 -493 -3 -3 -128 c-3
-124 -2 -128 22 -152 21 -21 35 -25 81 -25 46 0 60 4 80 25 23 22 25 32 25
110 l0 85 391 0 392 0 -5 -63 c-17 -205 -226 -343 -575 -378 -65 -7 -229 -9
-413 -6 -282 4 -314 7 -430 31 -207 44 -301 102 -360 218 l-30 61 0 262 0 262
30 61 c57 112 157 176 337 212 174 36 218 38 578 35 332 -2 356 -4 474 -28z
m-449 -762 c0 -73 -1 -75 -25 -75 -24 0 -25 2 -25 75 0 73 1 75 25 75 24 0 25
-2 25 -75z"/>
<path d="M11380 3810 c-226 -35 -320 -79 -384 -176 l-31 -48 -3 -257 -3 -258
25 -49 c53 -104 158 -161 311 -169 50 -3 114 -8 144 -12 31 -5 70 -4 93 2 31
8 47 7 73 -6 19 -9 35 -12 37 -7 2 7 217 14 308 10 8 0 97 2 197 5 203 5 262
18 357 79 80 51 123 106 142 181 l6 25 -330 0 -330 0 -4 -76 c-3 -73 -5 -77
-41 -110 -36 -33 -39 -34 -122 -34 -83 0 -86 1 -123 34 l-37 34 -3 181 -3 181
496 0 497 0 -4 124 c-3 122 -3 124 -37 173 -62 90 -137 128 -325 165 -97 18
-154 21 -446 24 -292 3 -351 1 -460 -16z m528 -103 c26 -26 27 -32 30 -147 l4
-120 -142 0 -142 0 4 119 c3 102 6 122 23 141 30 33 53 40 128 37 58 -2 71 -6
95 -30z"/>
<path d="M11736 3661 c-13 -15 -16 -34 -14 -87 l3 -69 75 0 75 0 3 69 c4 87
-10 106 -78 106 -33 0 -52 -5 -64 -19z"/>
<path d="M11578 2823 c7 -3 16 -2 19 1 4 3 -2 6 -13 5 -11 0 -14 -3 -6 -6z"/>
<path d="M11975 2820 c-3 -5 1 -10 9 -10 9 0 16 5 16 10 0 6 -4 10 -9 10 -6 0
-13 -4 -16 -10z"/>
<path d="M14530 3925 c-330 -47 -484 -125 -562 -283 l-33 -67 0 -295 0 -295
29 -60 c37 -75 119 -156 200 -195 68 -33 228 -72 369 -90 61 -8 208 -10 437
-7 369 5 403 9 586 69 147 48 293 182 329 300 18 63 22 517 4 583 -16 61 -86
161 -138 199 -91 66 -155 89 -351 127 -102 20 -153 22 -445 25 -239 2 -356 -1
-425 -11z m879 -68 c205 -43 302 -103 361 -219 29 -60 30 -64 30 -210 l0 -148
-492 -2 -493 -3 -3 -132 -3 -131 27 -21 c40 -32 126 -30 159 4 23 22 25 32 25
110 l0 85 391 0 392 0 -5 -63 c-14 -171 -158 -292 -420 -355 -112 -26 -116
-27 -488 -27 -369 0 -377 1 -504 27 -210 44 -307 103 -366 220 l-30 61 0 262
0 262 30 61 c57 112 157 176 337 212 174 36 218 38 578 35 332 -2 356 -4 474
-28z m-449 -762 c0 -73 -1 -75 -25 -75 -24 0 -25 2 -25 75 0 73 1 75 25 75 24
0 25 -2 25 -75z"/>
<path d="M14533 3820 c-122 -15 -266 -49 -319 -75 -61 -30 -117 -84 -144 -140
-18 -38 -20 -61 -20 -291 l0 -250 33 -54 c17 -30 51 -69 75 -87 52 -40 156
-73 227 -73 30 0 56 -4 59 -9 3 -5 25 -5 48 0 56 11 138 11 138 1 0 -5 19 -6
43 -3 71 10 362 5 383 -7 14 -7 26 -7 44 4 28 15 135 20 110 5 -9 -7 -1 -8 25
-5 22 3 81 8 130 13 192 18 336 118 371 256 l6 25 -330 0 -330 0 -4 -76 c-3
-73 -5 -77 -41 -110 -36 -33 -39 -34 -122 -34 -83 0 -86 1 -123 34 l-37 34 -3
181 -3 181 496 0 497 0 -4 123 c-3 118 -4 124 -35 172 -35 55 -103 106 -172
130 -25 8 -95 25 -155 37 -97 19 -152 21 -441 24 -181 1 -362 -2 -402 -6z
m465 -113 c26 -26 27 -32 30 -147 l4 -120 -142 0 -142 0 4 119 c3 102 6 122
23 141 30 33 53 40 128 37 58 -2 71 -6 95 -30z"/>
<path d="M14826 3661 c-13 -15 -16 -34 -14 -87 l3 -69 75 0 75 0 3 69 c4 87
-10 106 -78 106 -33 0 -52 -5 -64 -19z"/>
<path d="M15008 2823 c6 -2 18 -2 25 0 6 3 1 5 -13 5 -14 0 -19 -2 -12 -5z"/>
<path d="M16535 3929 c-174 -22 -350 -68 -415 -107 -95 -59 -180 -162 -200
-243 -7 -29 -10 -141 -8 -319 l3 -275 29 -60 c59 -119 169 -199 330 -240 197
-50 286 -57 668 -52 339 4 357 5 463 30 217 53 374 157 441 293 l29 59 0 285
0 285 -28 58 c-79 159 -225 234 -548 281 -119 18 -637 21 -764 5z m854 -72
c205 -43 302 -103 361 -219 29 -60 30 -64 30 -210 l0 -148 -492 -2 -493 -3 -3
-128 c-3 -124 -2 -128 22 -152 21 -21 35 -25 81 -25 46 0 60 4 80 25 23 22 25
32 25 110 l0 85 391 0 392 0 -5 -64 c-14 -169 -160 -293 -418 -353 -114 -27
-118 -27 -490 -28 -370 0 -377 1 -504 27 -210 44 -307 103 -366 220 l-30 61 0
262 0 262 30 61 c69 136 179 192 475 237 67 10 179 13 440 11 331 -3 357 -5
474 -29z m-449 -762 c0 -73 -1 -75 -25 -75 -24 0 -25 2 -25 75 0 73 1 75 25
75 24 0 25 -2 25 -75z"/>
<path d="M16513 3819 c-123 -14 -263 -47 -318 -73 -65 -32 -116 -81 -144 -138
-20 -42 -21 -60 -21 -294 l0 -249 30 -51 c56 -98 151 -151 290 -160 41 -3 82
-8 90 -11 8 -3 62 -6 120 -5 64 0 97 -3 85 -8 -18 -8 -17 -9 7 -9 14 -1 28 4
30 9 2 6 74 12 183 14 99 2 174 2 168 -1 -24 -9 -13 -20 19 -21 18 0 38 4 45
10 8 6 29 8 51 5 25 -5 32 -3 22 3 -13 8 -13 10 2 10 9 0 22 -8 27 -17 6 -10
11 -12 11 -5 0 6 7 12 16 12 8 0 12 -5 8 -11 -4 -8 0 -7 15 0 12 7 61 16 109
22 179 20 325 123 357 252 l7 27 -330 0 -330 0 -4 -76 c-3 -73 -5 -77 -41
-110 -36 -33 -39 -34 -122 -34 -83 0 -86 1 -123 34 l-37 34 -3 181 -3 181 495
0 496 0 0 112 c0 92 -4 119 -20 154 -26 53 -97 120 -155 145 -51 23 -193 53
-315 69 -98 12 -611 11 -717 -1z m465 -112 c26 -26 27 -32 30 -147 l4 -120
-142 0 -142 0 4 119 c3 102 6 122 23 141 30 33 53 40 128 37 58 -2 71 -6 95
-30z"/>
<path d="M16806 3661 c-13 -15 -16 -34 -14 -87 l3 -69 75 0 75 0 3 69 c4 87
-10 106 -78 106 -33 0 -52 -5 -64 -19z"/>
</g>
</svg>
