<?xml version="1.0" standalone="no"?>
<!DOCTYPE svg PUBLIC "-//W3C//DTD SVG 20010904//EN"
 "http://www.w3.org/TR/2001/REC-SVG-20010904/DTD/svg10.dtd">
<svg version="1.0" xmlns="http://www.w3.org/2000/svg"
 width="400.000000pt" height="400.000000pt" viewBox="0 0 400.000000 400.000000"
 preserveAspectRatio="xMidYMid meet">

<g transform="translate(0.000000,400.000000) scale(0.100000,-0.100000)"
fill="#000000" stroke="none">
<path d="M1880 3994 c-347 -34 -607 -111 -860 -256 -174 -100 -410 -284 -410
-320 0 -48 -61 -118 -101 -118 -29 0 -48 -15 -27 -22 21 -7 0 -41 -22 -35 -43
11 -226 -277 -310 -488 -16 -41 -30 -78 -30 -81 0 -3 17 -12 38 -21 25 -12 32
-18 20 -20 -9 -3 -27 1 -39 7 -17 9 -23 9 -29 -1 -15 -24 -42 -118 -38 -135 3
-18 7 -20 268 -99 85 -26 166 -52 180 -58 l25 -10 -30 -8 c-16 -3 -61 -7 -100
-8 -38 -1 -108 -5 -155 -10 -47 -5 -116 -12 -155 -16 -38 -4 -74 -10 -79 -15
-5 -5 -11 -42 -14 -83 -4 -72 -4 -75 19 -82 13 -4 71 -26 129 -50 58 -24 157
-62 220 -85 203 -72 279 -103 275 -110 -6 -10 -219 -28 -394 -35 -79 -3 -146
-7 -148 -9 -5 -5 210 -81 302 -107 39 -11 162 -45 275 -75 113 -30 211 -57
219 -60 35 -12 -13 -23 -122 -30 -218 -13 -128 -44 353 -120 148 -23 149 -24
94 -81 -73 -75 -115 -148 -175 -308 -11 -27 -24 -88 -30 -135 -6 -47 -14 -92
-19 -100 -5 -10 -30 -17 -76 -22 -38 -3 -81 -11 -96 -17 -15 -6 -35 -8 -43 -5
-8 3 -29 1 -47 -5 -21 -8 -35 -8 -42 -1 -14 14 -26 13 -26 -3 0 -8 -6 -14 -12
-15 -70 -8 -99 -8 -104 -1 -8 14 -24 10 -24 -6 0 -19 -14 -19 -34 1 -20 19
-36 10 -29 -16 13 -48 320 -330 361 -330 10 0 45 9 78 19 59 19 145 41 239 61
28 6 86 22 130 35 44 14 121 34 171 44 50 10 100 24 112 30 11 6 54 18 94 26
82 17 297 72 433 111 50 14 113 32 140 39 28 8 104 28 170 46 66 17 194 51
285 74 91 24 179 48 195 53 17 6 64 18 105 27 41 9 113 30 160 46 71 24 141
43 312 84 10 2 94 23 188 46 l170 42 39 101 c43 110 67 193 58 202 -9 9 -75
-15 -81 -29 -3 -9 -7 -8 -15 3 -9 13 -11 12 -16 -2 -4 -9 -14 -14 -25 -11 -10
3 -21 0 -24 -6 -4 -5 -13 -8 -20 -5 -8 3 -17 0 -21 -6 -6 -9 -9 -9 -15 -1 -5
9 -14 9 -36 0 -36 -15 -26 -13 -114 -28 -41 -8 -84 -19 -95 -26 -11 -7 -36
-15 -55 -18 -19 -3 -57 -11 -85 -17 -27 -6 -57 -13 -65 -14 -8 -1 -22 -5 -30
-8 -8 -4 -53 -16 -100 -28 -47 -12 -89 -25 -95 -28 -5 -3 -16 -7 -25 -8 -8 -2
-30 -5 -48 -8 -24 -4 -32 -2 -29 7 2 7 48 23 103 36 54 13 151 39 214 58 63
19 122 36 130 38 56 12 151 38 180 49 19 8 55 17 80 20 25 4 68 13 95 21 28 7
79 21 115 30 36 9 74 21 85 25 l20 9 -20 0 c-11 0 -54 -8 -95 -19 -41 -11
-118 -31 -170 -45 -52 -14 -107 -25 -121 -25 -15 0 -44 -7 -65 -16 -32 -14
-354 -99 -512 -136 -48 -11 -72 0 -72 33 0 67 -84 187 -167 238 -54 33 -55 34
-50 75 7 71 44 187 65 207 11 10 33 35 49 56 50 68 156 188 182 207 29 21 65
65 59 72 -3 2 -35 -11 -73 -31 -37 -19 -72 -32 -78 -28 -13 8 411 422 440 429
23 6 84 -24 149 -73 17 -12 46 -28 65 -34 19 -7 45 -20 59 -29 57 -38 173 -55
257 -38 57 11 93 46 93 90 0 37 -69 248 -81 248 -5 0 -9 9 -9 20 0 12 -11 31
-25 44 -16 15 -23 30 -19 40 4 11 1 16 -11 16 -13 0 -15 6 -10 31 5 22 3 30
-7 28 -19 -3 -50 11 -72 34 -15 15 -16 21 -6 27 7 5 19 6 26 3 28 -11 21 19
-24 93 -159 265 -449 545 -718 694 -244 135 -531 226 -769 244 -112 8 -293 14
-335 10z m-30 -64 c0 -5 -5 -10 -11 -10 -5 0 -7 5 -4 10 3 6 8 10 11 10 2 0 4
-4 4 -10z m-1252 -691 c3 -31 -2 -41 -33 -68 -28 -24 -45 -31 -68 -29 -26 2
-33 8 -35 29 -4 36 71 111 108 107 21 -3 25 -9 28 -39z m22 -139 c15 -57 -2
-89 -62 -114 -58 -24 -78 -17 -78 27 0 25 10 44 45 80 56 59 80 61 95 7z
m2930 -64 c16 -25 30 -47 30 -50 0 -2 -14 -1 -31 4 -31 9 -62 5 -136 -18 -23
-8 -30 -7 -26 1 5 14 114 105 125 106 4 1 21 -19 38 -43z m-2886 -5 c3 -5 -1
-11 -9 -15 -15 -6 -29 7 -18 18 9 9 21 8 27 -3z m55 -65 c15 -18 9 -51 -17
-84 -10 -13 -48 -34 -84 -47 -59 -21 -68 -22 -79 -9 -10 13 -9 22 6 52 58 113
125 147 174 88z m-174 -50 c-20 -31 -39 -29 -43 2 -2 16 4 25 20 31 33 13 43
-2 23 -33z m505 39 c0 -14 -85 -135 -95 -135 -18 0 -95 91 -95 113 0 15 46 26
118 26 39 1 72 -1 72 -4z m-282 -47 c19 -19 14 -28 -13 -28 -27 0 -28 1 -19
24 7 19 16 20 32 4z m45 -54 c19 -20 -75 -113 -114 -114 -15 0 -32 -7 -39 -15
-7 -9 -17 -12 -22 -7 -10 10 23 81 50 105 30 28 109 47 125 31z m38 -44 c27
-15 24 -26 -13 -39 -41 -15 -59 0 -33 29 21 23 20 23 46 10z m-213 -12 c-8
-22 -36 -34 -50 -20 -10 10 -10 15 2 22 21 14 52 12 48 -2z m232 -58 c0 -5
-12 -17 -26 -27 -14 -10 -33 -26 -42 -35 -27 -29 -101 -19 -83 10 4 8 16 14
25 16 10 1 21 7 24 13 15 22 102 42 102 23z m56 -21 c8 -14 -5 -26 -38 -34
-21 -5 -28 -3 -28 7 0 31 50 52 66 27z m2223 -33 c9 -10 8 -15 -4 -20 -8 -3
-15 -1 -15 4 0 5 -7 7 -15 4 -15 -6 -21 7 -8 19 11 11 30 8 42 -7z m-732 -83
c15 -25 33 -69 40 -97 12 -46 12 -52 -3 -61 -10 -5 -35 -25 -56 -44 l-38 -33
0 98 c0 55 -3 123 -7 153 -6 52 -6 53 15 42 12 -6 34 -32 49 -58z m651 15 c-3
-7 -15 -14 -29 -16 -23 -2 -23 -2 -5 13 24 18 39 20 34 3z m362 -63 c14 -13
34 -26 45 -29 26 -8 84 -56 68 -56 -6 0 -38 17 -70 38 -32 20 -67 42 -78 48
-10 6 -21 16 -23 22 -5 17 28 4 58 -23z m-1432 3 l11 -23 0 24 1 24 26 -24
c78 -72 153 -303 157 -484 l2 -74 25 24 c25 24 64 96 116 210 38 86 104 139
149 121 12 -4 15 -25 15 -97 0 -103 9 -110 47 -36 27 51 42 58 61 27 16 -27
46 -25 60 3 19 39 14 -86 -7 -177 -11 -44 -23 -101 -26 -126 -7 -41 -6 -43 9
-31 30 25 41 -2 41 -97 -1 -127 -38 -178 -59 -81 -9 39 -11 41 -14 15 -2 -15
4 -50 13 -77 27 -84 23 -111 -23 -173 -23 -30 -62 -72 -86 -92 -47 -39 -50
-54 -12 -54 45 0 64 -61 21 -68 -81 -14 -95 -22 -117 -70 -43 -97 -52 -112
-68 -112 -11 0 -20 15 -29 50 -7 27 -21 60 -32 74 -10 13 -19 28 -19 33 0 5
25 17 55 27 30 9 57 21 60 26 9 14 -1 13 -86 -9 -175 -46 -369 -50 -517 -10
-83 22 -211 80 -260 117 -32 25 -34 25 -62 9 -39 -23 -67 -21 -129 9 -101 50
-151 152 -151 304 0 74 3 92 23 121 12 19 35 40 50 47 25 12 33 11 75 -10 40
-19 53 -34 84 -93 21 -38 39 -74 42 -80 7 -15 26 16 26 43 0 33 27 38 57 11
16 -14 24 -18 21 -9 -30 86 -68 223 -64 228 4 3 19 -6 34 -20 29 -28 92 -63
92 -52 0 4 -11 39 -24 78 -33 98 -38 132 -37 268 0 87 4 127 15 150 9 17 16
42 16 55 0 43 29 39 77 -9 35 -35 44 -50 38 -66 -9 -30 -62 -67 -78 -54 -9 8
-13 -2 -15 -41 -1 -29 -3 -72 -5 -97 -3 -60 22 -100 63 -100 31 0 50 22 50 60
0 31 47 100 69 100 21 0 74 -109 86 -175 l7 -40 28 35 c18 22 35 61 45 105 9
39 18 76 21 83 7 22 42 -5 65 -51 24 -48 48 -77 62 -77 12 0 -1 161 -14 175
-5 5 -9 0 -9 -14 0 -31 -22 -22 -33 15 -5 16 -18 39 -29 51 -24 26 -37 80 -38
151 0 55 10 66 28 30z m665 -42 c3 -8 9 -46 13 -85 7 -76 -2 -90 -30 -46 -13
20 -15 38 -10 85 6 58 16 75 27 46z m993 -97 c10 -17 -24 -9 -47 11 l-24 20
33 -11 c17 -6 35 -15 38 -20z m-928 -889 c64 -39 110 -104 141 -199 38 -116
-33 -257 -160 -321 -32 -17 -63 -30 -69 -30 -5 0 -10 22 -10 48 0 61 -34 167
-66 205 -28 33 -29 40 -9 57 17 14 19 43 5 70 -12 23 16 46 67 56 47 9 51 24
8 24 -41 0 -41 -1 0 63 34 52 46 56 93 27z m952 -130 c0 -5 -4 -10 -10 -10 -5
0 -10 5 -10 10 0 6 5 10 10 10 6 0 10 -4 10 -10z m-2162 -112 c29 -15 68 -39
88 -54 l35 -27 -26 -27 c-39 -41 -30 -43 28 -5 28 19 81 46 117 61 56 22 73
25 130 19 36 -3 79 -11 97 -16 55 -17 108 -99 139 -214 22 -79 11 -107 -69
-186 -125 -123 -232 -180 -376 -201 -101 -14 -177 3 -298 69 -132 71 -186 128
-217 233 -42 141 8 313 102 353 61 26 65 27 133 24 48 -2 79 -10 117 -29z
m1489 -190 c-3 -8 -6 -5 -6 6 -1 11 2 17 5 13 3 -3 4 -12 1 -19z m-595 -55
c22 -49 26 -110 9 -140 -7 -15 -31 -25 -82 -37 -39 -9 -78 -16 -86 -16 -9 0
-49 -18 -90 -41 -72 -40 -103 -44 -103 -16 0 29 40 65 85 76 34 9 51 19 63 41
9 17 31 37 49 45 22 11 36 28 49 61 18 46 59 88 76 78 6 -4 19 -26 30 -51z
m823 47 c3 -6 -1 -7 -9 -4 -18 7 -21 14 -7 14 6 0 13 -4 16 -10z m-418 -117
c-3 -10 -5 -2 -5 17 0 19 2 27 5 18 2 -10 2 -26 0 -35z m-127 -47 c0 -3 -4 -8
-10 -11 -5 -3 -10 -1 -10 4 0 6 5 11 10 11 6 0 10 -2 10 -4z m-1610 -141 c0
-9 -38 -24 -98 -38 -70 -16 -81 -8 -24 16 32 14 50 18 110 26 6 0 12 -1 12 -4z
m-255 -75 c-3 -5 -18 -10 -33 -9 -24 0 -25 1 -7 9 28 12 47 12 40 0z m15 -271
c0 -5 -4 -9 -10 -9 -5 0 -10 7 -10 16 0 8 5 12 10 9 6 -3 10 -10 10 -16z"/>
<path d="M2022 2490 c0 -14 2 -19 5 -12 2 6 2 18 0 25 -3 6 -5 1 -5 -13z"/>
<path d="M2405 2080 c-4 -6 6 -10 22 -10 30 0 71 -23 88 -49 15 -23 35 -92 35
-121 0 -17 3 -21 9 -12 22 35 -41 179 -85 196 -24 9 -62 7 -69 -4z"/>
<path d="M1769 1966 c-49 -36 -89 -81 -89 -100 1 -6 9 0 20 14 35 45 47 55
104 84 31 16 56 31 56 33 0 1 -10 3 -22 3 -13 0 -44 -16 -69 -34z"/>
<path d="M2301 1856 c-23 -28 -24 -80 -3 -106 28 -33 54 -18 66 39 7 34 6 45
-9 61 -21 24 -38 25 -54 6z"/>
<path d="M1232 1838 c-19 -19 -14 -30 8 -18 24 13 60 4 60 -14 0 -6 -9 -29
-20 -51 -11 -22 -20 -53 -19 -70 l1 -30 13 30 c8 17 14 40 15 53 1 50 58 31
74 -25 5 -16 2 -25 -13 -32 -29 -16 -38 -89 -17 -132 23 -46 62 -75 81 -59 21
18 18 44 -8 77 -19 22 -23 37 -19 71 12 118 -97 259 -156 200z m138 -198 c0
-11 -7 -20 -15 -20 -17 0 -18 2 -9 24 9 23 24 20 24 -4z m30 -95 c13 -16 6
-35 -15 -35 -15 0 -24 19 -17 38 6 16 17 15 32 -3z"/>
<path d="M2083 1824 c-21 -21 -24 -32 -20 -61 7 -44 23 -63 52 -63 36 0 59 75
35 119 -16 31 -39 33 -67 5z"/>
<path d="M1667 1800 c-17 -103 42 -190 146 -215 47 -12 30 11 -20 26 -67 21
-102 72 -112 165 l-7 69 -7 -45z"/>
<path d="M2521 1767 c-5 -14 -22 -37 -38 -51 -17 -16 -24 -29 -18 -35 9 -8 51
-15 83 -12 20 2 14 21 -7 21 -29 0 -33 14 -15 55 8 20 13 40 10 42 -3 3 -10
-6 -15 -20z"/>
<path d="M2338 1640 c12 -5 22 -16 22 -25 0 -8 5 -15 10 -15 6 0 10 4 10 9 0
16 -30 41 -48 40 -12 0 -11 -3 6 -9z"/>
<path d="M1630 1556 c-16 -20 0 -27 49 -23 40 3 56 27 18 27 -14 0 -32 2 -40
5 -7 3 -20 -1 -27 -9z"/>
<path d="M2401 1468 c-29 -36 -90 -66 -155 -74 -55 -8 -131 15 -195 57 -24 17
-45 28 -48 25 -12 -12 21 -45 74 -72 51 -26 68 -29 143 -28 59 0 96 6 122 18
37 18 98 78 98 96 0 18 -15 9 -39 -22z"/>
<path d="M1030 1240 c0 -19 3 -21 12 -12 9 9 9 15 0 24 -9 9 -12 7 -12 -12z"/>
<path d="M695 1160 c-12 -24 -21 -29 -43 -28 -38 4 -38 -15 0 -25 24 -7 35 -5
43 6 6 9 18 15 26 15 34 -2 49 3 49 17 0 8 -6 15 -14 15 -8 0 -16 7 -20 15 -9
23 -24 18 -41 -15z"/>
<path d="M805 1150 c-3 -5 3 -10 14 -10 12 0 21 5 21 10 0 6 -6 10 -14 10 -8
0 -18 -4 -21 -10z"/>
<path d="M361 931 c-14 -4 -26 -12 -28 -18 -6 -16 28 -46 39 -35 6 6 19 5 34
-3 14 -7 43 -10 67 -8 31 4 46 1 56 -11 7 -9 22 -16 33 -16 10 0 30 -11 43
-25 14 -13 25 -20 25 -15 0 6 9 10 20 10 11 0 20 -4 20 -10 0 -5 -7 -10 -15
-10 -8 0 -15 -7 -15 -15 0 -22 10 -19 35 11 19 22 29 26 54 21 17 -4 31 -3 31
1 -1 19 -58 44 -156 67 -167 39 -188 45 -198 56 -11 10 -11 10 -45 0z"/>
</g>
</svg>
